rawline-700i.ufo
<glyph name="exclam" format="2">
  <advance width="593"/>
  <unicode hex="0021"/>
  <outline>
    <contour>
      <point x="145" y="547" type="line"/>
      <point x="340" y="1468" type="line"/>
      <point x="614" y="1468" type="line"/>
      <point x="420" y="547" type="line"/>
    </contour>
    <contour>
      <point x="29" y="0" type="line"/>
      <point x="94" y="309" type="line"/>
      <point x="369" y="309" type="line"/>
      <point x="303" y="0" type="line"/>
    </contour>
  </outline>
</glyph>
<glyph name="quotedbl" format="2">
  <advance width="792"/>
  <unicode hex="0022"/>
  <outline>
    <contour>
      <point x="205" y="1022" type="line"/>
      <point x="301" y="1481" type="line"/>
      <point x="535" y="1481" type="line"/>
      <point x="438" y="1022" type="line"/>
    </contour>
    <contour>
      <point x="522" y="1022" type="line"/>
      <point x="621" y="1481" type="line"/>
      <point x="854" y="1481" type="line"/>
      <point x="756" y="1022" type="line"/>
    </contour>
  </outline>
</glyph>
<glyph name="numbersign" format="2">
  <advance width="1417"/>
  <unicode hex="0023"/>
  <outline>
    <contour>
      <point x="1397" y="868" type="line"/>
      <point x="1112" y="868" type="line"/>
      <point x="991" y="588" type="line"/>
      <point x="1245" y="588" type="line"/>
      <point x="1202" y="383" type="line"/>
      <point x="899" y="383" type="line"/>
      <point x="729" y="0" type="line"/>
      <point x="510" y="0" type="line"/>
      <point x="680" y="383" type="line"/>
      <point x="463" y="383" type="line"/>
      <point x="293" y="0" type="line"/>
      <point x="72" y="0" type="line"/>
      <point x="242" y="383" type="line"/>
      <point x="25" y="383" type="line"/>
      <point x="68" y="588" type="line"/>
      <point x="336" y="588" type="line"/>
      <point x="455" y="868" type="line"/>
      <point x="219" y="868" type="line"/>
      <point x="262" y="1061" type="line"/>
      <point x="545" y="1061" type="line"/>
      <point x="719" y="1454" type="line"/>
      <point x="938" y="1454" type="line"/>
      <point x="764" y="1061" type="line"/>
      <point x="981" y="1061" type="line"/>
      <point x="1155" y="1454" type="line"/>
      <point x="1376" y="1454" type="line"/>
      <point x="1200" y="1061" type="line"/>
      <point x="1440" y="1061" type="line"/>
    </contour>
    <contour>
      <point x="772" y="588" type="line"/>
      <point x="893" y="868" type="line"/>
      <point x="676" y="868" type="line"/>
      <point x="557" y="588" type="line"/>
    </contour>
  </outline>
</glyph>
<glyph name="dollar" format="2">
  <advance width="1251"/>
  <unicode hex="0024"/>
  <outline>
    <contour>
      <point x="774" y="846" type="qcurve" smooth="yes"/>
      <point x="863" y="819"/>
      <point x="984" y="764"/>
      <point x="1086" y="684"/>
      <point x="1135" y="573"/>
      <point x="1135" y="500" type="qcurve" smooth="yes"/>
      <point x="1135" y="374"/>
      <point x="1039" y="176"/>
      <point x="875" y="55"/>
      <point x="674" y="-11"/>
      <point x="559" y="-16" type="qcurve"/>
      <point x="510" y="-240" type="line"/>
      <point x="389" y="-240" type="line"/>
      <point x="436" y="-12" type="line"/>
      <point x="305" y="-2"/>
      <point x="63" y="95"/>
      <point x="-25" y="172" type="qcurve"/>
      <point x="152" y="416" type="line"/>
      <point x="178" y="374"/>
      <point x="388" y="257"/>
      <point x="510" y="242" type="qcurve"/>
      <point x="584" y="592" type="line"/>
      <point x="566" y="597"/>
      <point x="512" y="614" type="qcurve" smooth="yes"/>
      <point x="350" y="666"/>
      <point x="197" y="809"/>
      <point x="197" y="928" type="qcurve" smooth="yes"/>
      <point x="197" y="1043"/>
      <point x="287" y="1238"/>
      <point x="441" y="1371"/>
      <point x="640" y="1453"/>
      <point x="752" y="1462" type="qcurve"/>
      <point x="795" y="1669" type="line"/>
      <point x="915" y="1669" type="line"/>
      <point x="872" y="1462" type="line"/>
      <point x="990" y="1452"/>
      <point x="1191" y="1366"/>
      <point x="1264" y="1303" type="qcurve"/>
      <point x="1092" y="1073" type="line"/>
      <point x="1075" y="1107"/>
      <point x="899" y="1203"/>
      <point x="799" y="1214" type="qcurve"/>
      <point x="725" y="860" type="line"/>
      <point x="729" y="859"/>
      <point x="750" y="853"/>
      <point x="767" y="848"/>
    </contour>
    <contour>
      <point x="506" y="1022" type="qcurve" smooth="yes"/>
      <point x="506" y="974"/>
      <point x="573" y="913"/>
      <point x="647" y="885" type="qcurve"/>
      <point x="717" y="1214" type="line"/>
      <point x="614" y="1207"/>
      <point x="506" y="1105"/>
    </contour>
    <contour>
      <point x="592" y="238" type="line"/>
      <point x="704" y="241"/>
      <point x="819" y="335"/>
      <point x="819" y="414" type="qcurve" smooth="yes"/>
      <point x="819" y="466"/>
      <point x="740" y="534"/>
      <point x="662" y="563" type="qcurve"/>
    </contour>
  </outline>
</glyph>
<glyph name="percent" format="2">
  <advance width="1556"/>
  <unicode hex="0025"/>
  <outline>
    <contour>
      <point x="182" y="1112" type="qcurve" smooth="yes"/>
      <point x="182" y="1208"/>
      <point x="296" y="1377"/>
      <point x="480" y="1475"/>
      <point x="580" y="1475" type="qcurve" smooth="yes"/>
      <point x="697" y="1475"/>
      <point x="844" y="1327"/>
      <point x="844" y="1217" type="qcurve" smooth="yes"/>
      <point x="844" y="1071"/>
      <point x="604" y="854"/>
      <point x="449" y="854" type="qcurve" smooth="yes"/>
      <point x="331" y="854"/>
      <point x="182" y="1002"/>
    </contour>
    <contour>
      <point x="80" y="96" type="line"/>
      <point x="770" y="770" type="line"/>
      <point x="1423" y="1470" type="line"/>
      <point x="1524" y="1360" type="line"/>
      <point x="850" y="696" type="line"/>
      <point x="180" y="-14" type="line"/>
    </contour>
    <contour>
      <point x="651" y="1202" type="qcurve" smooth="yes"/>
      <point x="651" y="1260"/>
      <point x="595" y="1337"/>
      <point x="551" y="1337" type="qcurve" smooth="yes"/>
      <point x="487" y="1337"/>
      <point x="377" y="1207"/>
      <point x="377" y="1126" type="qcurve" smooth="yes"/>
      <point x="377" y="1068"/>
      <point x="432" y="991"/>
      <point x="477" y="991" type="qcurve" smooth="yes"/>
      <point x="541" y="991"/>
      <point x="651" y="1121"/>
    </contour>
    <contour>
      <point x="760" y="238" type="qcurve" smooth="yes"/>
      <point x="760" y="334"/>
      <point x="872" y="502"/>
      <point x="1055" y="600"/>
      <point x="1155" y="600" type="qcurve" smooth="yes"/>
      <point x="1273" y="600"/>
      <point x="1419" y="453"/>
      <point x="1419" y="342" type="qcurve" smooth="yes"/>
      <point x="1419" y="196"/>
      <point x="1179" y="-20"/>
      <point x="1024" y="-20" type="qcurve" smooth="yes"/>
      <point x="907" y="-20"/>
      <point x="760" y="128"/>
    </contour>
    <contour>
      <point x="1227" y="328" type="qcurve" smooth="yes"/>
      <point x="1227" y="386"/>
      <point x="1170" y="463"/>
      <point x="1126" y="463" type="qcurve" smooth="yes"/>
      <point x="1062" y="463"/>
      <point x="950" y="332"/>
      <point x="950" y="252" type="qcurve" smooth="yes"/>
      <point x="950" y="195"/>
      <point x="1009" y="117"/>
      <point x="1053" y="117" type="qcurve" smooth="yes"/>
      <point x="1118" y="117"/>
      <point x="1227" y="246"/>
    </contour>
  </outline>
</glyph>
<glyph name="ampersand" format="2">
  <advance width="1427"/>
  <unicode hex="0026"/>
  <outline>
    <contour>
      <point x="1343" y="655" type="line"/>
      <point x="1178" y="655" type="line"/>
      <point x="1119" y="486"/>
      <point x="1020" y="348" type="qcurve"/>
      <point x="1262" y="0" type="line"/>
      <point x="911" y="0" type="line"/>
      <point x="817" y="137" type="line"/>
      <point x="615" y="-20"/>
      <point x="401" y="-20" type="qcurve" smooth="yes"/>
      <point x="229" y="-20"/>
      <point x="31" y="183"/>
      <point x="31" y="336" type="qcurve" smooth="yes"/>
      <point x="31" y="400"/>
      <point x="68" y="515"/>
      <point x="127" y="603"/>
      <point x="222" y="691"/>
      <point x="312" y="756"/>
      <point x="375" y="795" type="qcurve"/>
      <point x="321" y="880"/>
      <point x="274" y="1006"/>
      <point x="274" y="1069" type="qcurve" smooth="yes"/>
      <point x="274" y="1181"/>
      <point x="401" y="1369"/>
      <point x="610" y="1473"/>
      <point x="729" y="1473" type="qcurve" smooth="yes"/>
      <point x="854" y="1473"/>
      <point x="1045" y="1338"/>
      <point x="1081" y="1212" type="qcurve"/>
      <point x="891" y="1106" type="line"/>
      <point x="868" y="1182"/>
      <point x="766" y="1270"/>
      <point x="705" y="1270" type="qcurve" smooth="yes"/>
      <point x="636" y="1270"/>
      <point x="530" y="1179"/>
      <point x="530" y="1114" type="qcurve" smooth="yes"/>
      <point x="530" y="1075"/>
      <point x="581" y="981"/>
      <point x="657" y="870" type="qcurve" smooth="yes"/>
      <point x="899" y="524" type="line"/>
      <point x="977" y="674"/>
      <point x="1006" y="852" type="qcurve"/>
      <point x="1374" y="852" type="line"/>
    </contour>
    <contour>
      <point x="473" y="190" type="qcurve" smooth="yes"/>
      <point x="596" y="190"/>
      <point x="715" y="291" type="qcurve"/>
      <point x="489" y="623" type="line"/>
      <point x="390" y="561"/>
      <point x="297" y="441"/>
      <point x="297" y="367" type="qcurve" smooth="yes"/>
      <point x="297" y="284"/>
      <point x="396" y="190"/>
    </contour>
  </outline>
</glyph>
<glyph name="quotesingle" format="2">
  <advance width="475"/>
  <unicode hex="0027"/>
  <outline>
    <contour>
      <point x="205" y="1022" type="line"/>
      <point x="301" y="1481" type="line"/>
      <point x="535" y="1481" type="line"/>
      <point x="438" y="1022" type="line"/>
    </contour>
  </outline>
</glyph>
<glyph name="parenleft" format="2">
  <advance width="622"/>
  <unicode hex="0028"/>
  <outline>
    <contour>
      <point x="561" y="1550" type="qcurve"/>
      <point x="752" y="1462" type="line"/>
      <point x="330" y="920"/>
      <point x="330" y="555" type="qcurve" smooth="yes"/>
      <point x="330" y="296"/>
      <point x="434" y="-8" type="qcurve"/>
      <point x="211" y="-109" type="line"/>
      <point x="149" y="39"/>
      <point x="72" y="385"/>
      <point x="72" y="539" type="qcurve" smooth="yes"/>
      <point x="72" y="643"/>
      <point x="125" y="857"/>
      <point x="203" y="1037"/>
      <point x="343" y="1259"/>
      <point x="465" y="1426"/>
    </contour>
  </outline>
</glyph>
<glyph name="parenright" format="2">
  <advance width="622"/>
  <unicode hex="0029"/>
  <outline>
    <contour>
      <point x="102" y="-109" type="qcurve"/>
      <point x="-76" y="-8" type="line"/>
      <point x="3" y="95"/>
      <point x="112" y="249"/>
      <point x="224" y="437"/>
      <point x="291" y="597"/>
      <point x="334" y="779"/>
      <point x="334" y="868" type="qcurve" smooth="yes"/>
      <point x="334" y="1023"/>
      <point x="265" y="1370"/>
      <point x="229" y="1462" type="qcurve"/>
      <point x="459" y="1550" type="line"/>
      <point x="592" y="1174"/>
      <point x="592" y="883" type="qcurve" smooth="yes"/>
      <point x="592" y="753"/>
      <point x="516" y="492"/>
      <point x="369" y="236"/>
      <point x="212" y="21"/>
    </contour>
  </outline>
</glyph>
<glyph name="asterisk" format="2">
  <advance width="690"/>
  <unicode hex="002A"/>
  <outline>
    <contour>
      <point x="246" y="1065" type="line"/>
      <point x="367" y="1210" type="line"/>
      <point x="240" y="1255" type="line"/>
      <point x="301" y="1374" type="line"/>
      <point x="428" y="1311" type="line"/>
      <point x="453" y="1468" type="line"/>
      <point x="598" y="1468" type="line"/>
      <point x="555" y="1311" type="line"/>
      <point x="709" y="1374" type="line"/>
      <point x="719" y="1255" type="line"/>
      <point x="573" y="1210" type="line"/>
      <point x="635" y="1065" type="line"/>
      <point x="514" y="995" type="line"/>
      <point x="459" y="1149" type="line"/>
      <point x="336" y="995" type="line"/>
    </contour>
  </outline>
</glyph>
<glyph name="plus" format="2">
  <advance width="874"/>
  <unicode hex="002B"/>
  <outline>
    <contour>
      <point x="791" y="838" type="line"/>
      <point x="791" y="616" type="line"/>
      <point x="580" y="616" type="line"/>
      <point x="580" y="385" type="line"/>
      <point x="334" y="385" type="line"/>
      <point x="334" y="616" type="line"/>
      <point x="121" y="616" type="line"/>
      <point x="121" y="838" type="line"/>
      <point x="334" y="838" type="line"/>
      <point x="334" y="1069" type="line"/>
      <point x="580" y="1069" type="line"/>
      <point x="580" y="838" type="line"/>
    </contour>
  </outline>
</glyph>
<glyph name="comma" format="2">
  <advance width="471"/>
  <unicode hex="002C"/>
  <outline>
    <contour>
      <point x="-33" y="-236" type="line"/>
      <point x="76" y="8" type="line"/>
      <point x="-10" y="8" type="line"/>
      <point x="51" y="295" type="line"/>
      <point x="287" y="295" type="line"/>
      <point x="225" y="8" type="line"/>
      <point x="92" y="-236" type="line"/>
    </contour>
  </outline>
</glyph>
<glyph name="hyphen" format="2">
  <advance width="823"/>
  <unicode hex="002D"/>
  <outline>
    <contour>
      <point x="78" y="438" type="line"/>
      <point x="131" y="686" type="line"/>
      <point x="723" y="686" type="line"/>
      <point x="670" y="438" type="line"/>
    </contour>
  </outline>
</glyph>
<glyph name="period" format="2">
  <advance width="458"/>
  <unicode hex="002E"/>
  <outline>
    <contour>
      <point x="-12" y="0" type="line"/>
      <point x="51" y="295" type="line"/>
      <point x="276" y="295" type="line"/>
      <point x="213" y="0" type="line"/>
    </contour>
  </outline>
</glyph>
<glyph name="slash" format="2">
  <advance width="1417"/>
  <unicode hex="002F"/>
  <outline>
    <contour>
      <point x="1526" y="1454" type="line"/>
      <point x="248" y="0" type="line"/>
      <point x="-55" y="0" type="line"/>
      <point x="1223" y="1454" type="line"/>
    </contour>
  </outline>
</glyph>
<glyph name="zero" format="2">
  <advance width="1384"/>
  <unicode hex="0030"/>
  <outline>
    <contour>
      <point x="90" y="569" type="qcurve" smooth="yes"/>
      <point x="90" y="689"/>
      <point x="169" y="942"/>
      <point x="315" y="1168"/>
      <point x="504" y="1348"/>
      <point x="744" y="1454"/>
      <point x="868" y="1454" type="qcurve" smooth="yes"/>
      <point x="964" y="1454"/>
      <point x="1122" y="1383"/>
      <point x="1228" y="1266"/>
      <point x="1302" y="1110"/>
      <point x="1335" y="944"/>
      <point x="1335" y="858" type="qcurve" smooth="yes"/>
      <point x="1335" y="739"/>
      <point x="1257" y="487"/>
      <point x="1111" y="263"/>
      <point x="922" y="85"/>
      <point x="681" y="-20"/>
      <point x="557" y="-20" type="qcurve" smooth="yes"/>
      <point x="462" y="-20"/>
      <point x="304" y="49"/>
      <point x="197" y="165"/>
      <point x="123" y="318"/>
      <point x="90" y="483"/>
    </contour>
    <contour>
      <point x="1049" y="844" type="qcurve" smooth="yes"/>
      <point x="1049" y="939"/>
      <point x="1002" y="1097"/>
      <point x="894" y="1204"/>
      <point x="817" y="1204" type="qcurve" smooth="yes"/>
      <point x="719" y="1204"/>
      <point x="547" y="1072"/>
      <point x="439" y="873"/>
      <point x="377" y="653"/>
      <point x="377" y="559" type="qcurve" smooth="yes"/>
      <point x="377" y="491"/>
      <point x="403" y="376"/>
      <point x="457" y="282"/>
      <point x="548" y="229"/>
      <point x="608" y="229" type="qcurve" smooth="yes"/>
      <point x="686" y="229"/>
      <point x="828" y="311"/>
      <point x="932" y="442"/>
      <point x="1010" y="605"/>
      <point x="1049" y="771"/>
    </contour>
  </outline>
</glyph>
<glyph name="one" format="2">
  <advance width="970"/>
  <unicode hex="0031"/>
  <outline>
    <contour>
      <point x="53" y="248" type="line"/>
      <point x="324" y="248" type="line"/>
      <point x="524" y="1194" type="line"/>
      <point x="478" y="1142"/>
      <point x="245" y="1018"/>
      <point x="172" y="1018" type="qcurve"/>
      <point x="225" y="1272" type="line"/>
      <point x="264" y="1272"/>
      <point x="365" y="1311"/>
      <point x="455" y="1366"/>
      <point x="534" y="1425"/>
      <point x="580" y="1465"/>
      <point x="582" y="1468" type="qcurve" smooth="yes"/>
      <point x="862" y="1468" type="line"/>
      <point x="604" y="248" type="line"/>
      <point x="850" y="248" type="line"/>
      <point x="799" y="0" type="line"/>
      <point x="0" y="0" type="line"/>
    </contour>
  </outline>
</glyph>
<glyph name="two" format="2">
  <advance width="1202"/>
  <unicode hex="0032"/>
  <outline>
    <contour>
      <point x="455" y="682" type="qcurve" smooth="yes"/>
      <point x="478" y="693"/>
      <point x="556" y="727"/>
      <point x="603" y="748"/>
      <point x="673" y="782"/>
      <point x="717" y="808"/>
      <point x="773" y="846"/>
      <point x="808" y="881"/>
      <point x="845" y="928"/>
      <point x="866" y="976"/>
      <point x="879" y="1036"/>
      <point x="879" y="1069" type="qcurve" smooth="yes"/>
      <point x="879" y="1141"/>
      <point x="796" y="1225"/>
      <point x="721" y="1225" type="qcurve" smooth="yes"/>
      <point x="626" y="1225"/>
      <point x="432" y="1121"/>
      <point x="356" y="1051" type="qcurve"/>
      <point x="223" y="1231" type="line"/>
      <point x="263" y="1268"/>
      <point x="372" y="1343"/>
      <point x="523" y="1423"/>
      <point x="714" y="1473"/>
      <point x="809" y="1473" type="qcurve" smooth="yes"/>
      <point x="996" y="1473"/>
      <point x="1196" y="1282"/>
      <point x="1196" y="1122" type="qcurve" smooth="yes"/>
      <point x="1196" y="1033"/>
      <point x="1151" y="887"/>
      <point x="1082" y="784"/>
      <point x="959" y="684"/>
      <point x="846" y="618"/>
      <point x="758" y="573" type="qcurve" smooth="yes"/>
      <point x="591" y="495"/>
      <point x="422" y="349"/>
      <point x="401" y="248" type="qcurve"/>
      <point x="1020" y="248" type="line"/>
      <point x="969" y="0" type="line"/>
      <point x="-43" y="0" type="line"/>
      <point x="17" y="285"/>
      <point x="231" y="580"/>
    </contour>
  </outline>
</glyph>
<glyph name="three" format="2">
  <advance width="1148"/>
  <unicode hex="0033"/>
  <outline>
    <contour>
      <point x="4" y="266" type="qcurve"/>
      <point x="188" y="446" type="line"/>
      <point x="190" y="411"/>
      <point x="217" y="342"/>
      <point x="271" y="275"/>
      <point x="372" y="233"/>
      <point x="438" y="233" type="qcurve" smooth="yes"/>
      <point x="557" y="233"/>
      <point x="731" y="357"/>
      <point x="731" y="453" type="qcurve" smooth="yes"/>
      <point x="731" y="635"/>
      <point x="379" y="635" type="qcurve" smooth="yes"/>
      <point x="315" y="635" type="line"/>
      <point x="362" y="864" type="line"/>
      <point x="428" y="864" type="line" smooth="yes"/>
      <point x="605" y="864"/>
      <point x="829" y="979"/>
      <point x="829" y="1085" type="qcurve" smooth="yes"/>
      <point x="829" y="1157"/>
      <point x="736" y="1231"/>
      <point x="666" y="1231" type="qcurve" smooth="yes"/>
      <point x="566" y="1231"/>
      <point x="388" y="1128"/>
      <point x="346" y="1065" type="qcurve"/>
      <point x="211" y="1264" type="line"/>
      <point x="297" y="1361"/>
      <point x="582" y="1473"/>
      <point x="721" y="1473" type="qcurve" smooth="yes"/>
      <point x="905" y="1473"/>
      <point x="1130" y="1281"/>
      <point x="1130" y="1130" type="qcurve" smooth="yes"/>
      <point x="1130" y="996"/>
      <point x="949" y="798"/>
      <point x="797" y="764" type="qcurve"/>
      <point x="900" y="744"/>
      <point x="1016" y="579"/>
      <point x="1016" y="461" type="qcurve" smooth="yes"/>
      <point x="1016" y="369"/>
      <point x="942" y="211"/>
      <point x="819" y="99"/>
      <point x="659" y="20"/>
      <point x="484" y="-18"/>
      <point x="397" y="-18" type="qcurve" smooth="yes"/>
      <point x="228" y="-18"/>
      <point x="24" y="129"/>
    </contour>
  </outline>
</glyph>
<glyph name="four" format="2">
  <advance width="1153"/>
  <unicode hex="0034"/>
  <outline>
    <contour>
      <point x="498" y="0" type="line"/>
      <point x="567" y="330" type="line"/>
      <point x="-6" y="330" type="line"/>
      <point x="47" y="575" type="line"/>
      <point x="891" y="1454" type="line"/>
      <point x="1079" y="1454" type="line"/>
      <point x="893" y="578" type="line"/>
      <point x="1065" y="578" type="line"/>
      <point x="1014" y="330" type="line"/>
      <point x="842" y="330" type="line"/>
      <point x="772" y="0" type="line"/>
    </contour>
    <contour>
      <point x="649" y="578" type="line"/>
      <point x="750" y="1040" type="line"/>
      <point x="324" y="578" type="line"/>
    </contour>
  </outline>
</glyph>
<glyph name="five" format="2">
  <advance width="1120"/>
  <unicode hex="0035"/>
  <outline>
    <contour>
      <point x="-10" y="233" type="qcurve"/>
      <point x="182" y="397" type="line"/>
      <point x="219" y="317"/>
      <point x="358" y="223"/>
      <point x="442" y="223" type="qcurve" smooth="yes"/>
      <point x="562" y="223"/>
      <point x="731" y="393"/>
      <point x="731" y="518" type="qcurve" smooth="yes"/>
      <point x="731" y="602"/>
      <point x="639" y="705"/>
      <point x="563" y="705" type="qcurve" smooth="yes"/>
      <point x="501" y="705"/>
      <point x="383" y="644"/>
      <point x="340" y="590" type="qcurve"/>
      <point x="102" y="590" type="line"/>
      <point x="137" y="674"/>
      <point x="416" y="1387"/>
      <point x="444" y="1454" type="qcurve"/>
      <point x="1128" y="1454" type="line"/>
      <point x="1073" y="1204" type="line"/>
      <point x="590" y="1204" type="line"/>
      <point x="469" y="879" type="line"/>
      <point x="530" y="940"/>
      <point x="651" y="940" type="qcurve" smooth="yes"/>
      <point x="817" y="940"/>
      <point x="1020" y="732"/>
      <point x="1020" y="565" type="qcurve" smooth="yes"/>
      <point x="1020" y="442"/>
      <point x="918" y="223"/>
      <point x="747" y="69"/>
      <point x="516" y="-20"/>
      <point x="391" y="-20" type="qcurve" smooth="yes"/>
      <point x="241" y="-20"/>
      <point x="28" y="114"/>
    </contour>
  </outline>
</glyph>
<glyph name="six" format="2">
  <advance width="1212"/>
  <unicode hex="0036"/>
  <outline>
    <contour>
      <point x="1110" y="573" type="qcurve" smooth="yes"/>
      <point x="1110" y="744"/>
      <point x="893" y="971"/>
      <point x="719" y="971" type="qcurve" smooth="yes"/>
      <point x="627" y="971"/>
      <point x="461" y="886"/>
      <point x="403" y="811" type="qcurve"/>
      <point x="448" y="1006"/>
      <point x="647" y="1227"/>
      <point x="772" y="1227" type="qcurve" smooth="yes"/>
      <point x="855" y="1227"/>
      <point x="983" y="1140"/>
      <point x="1014" y="1063" type="qcurve"/>
      <point x="1206" y="1235" type="line"/>
      <point x="1152" y="1345"/>
      <point x="956" y="1464"/>
      <point x="827" y="1464" type="qcurve" smooth="yes"/>
      <point x="666" y="1464"/>
      <point x="388" y="1304"/>
      <point x="197" y="1032"/>
      <point x="88" y="664"/>
      <point x="88" y="459" type="qcurve" smooth="yes"/>
      <point x="88" y="235"/>
      <point x="295" y="-20"/>
      <point x="483" y="-20" type="qcurve" smooth="yes"/>
      <point x="603" y="-20"/>
      <point x="833" y="77"/>
      <point x="1005" y="236"/>
      <point x="1110" y="456"/>
    </contour>
    <contour>
      <point x="342" y="436" type="qcurve" smooth="yes"/>
      <point x="342" y="562"/>
      <point x="532" y="752"/>
      <point x="649" y="752" type="qcurve" smooth="yes"/>
      <point x="733" y="752"/>
      <point x="842" y="628"/>
      <point x="842" y="535" type="qcurve" smooth="yes"/>
      <point x="842" y="409"/>
      <point x="649" y="211"/>
      <point x="535" y="211" type="qcurve" smooth="yes"/>
      <point x="450" y="211"/>
      <point x="342" y="341"/>
    </contour>
  </outline>
</glyph>
<glyph name="seven" format="2">
  <advance width="1118"/>
  <unicode hex="0037"/>
  <outline>
    <contour>
      <point x="807" y="1204" type="line"/>
      <point x="190" y="1204" type="line"/>
      <point x="246" y="1454" type="line"/>
      <point x="1292" y="1454" type="line"/>
      <point x="297" y="0" type="line"/>
      <point x="-12" y="0" type="line"/>
    </contour>
  </outline>
</glyph>
<glyph name="nine" format="2">
  <advance width="1212"/>
  <unicode hex="0039"/>
  <outline>
    <contour>
      <point x="539" y="475" type="qcurve" smooth="yes"/>
      <point x="631" y="475"/>
      <point x="796" y="560"/>
      <point x="854" y="635" type="qcurve"/>
      <point x="809" y="438"/>
      <point x="612" y="219"/>
      <point x="485" y="219" type="qcurve" smooth="yes"/>
      <point x="402" y="219"/>
      <point x="275" y="306"/>
      <point x="246" y="383" type="qcurve"/>
      <point x="51" y="211" type="line"/>
      <point x="107" y="100"/>
      <point x="303" y="-20"/>
      <point x="432" y="-20" type="qcurve" smooth="yes"/>
      <point x="592" y="-20"/>
      <point x="869" y="140"/>
      <point x="1060" y="413"/>
      <point x="1169" y="781"/>
      <point x="1169" y="985" type="qcurve" smooth="yes"/>
      <point x="1169" y="1210"/>
      <point x="962" y="1464"/>
      <point x="774" y="1464" type="qcurve" smooth="yes"/>
      <point x="654" y="1464"/>
      <point x="424" y="1368"/>
      <point x="252" y="1208"/>
      <point x="147" y="989"/>
      <point x="147" y="872" type="qcurve" smooth="yes"/>
      <point x="147" y="701"/>
      <point x="364" y="475"/>
    </contour>
    <contour>
      <point x="918" y="1010" type="qcurve" smooth="yes"/>
      <point x="918" y="885"/>
      <point x="726" y="694"/>
      <point x="610" y="694" type="qcurve" smooth="yes"/>
      <point x="525" y="694"/>
      <point x="418" y="818"/>
      <point x="418" y="911" type="qcurve" smooth="yes"/>
      <point x="418" y="1037"/>
      <point x="609" y="1235"/>
      <point x="725" y="1235" type="qcurve" smooth="yes"/>
      <point x="808" y="1235"/>
      <point x="918" y="1104"/>
    </contour>
  </outline>
</glyph>
<glyph name="colon" format="2">
  <advance width="499"/>
  <unicode hex="003A"/>
  <outline>
    <contour>
      <point x="168" y="766" type="line"/>
      <point x="231" y="1061" type="line"/>
      <point x="455" y="1061" type="line"/>
      <point x="393" y="766" type="line"/>
    </contour>
    <contour>
      <point x="6" y="0" type="line"/>
      <point x="70" y="295" type="line"/>
      <point x="293" y="295" type="line"/>
      <point x="229" y="0" type="line"/>
    </contour>
  </outline>
</glyph>
<glyph name="semicolon" format="2">
  <advance width="505"/>
  <unicode hex="003B"/>
  <outline>
    <contour>
      <point x="170" y="766" type="line"/>
      <point x="231" y="1061" type="line"/>
      <point x="457" y="1061" type="line"/>
      <point x="393" y="766" type="line"/>
    </contour>
    <contour>
      <point x="-14" y="-236" type="line"/>
      <point x="92" y="8" type="line"/>
      <point x="6" y="8" type="line"/>
      <point x="68" y="295" type="line"/>
      <point x="305" y="295" type="line"/>
      <point x="244" y="8" type="line"/>
      <point x="109" y="-236" type="line"/>
    </contour>
  </outline>
</glyph>
<glyph name="less" format="2">
  <advance width="1126"/>
  <unicode hex="003C"/>
  <outline>
    <contour>
      <point x="59" y="590" type="line"/>
      <point x="924" y="1112" type="line"/>
      <point x="924" y="821" type="line"/>
      <point x="459" y="530" type="line"/>
      <point x="924" y="252" type="line"/>
      <point x="924" y="-55" type="line"/>
      <point x="59" y="457" type="line"/>
    </contour>
  </outline>
</glyph>
<glyph name="equal" format="2">
  <advance width="993"/>
  <unicode hex="003D"/>
  <outline>
    <contour>
      <point x="164" y="657" type="line"/>
      <point x="164" y="836" type="line"/>
      <point x="805" y="836" type="line"/>
      <point x="805" y="657" type="line"/>
    </contour>
    <contour>
      <point x="164" y="295" type="line"/>
      <point x="164" y="473" type="line"/>
      <point x="805" y="473" type="line"/>
      <point x="805" y="295" type="line"/>
    </contour>
  </outline>
</glyph>
<glyph name="greater" format="2">
  <advance width="1126"/>
  <unicode hex="003E"/>
  <outline>
    <contour>
      <point x="1028" y="457" type="line"/>
      <point x="164" y="-55" type="line"/>
      <point x="164" y="252" type="line"/>
      <point x="629" y="530" type="line"/>
      <point x="164" y="821" type="line"/>
      <point x="164" y="1112" type="line"/>
      <point x="1028" y="590" type="line"/>
    </contour>
  </outline>
</glyph>
<glyph name="question" format="2">
  <advance width="964"/>
  <unicode hex="003F"/>
  <outline>
    <contour>
      <point x="207" y="477" type="line"/>
      <point x="229" y="587"/>
      <point x="329" y="741"/>
      <point x="432" y="797" type="qcurve" smooth="yes"/>
      <point x="445" y="804"/>
      <point x="470" y="817" type="qcurve" smooth="yes"/>
      <point x="519" y="843"/>
      <point x="567" y="870"/>
      <point x="646" y="918"/>
      <point x="685" y="957"/>
      <point x="730" y="1011"/>
      <point x="748" y="1073"/>
      <point x="748" y="1108" type="qcurve" smooth="yes"/>
      <point x="748" y="1173"/>
      <point x="666" y="1249"/>
      <point x="604" y="1249" type="qcurve" smooth="yes"/>
      <point x="472" y="1249"/>
      <point x="350" y="1085" type="qcurve"/>
      <point x="197" y="1208" type="line"/>
      <point x="274" y="1332"/>
      <point x="525" y="1473"/>
      <point x="662" y="1473" type="qcurve" smooth="yes"/>
      <point x="801" y="1473"/>
      <point x="993" y="1310"/>
      <point x="993" y="1153" type="qcurve" smooth="yes"/>
      <point x="993" y="1066"/>
      <point x="952" y="930"/>
      <point x="868" y="830"/>
      <point x="778" y="763"/>
      <point x="711" y="725" type="qcurve" smooth="yes"/>
      <point x="690" y="713"/>
      <point x="614" y="673"/>
      <point x="569" y="649"/>
      <point x="508" y="607"/>
      <point x="472" y="568"/>
      <point x="439" y="510"/>
      <point x="432" y="477" type="qcurve"/>
    </contour>
    <contour>
      <point x="111" y="0" type="line"/>
      <point x="170" y="283" type="line"/>
      <point x="395" y="283" type="line"/>
      <point x="336" y="0" type="line"/>
    </contour>
  </outline>
</glyph>
<glyph name="at" format="2">
  <advance width="1665"/>
  <unicode hex="0040"/>
  <outline>
    <contour>
      <point x="1436" y="608" type="qcurve" smooth="yes"/>
      <point x="1436" y="752"/>
      <point x="1319" y="984"/>
      <point x="1083" y="1124"/>
      <point x="924" y="1124" type="qcurve" smooth="yes"/>
      <point x="776" y="1124"/>
      <point x="495" y="1000"/>
      <point x="285" y="791"/>
      <point x="158" y="497"/>
      <point x="158" y="336" type="qcurve" smooth="yes"/>
      <point x="158" y="100"/>
      <point x="415" y="-188"/>
      <point x="637" y="-188" type="qcurve" smooth="yes"/>
      <point x="776" y="-188"/>
      <point x="950" y="-111" type="qcurve"/>
      <point x="963" y="-217" type="line"/>
      <point x="792" y="-299"/>
      <point x="614" y="-299" type="qcurve" smooth="yes"/>
      <point x="356" y="-299"/>
      <point x="41" y="43"/>
      <point x="41" y="324" type="qcurve" smooth="yes"/>
      <point x="41" y="477"/>
      <point x="141" y="761"/>
      <point x="317" y="982"/>
      <point x="546" y="1147"/>
      <point x="815" y="1235"/>
      <point x="1089" y="1235"/>
      <point x="1316" y="1144"/>
      <point x="1468" y="984"/>
      <point x="1552" y="767"/>
      <point x="1552" y="641" type="qcurve" smooth="yes"/>
      <point x="1552" y="560"/>
      <point x="1520" y="381"/>
      <point x="1450" y="201"/>
      <point x="1354" y="57"/>
      <point x="1214" y="-33"/>
      <point x="1133" y="-33" type="qcurve" smooth="yes"/>
      <point x="1064" y="-33"/>
      <point x="981" y="34"/>
      <point x="981" y="102" type="qcurve" smooth="yes"/>
      <point x="981" y="127"/>
      <point x="983" y="137" type="qcurve"/>
      <point x="828" y="-6"/>
      <point x="657" y="-6" type="qcurve" smooth="yes"/>
      <point x="508" y="-6"/>
      <point x="330" y="206"/>
      <point x="330" y="371" type="qcurve" smooth="yes"/>
      <point x="330" y="481"/>
      <point x="416" y="694"/>
      <point x="555" y="851"/>
      <point x="742" y="948"/>
      <point x="838" y="948" type="qcurve" smooth="yes"/>
      <point x="937" y="948"/>
      <point x="1072" y="850"/>
      <point x="1096" y="770" type="qcurve"/>
      <point x="1124" y="922" type="line"/>
      <point x="1264" y="922" type="line"/>
      <point x="1126" y="236" type="line" smooth="yes"/>
      <point x="1118" y="205"/>
      <point x="1118" y="168" type="qcurve" smooth="yes"/>
      <point x="1118" y="90"/>
      <point x="1184" y="90" type="qcurve" smooth="yes"/>
      <point x="1253" y="90"/>
      <point x="1372" y="262"/>
      <point x="1436" y="499"/>
    </contour>
    <contour>
      <point x="991" y="340" type="qcurve"/>
      <point x="1032" y="600" type="line"/>
      <point x="1012" y="691"/>
      <point x="903" y="793"/>
      <point x="829" y="793" type="qcurve" smooth="yes"/>
      <point x="706" y="793"/>
      <point x="496" y="555"/>
      <point x="496" y="395" type="qcurve" smooth="yes"/>
      <point x="496" y="280"/>
      <point x="617" y="131"/>
      <point x="717" y="131" type="qcurve" smooth="yes"/>
      <point x="805" y="131"/>
      <point x="953" y="248"/>
    </contour>
  </outline>
</glyph>
<glyph name="B" format="2">
  <advance width="1343"/>
  <unicode hex="0042"/>
  <outline>
    <contour>
      <point x="330" y="1454" type="line"/>
      <point x="1075" y="1454" type="line" smooth="yes"/>
      <point x="1190" y="1454"/>
      <point x="1321" y="1279"/>
      <point x="1321" y="1157" type="qcurve" smooth="yes"/>
      <point x="1321" y="1029"/>
      <point x="1167" y="798"/>
      <point x="1040" y="745" type="qcurve"/>
      <point x="1131" y="714"/>
      <point x="1231" y="564"/>
      <point x="1231" y="350"/>
      <point x="1141" y="174"/>
      <point x="989" y="61"/>
      <point x="795" y="0"/>
      <point x="688" y="0" type="qcurve" smooth="yes"/>
      <point x="20" y="0" type="line"/>
    </contour>
    <contour>
      <point x="827" y="846" type="line" smooth="yes"/>
      <point x="905" y="846"/>
      <point x="1028" y="975"/>
      <point x="1028" y="1073" type="qcurve" smooth="yes"/>
      <point x="1028" y="1136"/>
      <point x="966" y="1212"/>
      <point x="915" y="1212" type="qcurve" smooth="yes"/>
      <point x="559" y="1212" type="line"/>
      <point x="481" y="846" type="line"/>
    </contour>
    <contour>
      <point x="739" y="240" type="line" smooth="yes"/>
      <point x="820" y="240"/>
      <point x="952" y="378"/>
      <point x="952" y="471" type="qcurve" smooth="yes"/>
      <point x="952" y="536"/>
      <point x="888" y="623"/>
      <point x="834" y="623" type="qcurve" smooth="yes"/>
      <point x="432" y="623" type="line"/>
      <point x="352" y="240" type="line"/>
    </contour>
  </outline>
</glyph>
<glyph name="D" format="2">
  <advance width="1417"/>
  <unicode hex="0044"/>
  <anchor x="0" y="0" name="Anchor-11"/>
  <anchor x="670" y="727" name="Anchor-10"/>
  <anchor x="819" y="1452" name="Anchor-9"/>
  <anchor x="0" y="0" name="Anchor-8"/>
  <anchor x="512" y="0" name="Anchor-7"/>
  <outline>
    <contour>
      <point x="330" y="1454" type="line"/>
      <point x="836" y="1454" type="line" smooth="yes"/>
      <point x="973" y="1454"/>
      <point x="1185" y="1367"/>
      <point x="1317" y="1213"/>
      <point x="1384" y="1011"/>
      <point x="1384" y="891" type="qcurve" smooth="yes"/>
      <point x="1384" y="702"/>
      <point x="1253" y="371"/>
      <point x="1027" y="135"/>
      <point x="708" y="0"/>
      <point x="526" y="0" type="qcurve" smooth="yes"/>
      <point x="20" y="0" type="line"/>
    </contour>
    <contour>
      <point x="578" y="248" type="line" smooth="yes"/>
      <point x="730" y="248"/>
      <point x="969" y="417"/>
      <point x="1094" y="690"/>
      <point x="1094" y="850" type="qcurve" smooth="yes"/>
      <point x="1094" y="1013"/>
      <point x="932" y="1206"/>
      <point x="782" y="1206" type="qcurve" smooth="yes"/>
      <point x="557" y="1206" type="line"/>
      <point x="354" y="248" type="line"/>
    </contour>
  </outline>
</glyph>
<glyph name="F" format="2">
  <advance width="1138"/>
  <unicode hex="0046"/>
  <outline>
    <contour>
      <point x="330" y="1454" type="line"/>
      <point x="1260" y="1454" type="line"/>
      <point x="1206" y="1206" type="line"/>
      <point x="557" y="1206" type="line"/>
      <point x="479" y="831" type="line"/>
      <point x="1016" y="831" type="line"/>
      <point x="967" y="602" type="line"/>
      <point x="430" y="602" type="line"/>
      <point x="301" y="0" type="line"/>
      <point x="20" y="0" type="line"/>
    </contour>
  </outline>
</glyph>
<glyph name="H" format="2">
  <advance width="1470"/>
  <unicode hex="0048"/>
  <anchor x="0" y="0" name="Anchor-11"/>
  <anchor x="776" y="727" name="Anchor-10"/>
  <anchor x="930" y="1454" name="Anchor-9"/>
  <anchor x="0" y="0" name="Anchor-8"/>
  <anchor x="623" y="0" name="Anchor-7"/>
  <outline>
    <contour>
      <point x="330" y="1454" type="line"/>
      <point x="610" y="1454" type="line"/>
      <point x="485" y="866" type="line"/>
      <point x="1092" y="866" type="line"/>
      <point x="1217" y="1454" type="line"/>
      <point x="1497" y="1454" type="line"/>
      <point x="1188" y="0" type="line"/>
      <point x="907" y="0" type="line"/>
      <point x="1038" y="621" type="line"/>
      <point x="432" y="621" type="line"/>
      <point x="301" y="0" type="line"/>
      <point x="20" y="0" type="line"/>
    </contour>
  </outline>
</glyph>
<glyph name="M" format="2">
  <advance width="1699"/>
  <unicode hex="004D"/>
  <anchor x="0" y="0" name="Anchor-11"/>
  <anchor x="0" y="0" name="Anchor-10"/>
  <anchor x="1044" y="1454" name="Anchor-9"/>
  <anchor x="0" y="0" name="Anchor-8"/>
  <anchor x="735" y="0" name="Anchor-7"/>
  <outline>
    <contour>
      <point x="330" y="1454" type="line"/>
      <point x="633" y="1454" type="line"/>
      <point x="852" y="627" type="line"/>
      <point x="1425" y="1454" type="line"/>
      <point x="1726" y="1454" type="line"/>
      <point x="1417" y="0" type="line"/>
      <point x="1137" y="0" type="line"/>
      <point x="1341" y="963" type="line"/>
      <point x="848" y="246" type="line"/>
      <point x="694" y="246" type="line"/>
      <point x="506" y="963" type="line"/>
      <point x="301" y="0" type="line"/>
      <point x="20" y="0" type="line"/>
    </contour>
  </outline>
</glyph>
<glyph name="N" format="2">
  <advance width="1501"/>
  <unicode hex="004E"/>
  <anchor x="0" y="0" name="Anchor-11"/>
  <anchor x="0" y="0" name="Anchor-10"/>
  <anchor x="936" y="1450" name="Anchor-9"/>
  <anchor x="0" y="0" name="Anchor-8"/>
  <anchor x="635" y="0" name="Anchor-7"/>
  <outline>
    <contour>
      <point x="330" y="1454" type="line"/>
      <point x="549" y="1454" type="line"/>
      <point x="1044" y="500" type="line"/>
      <point x="1247" y="1452" type="line"/>
      <point x="1528" y="1452" type="line"/>
      <point x="1219" y="0" type="line"/>
      <point x="991" y="0" type="line"/>
      <point x="498" y="932" type="line"/>
      <point x="301" y="0" type="line"/>
      <point x="20" y="0" type="line"/>
    </contour>
  </outline>
</glyph>
<glyph name="V" format="2">
  <advance width="1323"/>
  <unicode hex="0056"/>
  <outline>
    <contour>
      <point x="176" y="1454" type="line"/>
      <point x="473" y="1454" type="line"/>
      <point x="600" y="354" type="line"/>
      <point x="1190" y="1454" type="line"/>
      <point x="1487" y="1454" type="line"/>
      <point x="643" y="0" type="line"/>
      <point x="406" y="0" type="line"/>
    </contour>
  </outline>
</glyph>
<glyph name="W" format="2">
  <advance width="2052"/>
  <unicode hex="0057"/>
  <anchor x="0" y="0" name="Anchor-11"/>
  <anchor x="0" y="0" name="Anchor-10"/>
  <anchor x="1192" y="1450" name="Anchor-9"/>
  <anchor x="0" y="0" name="Anchor-8"/>
  <anchor x="0" y="0" name="Anchor-7"/>
  <outline>
    <contour>
      <point x="168" y="1454" type="line"/>
      <point x="473" y="1454" type="line"/>
      <point x="612" y="324" type="line"/>
      <point x="874" y="788" type="line"/>
      <point x="784" y="1450" type="line"/>
      <point x="1044" y="1450" type="line"/>
      <point x="1094" y="969" type="line"/>
      <point x="1346" y="1450" type="line"/>
      <point x="1608" y="1450" type="line"/>
      <point x="1233" y="788" type="line"/>
      <point x="1300" y="324" type="line"/>
      <point x="1919" y="1454" type="line"/>
      <point x="2226" y="1454" type="line"/>
      <point x="1358" y="0" type="line"/>
      <point x="1122" y="0" type="line"/>
      <point x="1018" y="610" type="line"/>
      <point x="653" y="0" type="line"/>
      <point x="418" y="0" type="line"/>
    </contour>
  </outline>
</glyph>
<glyph name="Y" format="2">
  <advance width="1267"/>
  <unicode hex="0059"/>
  <anchor x="0" y="0" name="Anchor-11"/>
  <anchor x="0" y="0" name="Anchor-10"/>
  <anchor x="776" y="1450" name="Anchor-9"/>
  <anchor x="0" y="0" name="Anchor-8"/>
  <anchor x="0" y="0" name="Anchor-7"/>
  <outline>
    <contour>
      <point x="461" y="512" type="line"/>
      <point x="166" y="1454" type="line"/>
      <point x="473" y="1454" type="line"/>
      <point x="653" y="754" type="line"/>
      <point x="1137" y="1454" type="line"/>
      <point x="1442" y="1454" type="line"/>
      <point x="739" y="508" type="line"/>
      <point x="633" y="0" type="line"/>
      <point x="352" y="0" type="line"/>
    </contour>
  </outline>
</glyph>
<glyph name="Z" format="2">
  <advance width="1222"/>
  <unicode hex="005A"/>
  <anchor x="0" y="0" name="Anchor-11"/>
  <anchor x="0" y="0" name="Anchor-10"/>
  <anchor x="807" y="1454" name="Anchor-9"/>
  <anchor x="0" y="0" name="Anchor-8"/>
  <anchor x="498" y="0" name="Anchor-7"/>
  <outline>
    <contour>
      <point x="-27" y="213" type="line"/>
      <point x="948" y="1206" type="line"/>
      <point x="209" y="1206" type="line"/>
      <point x="260" y="1454" type="line"/>
      <point x="1327" y="1454" type="line"/>
      <point x="1282" y="1241" type="line"/>
      <point x="334" y="248" type="line"/>
      <point x="1075" y="248" type="line"/>
      <point x="1024" y="0" type="line"/>
      <point x="-72" y="0" type="line"/>
    </contour>
  </outline>
</glyph>
<glyph name="bracketleft" format="2">
  <advance width="618"/>
  <unicode hex="005B"/>
  <outline>
    <contour>
      <point x="2" y="-82" type="line"/>
      <point x="342" y="1516" type="line"/>
      <point x="719" y="1516" type="line"/>
      <point x="674" y="1296" type="line"/>
      <point x="549" y="1296" type="line"/>
      <point x="303" y="137" type="line"/>
      <point x="428" y="137" type="line"/>
      <point x="381" y="-82" type="line"/>
    </contour>
  </outline>
</glyph>
<glyph name="backslash" format="2">
  <advance width="1236"/>
  <unicode hex="005C"/>
  <outline>
    <contour>
      <point x="524" y="1454" type="line"/>
      <point x="1061" y="0" type="line"/>
      <point x="758" y="0" type="line"/>
      <point x="219" y="1454" type="line"/>
    </contour>
  </outline>
</glyph>
<glyph name="bracketright" format="2">
  <advance width="618"/>
  <unicode hex="005D"/>
  <outline>
    <contour>
      <point x="-59" y="-82" type="line"/>
      <point x="-12" y="137" type="line"/>
      <point x="113" y="137" type="line"/>
      <point x="358" y="1296" type="line"/>
      <point x="233" y="1296" type="line"/>
      <point x="281" y="1516" type="line"/>
      <point x="659" y="1516" type="line"/>
      <point x="322" y="-82" type="line"/>
    </contour>
  </outline>
</glyph>
<glyph name="asciicircum" format="2">
  <advance width="1206"/>
  <unicode hex="005E"/>
  <outline>
    <contour>
      <point x="98" y="621" type="line"/>
      <point x="504" y="1454" type="line"/>
      <point x="733" y="1454" type="line"/>
      <point x="1137" y="621" type="line"/>
      <point x="911" y="621" type="line"/>
      <point x="618" y="1223" type="line"/>
      <point x="319" y="621" type="line"/>
    </contour>
  </outline>
</glyph>
<glyph name="underscore" format="2">
  <advance width="933"/>
  <unicode hex="005F"/>
  <outline>
    <contour>
      <point x="-72" y="-248" type="line"/>
      <point x="-20" y="0" type="line"/>
      <point x="690" y="0" type="line"/>
      <point x="637" y="-248" type="line"/>
    </contour>
  </outline>
</glyph>
<glyph name="grave" format="2">
  <advance width="563"/>
  <unicode hex="0060"/>
  <anchor x="489" y="1495" name="Anchor-13"/>
  <outline>
    <contour>
      <point x="307" y="1495" type="line"/>
      <point x="559" y="1495" type="line"/>
      <point x="612" y="1251" type="line"/>
      <point x="422" y="1214" type="line"/>
    </contour>
  </outline>
</glyph>
<glyph name="b" format="2">
  <advance width="1253"/>
  <unicode hex="0062"/>
  <outline>
    <contour>
      <point x="270" y="186" type="qcurve"/>
      <point x="231" y="0" type="line"/>
      <point x="-8" y="0" type="line"/>
      <point x="309" y="1495" type="line"/>
      <point x="584" y="1495" type="line"/>
      <point x="453" y="885" type="line"/>
      <point x="526" y="981"/>
      <point x="730" y="1092"/>
      <point x="838" y="1092" type="qcurve" smooth="yes"/>
      <point x="1002" y="1092"/>
      <point x="1188" y="845"/>
      <point x="1188" y="657" type="qcurve" smooth="yes"/>
      <point x="1188" y="521"/>
      <point x="1085" y="269"/>
      <point x="916" y="88"/>
      <point x="694" y="-20"/>
      <point x="578" y="-20" type="qcurve" smooth="yes"/>
      <point x="460" y="-20"/>
      <point x="301" y="89"/>
    </contour>
    <contour>
      <point x="899" y="604" type="qcurve" smooth="yes"/>
      <point x="899" y="711"/>
      <point x="793" y="858"/>
      <point x="702" y="858" type="qcurve" smooth="yes"/>
      <point x="621" y="858"/>
      <point x="459" y="740"/>
      <point x="403" y="649" type="qcurve"/>
      <point x="348" y="393" type="line"/>
      <point x="360" y="314"/>
      <point x="475" y="213"/>
      <point x="557" y="213" type="qcurve" smooth="yes"/>
      <point x="690" y="213"/>
      <point x="899" y="450"/>
    </contour>
  </outline>
</glyph>
<glyph name="f" format="2">
  <advance width="739"/>
  <unicode hex="0066"/>
  <outline>
    <contour>
      <point x="221" y="807" type="line"/>
      <point x="90" y="807" type="line"/>
      <point x="135" y="1016" type="line"/>
      <point x="266" y="1016" type="line"/>
      <point x="281" y="1081" type="line"/>
      <point x="321" y="1279"/>
      <point x="559" y="1516"/>
      <point x="717" y="1516" type="qcurve" smooth="yes"/>
      <point x="839" y="1516"/>
      <point x="958" y="1452" type="qcurve"/>
      <point x="862" y="1245" type="line"/>
      <point x="803" y="1284"/>
      <point x="729" y="1284" type="qcurve" smooth="yes"/>
      <point x="665" y="1284"/>
      <point x="577" y="1186"/>
      <point x="557" y="1092" type="qcurve" smooth="yes"/>
      <point x="541" y="1016" type="line"/>
      <point x="786" y="1016" type="line"/>
      <point x="741" y="807" type="line"/>
      <point x="496" y="807" type="line"/>
      <point x="231" y="-434" type="line"/>
      <point x="-43" y="-434" type="line"/>
    </contour>
  </outline>
</glyph>
<glyph name="i" format="2">
  <advance width="518"/>
  <unicode hex="0069"/>
  <anchor x="0" y="0" name="Anchor-11"/>
  <anchor x="0" y="0" name="Anchor-10"/>
  <anchor x="0" y="0" name="Anchor-9"/>
  <anchor x="266" y="0" name="Anchor-8"/>
  <anchor x="135" y="0" name="Anchor-7"/>
  <outline>
    <contour>
      <point x="309" y="1495" type="line"/>
      <point x="584" y="1495" type="line"/>
      <point x="526" y="1223" type="line"/>
      <point x="252" y="1223" type="line"/>
    </contour>
    <contour>
      <point x="219" y="1073" type="line"/>
      <point x="494" y="1073" type="line"/>
      <point x="266" y="0" type="line"/>
      <point x="-8" y="0" type="line"/>
    </contour>
  </outline>
</glyph>
<glyph name="p" format="2">
  <advance width="1253"/>
  <unicode hex="0070"/>
  <outline>
    <contour>
      <point x="219" y="1073" type="line"/>
      <point x="459" y="1073" type="line"/>
      <point x="420" y="889" type="line"/>
      <point x="498" y="985"/>
      <point x="700" y="1092"/>
      <point x="813" y="1092" type="qcurve" smooth="yes"/>
      <point x="982" y="1092"/>
      <point x="1186" y="840"/>
      <point x="1186" y="651" type="qcurve" smooth="yes"/>
      <point x="1186" y="478"/>
      <point x="1025" y="167"/>
      <point x="756" y="-20"/>
      <point x="606" y="-20" type="qcurve" smooth="yes"/>
      <point x="491" y="-20"/>
      <point x="335" y="91"/>
      <point x="305" y="188" type="qcurve"/>
      <point x="172" y="-436" type="line"/>
      <point x="-102" y="-436" type="line"/>
    </contour>
    <contour>
      <point x="899" y="606" type="qcurve" smooth="yes"/>
      <point x="899" y="715"/>
      <point x="782" y="858"/>
      <point x="686" y="858" type="qcurve" smooth="yes"/>
      <point x="613" y="858"/>
      <point x="454" y="755"/>
      <point x="410" y="678" type="qcurve"/>
      <point x="354" y="426" type="line"/>
      <point x="369" y="334"/>
      <point x="487" y="213"/>
      <point x="565" y="213" type="qcurve" smooth="yes"/>
      <point x="651" y="213"/>
      <point x="807" y="328"/>
      <point x="899" y="510"/>
    </contour>
  </outline>
</glyph>
<glyph name="q" format="2">
  <advance width="1251"/>
  <unicode hex="0071"/>
  <outline>
    <contour>
      <point x="764" y="188" type="line"/>
      <point x="688" y="86"/>
      <point x="488" y="-20"/>
      <point x="375" y="-20" type="qcurve" smooth="yes"/>
      <point x="216" y="-20"/>
      <point x="31" y="226"/>
      <point x="31" y="414" type="qcurve" smooth="yes"/>
      <point x="31" y="550"/>
      <point x="134" y="802"/>
      <point x="302" y="983"/>
      <point x="525" y="1092"/>
      <point x="641" y="1092" type="qcurve" smooth="yes"/>
      <point x="755" y="1092"/>
      <point x="912" y="982"/>
      <point x="948" y="887" type="qcurve"/>
      <point x="987" y="1073" type="line"/>
      <point x="1227" y="1073" type="line"/>
      <point x="907" y="-436" type="line"/>
      <point x="633" y="-436" type="line"/>
    </contour>
    <contour>
      <point x="807" y="389" type="qcurve"/>
      <point x="862" y="643" type="line"/>
      <point x="856" y="733"/>
      <point x="737" y="858"/>
      <point x="657" y="858" type="qcurve" smooth="yes"/>
      <point x="571" y="858"/>
      <point x="413" y="744"/>
      <point x="317" y="560"/>
      <point x="317" y="461" type="qcurve" smooth="yes"/>
      <point x="317" y="353"/>
      <point x="430" y="213"/>
      <point x="526" y="213" type="qcurve" smooth="yes"/>
      <point x="675" y="213"/>
    </contour>
  </outline>
</glyph>
<glyph name="v" format="2">
  <advance width="1077"/>
  <unicode hex="0076"/>
  <outline>
    <contour>
      <point x="102" y="1073" type="line"/>
      <point x="387" y="1073" type="line"/>
      <point x="453" y="223" type="line"/>
      <point x="605" y="456"/>
      <point x="796" y="851"/>
      <point x="860" y="1073" type="qcurve"/>
      <point x="1112" y="1073" type="line"/>
      <point x="973" y="569"/>
      <point x="532" y="0" type="qcurve"/>
      <point x="246" y="0" type="line"/>
    </contour>
  </outline>
</glyph>
<glyph name="z" format="2">
  <advance width="964"/>
  <unicode hex="007A"/>
  <anchor x="0" y="0" name="Anchor-11"/>
  <anchor x="0" y="0" name="Anchor-10"/>
  <anchor x="596" y="1073" name="Anchor-9"/>
  <anchor x="0" y="0" name="Anchor-8"/>
  <anchor x="369" y="0" name="Anchor-7"/>
  <outline>
    <contour>
      <point x="-43" y="168" type="line"/>
      <point x="657" y="881" type="line"/>
      <point x="133" y="881" type="line"/>
      <point x="174" y="1073" type="line"/>
      <point x="993" y="1073" type="line"/>
      <point x="956" y="905" type="line"/>
      <point x="258" y="193" type="line"/>
      <point x="815" y="193" type="line"/>
      <point x="774" y="0" type="line"/>
      <point x="-78" y="0" type="line"/>
    </contour>
  </outline>
</glyph>
<glyph name="braceleft" format="2">
  <advance width="630"/>
  <unicode hex="007B"/>
  <outline>
    <contour>
      <point x="575" y="1296" type="line"/>
      <point x="487" y="879" type="line" smooth="yes"/>
      <point x="471" y="803"/>
      <point x="387" y="737" type="qcurve"/>
      <point x="430" y="687"/>
      <point x="430" y="629" type="qcurve" smooth="yes"/>
      <point x="430" y="616"/>
      <point x="426" y="596" type="qcurve" smooth="yes"/>
      <point x="334" y="156" type="line"/>
      <point x="440" y="156" type="line"/>
      <point x="393" y="-63" type="line"/>
      <point x="84" y="-63" type="line" smooth="yes"/>
      <point x="51" y="-63"/>
      <point x="51" y="-25" type="qcurve" smooth="yes"/>
      <point x="51" y="-10"/>
      <point x="53" y="-2" type="qcurve" smooth="yes"/>
      <point x="160" y="506" type="line" smooth="yes"/>
      <point x="164" y="526"/>
      <point x="164" y="539" type="qcurve" smooth="yes"/>
      <point x="164" y="579"/>
      <point x="122" y="637"/>
      <point x="90" y="643" type="qcurve"/>
      <point x="131" y="836" type="line"/>
      <point x="170" y="836"/>
      <point x="250" y="924"/>
      <point x="260" y="969" type="qcurve" smooth="yes"/>
      <point x="362" y="1454" type="line" smooth="yes"/>
      <point x="369" y="1488"/>
      <point x="404" y="1516"/>
      <point x="420" y="1516" type="qcurve" smooth="yes"/>
      <point x="729" y="1516" type="line"/>
      <point x="682" y="1296" type="line"/>
    </contour>
  </outline>
</glyph>
<glyph name="braceright" format="2">
  <advance width="632"/>
  <unicode hex="007D"/>
  <outline>
    <contour>
      <point x="242" y="1296" type="line"/>
      <point x="289" y="1516" type="line"/>
      <point x="596" y="1516" type="line" smooth="yes"/>
      <point x="608" y="1516"/>
      <point x="631" y="1496"/>
      <point x="631" y="1473" type="qcurve" smooth="yes"/>
      <point x="631" y="1460"/>
      <point x="629" y="1454" type="qcurve" smooth="yes"/>
      <point x="524" y="969" type="line" smooth="yes"/>
      <point x="522" y="961"/>
      <point x="522" y="942" type="qcurve" smooth="yes"/>
      <point x="522" y="900"/>
      <point x="564" y="836"/>
      <point x="598" y="836" type="qcurve"/>
      <point x="555" y="643" type="line"/>
      <point x="513" y="635"/>
      <point x="438" y="558"/>
      <point x="426" y="506" type="qcurve" smooth="yes"/>
      <point x="319" y="-2" type="line" smooth="yes"/>
      <point x="312" y="-35"/>
      <point x="276" y="-63"/>
      <point x="260" y="-63" type="qcurve" smooth="yes"/>
      <point x="-47" y="-63" type="line"/>
      <point x="-2" y="156" type="line"/>
      <point x="106" y="156" type="line"/>
      <point x="199" y="596" type="line" smooth="yes"/>
      <point x="216" y="670"/>
      <point x="297" y="737" type="qcurve"/>
      <point x="256" y="789"/>
      <point x="256" y="844" type="qcurve" smooth="yes"/>
      <point x="256" y="859"/>
      <point x="260" y="879" type="qcurve" smooth="yes"/>
      <point x="350" y="1296" type="line"/>
    </contour>
  </outline>
</glyph>
<glyph name="asciitilde" format="2">
  <advance width="1118"/>
  <unicode hex="007E"/>
  <outline>
    <contour>
      <point x="391" y="737" type="qcurve" smooth="yes"/>
      <point x="452" y="737"/>
      <point x="572" y="682"/>
      <point x="682" y="627"/>
      <point x="731" y="627" type="qcurve" smooth="yes"/>
      <point x="762" y="627"/>
      <point x="816" y="647"/>
      <point x="848" y="676"/>
      <point x="872" y="707"/>
      <point x="881" y="729"/>
      <point x="881" y="733" type="qcurve"/>
      <point x="1030" y="733" type="line"/>
      <point x="1029" y="722"/>
      <point x="1007" y="666"/>
      <point x="956" y="587"/>
      <point x="887" y="517"/>
      <point x="777" y="467"/>
      <point x="715" y="467" type="qcurve" smooth="yes"/>
      <point x="655" y="467"/>
      <point x="534" y="520"/>
      <point x="424" y="573"/>
      <point x="377" y="573" type="qcurve" smooth="yes"/>
      <point x="346" y="573"/>
      <point x="294" y="552"/>
      <point x="264" y="522"/>
      <point x="244" y="490"/>
      <point x="236" y="470"/>
      <point x="236" y="467" type="qcurve"/>
      <point x="84" y="467" type="line"/>
      <point x="86" y="484"/>
      <point x="109" y="543"/>
      <point x="160" y="622"/>
      <point x="227" y="690"/>
      <point x="331" y="737"/>
    </contour>
  </outline>
</glyph>
<glyph name="exclamdown" format="2">
  <advance width="593"/>
  <unicode hex="00A1"/>
  <outline>
    <contour>
      <point x="612" y="1458" type="line"/>
      <point x="547" y="1149" type="line"/>
      <point x="272" y="1149" type="line"/>
      <point x="338" y="1458" type="line"/>
    </contour>
    <contour>
      <point x="498" y="911" type="line"/>
      <point x="301" y="-10" type="line"/>
      <point x="27" y="-10" type="line"/>
      <point x="223" y="911" type="line"/>
    </contour>
  </outline>
</glyph>
<glyph name="cent" format="2">
  <advance width="1169"/>
  <unicode hex="00A2"/>
  <outline>
    <contour>
      <point x="362" y="-246" type="line"/>
      <point x="412" y="-18" type="line"/>
      <point x="303" y="-9"/>
      <point x="138" y="124"/>
      <point x="55" y="322"/>
      <point x="55" y="434" type="qcurve" smooth="yes"/>
      <point x="55" y="585"/>
      <point x="196" y="863"/>
      <point x="471" y="1064"/>
      <point x="647" y="1090" type="qcurve"/>
      <point x="696" y="1321" type="line"/>
      <point x="819" y="1321" type="line"/>
      <point x="770" y="1090" type="line"/>
      <point x="906" y="1085"/>
      <point x="1099" y="944"/>
      <point x="1135" y="817" type="qcurve"/>
      <point x="850" y="735" type="line"/>
      <point x="837" y="786"/>
      <point x="765" y="845"/>
      <point x="719" y="850" type="qcurve"/>
      <point x="586" y="219" type="line"/>
      <point x="639" y="229"/>
      <point x="745" y="295"/>
      <point x="770" y="340" type="qcurve"/>
      <point x="1020" y="258" type="line"/>
      <point x="978" y="192"/>
      <point x="850" y="82"/>
      <point x="715" y="16"/>
      <point x="586" y="-20"/>
      <point x="535" y="-20" type="qcurve"/>
      <point x="485" y="-246" type="line"/>
    </contour>
    <contour>
      <point x="465" y="231" type="qcurve"/>
      <point x="594" y="838" type="line"/>
      <point x="525" y="822"/>
      <point x="405" y="701"/>
      <point x="338" y="538"/>
      <point x="338" y="457" type="qcurve" smooth="yes"/>
      <point x="338" y="378"/>
      <point x="406" y="252"/>
    </contour>
  </outline>
</glyph>
<glyph name="sterling" format="2">
  <advance width="1075"/>
  <unicode hex="00A3"/>
  <outline>
    <contour>
      <point x="688" y="1241" type="qcurve" smooth="yes"/>
      <point x="605" y="1241"/>
      <point x="487" y="1120"/>
      <point x="487" y="1030" type="qcurve" smooth="yes"/>
      <point x="487" y="986"/>
      <point x="531" y="803"/>
      <point x="535" y="780" type="qcurve"/>
      <point x="895" y="780" type="line"/>
      <point x="850" y="573" type="line"/>
      <point x="541" y="573" type="line"/>
      <point x="526" y="487"/>
      <point x="415" y="321"/>
      <point x="297" y="213" type="qcurve"/>
      <point x="379" y="238"/>
      <point x="449" y="238" type="qcurve" smooth="yes"/>
      <point x="497" y="238"/>
      <point x="662" y="203"/>
      <point x="705" y="203" type="qcurve" smooth="yes"/>
      <point x="768" y="203"/>
      <point x="856" y="236" type="qcurve"/>
      <point x="879" y="31" type="line"/>
      <point x="762" y="-31"/>
      <point x="641" y="-31" type="qcurve" smooth="yes"/>
      <point x="582" y="-31"/>
      <point x="354" y="29"/>
      <point x="289" y="29" type="qcurve" smooth="yes"/>
      <point x="176" y="29"/>
      <point x="29" y="-16" type="qcurve"/>
      <point x="10" y="178" type="line"/>
      <point x="268" y="374"/>
      <point x="301" y="573" type="qcurve"/>
      <point x="106" y="573" type="line"/>
      <point x="150" y="780" type="line"/>
      <point x="287" y="780" type="line"/>
      <point x="283" y="801"/>
      <point x="258" y="916"/>
      <point x="246" y="995"/>
      <point x="246" y="1032" type="qcurve" smooth="yes"/>
      <point x="246" y="1149"/>
      <point x="386" y="1350"/>
      <point x="612" y="1464"/>
      <point x="737" y="1464" type="qcurve" smooth="yes"/>
      <point x="856" y="1464"/>
      <point x="1049" y="1349"/>
      <point x="1100" y="1249" type="qcurve"/>
      <point x="922" y="1081" type="line"/>
      <point x="890" y="1151"/>
      <point x="757" y="1241"/>
    </contour>
  </outline>
</glyph>
<glyph name="currency" format="2">
  <advance width="1179"/>
  <unicode hex="00A4"/>
  <outline>
    <contour>
      <point x="389" y="1014" type="line"/>
      <point x="481" y="1075"/>
      <point x="606" y="1075" type="qcurve" smooth="yes"/>
      <point x="727" y="1075"/>
      <point x="821" y="1016" type="qcurve"/>
      <point x="963" y="1161" type="line"/>
      <point x="1075" y="1049" type="line"/>
      <point x="936" y="911" type="line"/>
      <point x="1001" y="811"/>
      <point x="1001" y="569"/>
      <point x="934" y="471" type="qcurve"/>
      <point x="1075" y="332" type="line"/>
      <point x="973" y="229" type="line"/>
      <point x="825" y="369" type="line"/>
      <point x="729" y="309"/>
      <point x="606" y="309" type="qcurve" smooth="yes"/>
      <point x="480" y="309"/>
      <point x="383" y="371" type="qcurve"/>
      <point x="233" y="229" type="line"/>
      <point x="133" y="332" type="line"/>
      <point x="274" y="473" type="line"/>
      <point x="211" y="570"/>
      <point x="211" y="690" type="qcurve" smooth="yes"/>
      <point x="211" y="816"/>
      <point x="272" y="907" type="qcurve"/>
      <point x="133" y="1049" type="line"/>
      <point x="244" y="1161" type="line"/>
    </contour>
    <contour>
      <point x="688" y="481"/>
      <point x="797" y="600"/>
      <point x="797" y="784"/>
      <point x="688" y="901"/>
      <point x="524" y="901"/>
      <point x="416" y="782"/>
      <point x="416" y="598"/>
      <point x="524" y="481"/>
    </contour>
  </outline>
</glyph>
<glyph name="yen" format="2">
  <advance width="1404"/>
  <unicode hex="00A5"/>
  <outline>
    <contour>
      <point x="1038" y="823" type="line"/>
      <point x="1180" y="823" type="line"/>
      <point x="1143" y="645" type="line"/>
      <point x="907" y="645" type="line"/>
      <point x="807" y="508" type="line"/>
      <point x="795" y="446" type="line"/>
      <point x="1100" y="446" type="line"/>
      <point x="1065" y="268" type="line"/>
      <point x="756" y="268" type="line"/>
      <point x="700" y="0" type="line"/>
      <point x="420" y="0" type="line"/>
      <point x="475" y="268" type="line"/>
      <point x="172" y="268" type="line"/>
      <point x="211" y="446" type="line"/>
      <point x="514" y="446" type="line"/>
      <point x="528" y="512" type="line"/>
      <point x="487" y="645" type="line"/>
      <point x="254" y="645" type="line"/>
      <point x="291" y="823" type="line"/>
      <point x="434" y="823" type="line"/>
      <point x="233" y="1454" type="line"/>
      <point x="539" y="1454" type="line"/>
      <point x="719" y="754" type="line"/>
      <point x="1202" y="1454" type="line"/>
      <point x="1509" y="1454" type="line"/>
    </contour>
  </outline>
</glyph>
<glyph name="brokenbar" format="2">
  <advance width="655"/>
  <unicode hex="00A6"/>
  <outline>
    <contour>
      <point x="455" y="1587" type="line"/>
      <point x="455" y="780" type="line"/>
      <point x="221" y="780" type="line"/>
      <point x="221" y="1587" type="line"/>
    </contour>
    <contour>
      <point x="455" y="541" type="line"/>
      <point x="455" y="-266" type="line"/>
      <point x="221" y="-266" type="line"/>
      <point x="221" y="541" type="line"/>
    </contour>
  </outline>
</glyph>
<glyph name="section" format="2">
  <advance width="1054"/>
  <unicode hex="00A7"/>
  <outline>
    <contour>
      <point x="895" y="311" type="qcurve" smooth="yes"/>
      <point x="895" y="210"/>
      <point x="823" y="41"/>
      <point x="709" y="-69"/>
      <point x="565" y="-147"/>
      <point x="425" y="-180"/>
      <point x="360" y="-180" type="qcurve" smooth="yes"/>
      <point x="287" y="-180"/>
      <point x="156" y="-137"/>
      <point x="64" y="-67"/>
      <point x="2" y="-1"/>
      <point x="-18" y="33" type="qcurve"/>
      <point x="193" y="201" type="line"/>
      <point x="276" y="80"/>
      <point x="403" y="80" type="qcurve" smooth="yes"/>
      <point x="479" y="80"/>
      <point x="600" y="172"/>
      <point x="600" y="246" type="qcurve" smooth="yes"/>
      <point x="600" y="272"/>
      <point x="579" y="308"/>
      <point x="539" y="325"/>
      <point x="502" y="332"/>
      <point x="475" y="334" type="qcurve" smooth="yes"/>
      <point x="313" y="346"/>
      <point x="139" y="503"/>
      <point x="139" y="631" type="qcurve" smooth="yes"/>
      <point x="139" y="684"/>
      <point x="171" y="783"/>
      <point x="194" y="821"/>
      <point x="215" y="850" type="qcurve"/>
      <point x="178" y="904"/>
      <point x="178" y="1010" type="qcurve" smooth="yes"/>
      <point x="178" y="1128"/>
      <point x="322" y="1339"/>
      <point x="555" y="1464"/>
      <point x="682" y="1464" type="qcurve" smooth="yes"/>
      <point x="939" y="1464"/>
      <point x="1047" y="1212" type="qcurve"/>
      <point x="815" y="1112" type="line"/>
      <point x="800" y="1164"/>
      <point x="712" y="1221"/>
      <point x="647" y="1221" type="qcurve" smooth="yes"/>
      <point x="570" y="1221"/>
      <point x="459" y="1126"/>
      <point x="459" y="1051" type="qcurve" smooth="yes"/>
      <point x="459" y="998"/>
      <point x="528" y="954"/>
      <point x="590" y="952" type="qcurve" smooth="yes"/>
      <point x="658" y="950"/>
      <point x="779" y="918"/>
      <point x="885" y="856"/>
      <point x="948" y="745"/>
      <point x="948" y="672" type="qcurve" smooth="yes"/>
      <point x="948" y="602"/>
      <point x="892" y="474"/>
      <point x="862" y="440" type="qcurve"/>
      <point x="895" y="399"/>
    </contour>
    <contour>
      <point x="623" y="508" type="qcurve"/>
      <point x="648" y="527"/>
      <point x="680" y="593"/>
      <point x="680" y="627" type="qcurve" smooth="yes"/>
      <point x="680" y="680"/>
      <point x="603" y="731"/>
      <point x="553" y="731" type="qcurve" smooth="yes"/>
      <point x="493" y="731"/>
      <point x="455" y="750" type="qcurve"/>
      <point x="433" y="731"/>
      <point x="401" y="668"/>
      <point x="401" y="633" type="qcurve" smooth="yes"/>
      <point x="401" y="589"/>
      <point x="455" y="540"/>
      <point x="520" y="529"/>
      <point x="605" y="517"/>
    </contour>
  </outline>
</glyph>
<glyph name="dieresis" format="2">
  <advance width="817"/>
  <unicode hex="00A8"/>
  <anchor x="608" y="1481" name="Anchor-13"/>
  <outline>
    <contour>
      <point x="250" y="1237" type="line"/>
      <point x="303" y="1481" type="line"/>
      <point x="530" y="1481" type="line"/>
      <point x="477" y="1237" type="line"/>
    </contour>
    <contour>
      <point x="635" y="1237" type="line"/>
      <point x="688" y="1481" type="line"/>
      <point x="913" y="1481" type="line"/>
      <point x="862" y="1237" type="line"/>
    </contour>
  </outline>
</glyph>
<glyph name="copyright" format="2">
  <advance width="1751"/>
  <unicode hex="00A9"/>
  <outline>
    <contour>
      <point x="125" y="727" type="qcurve" smooth="yes"/>
      <point x="125" y="883"/>
      <point x="242" y="1157"/>
      <point x="445" y="1352"/>
      <point x="730" y="1464"/>
      <point x="893" y="1464" type="qcurve" smooth="yes"/>
      <point x="1059" y="1464"/>
      <point x="1349" y="1352"/>
      <point x="1555" y="1157"/>
      <point x="1673" y="883"/>
      <point x="1673" y="727" type="qcurve" smooth="yes"/>
      <point x="1673" y="570"/>
      <point x="1555" y="295"/>
      <point x="1349" y="99"/>
      <point x="1059" y="-14"/>
      <point x="893" y="-14" type="qcurve" smooth="yes"/>
      <point x="730" y="-14"/>
      <point x="445" y="99"/>
      <point x="242" y="295"/>
      <point x="125" y="570"/>
    </contour>
    <contour>
      <point x="1563" y="725" type="qcurve" smooth="yes"/>
      <point x="1563" y="857"/>
      <point x="1461" y="1093"/>
      <point x="1285" y="1263"/>
      <point x="1035" y="1362"/>
      <point x="893" y="1362" type="qcurve" smooth="yes"/>
      <point x="709" y="1362"/>
      <point x="407" y="1194"/>
      <point x="236" y="902"/>
      <point x="236" y="548"/>
      <point x="406" y="256"/>
      <point x="708" y="88"/>
      <point x="893" y="88" type="qcurve" smooth="yes"/>
      <point x="1080" y="88"/>
      <point x="1386" y="248"/>
      <point x="1563" y="540"/>
    </contour>
    <contour>
      <point x="393" y="727" type="qcurve" smooth="yes"/>
      <point x="393" y="822"/>
      <point x="459" y="994"/>
      <point x="584" y="1132"/>
      <point x="783" y="1214"/>
      <point x="905" y="1214" type="qcurve" smooth="yes"/>
      <point x="1065" y="1214"/>
      <point x="1304" y="1074"/>
      <point x="1360" y="952" type="qcurve"/>
      <point x="1094" y="870" type="line"/>
      <point x="1064" y="928"/>
      <point x="961" y="981"/>
      <point x="905" y="981" type="qcurve" smooth="yes"/>
      <point x="800" y="981"/>
      <point x="676" y="834"/>
      <point x="676" y="727" type="qcurve" smooth="yes"/>
      <point x="676" y="610"/>
      <point x="816" y="471"/>
      <point x="907" y="471" type="qcurve" smooth="yes"/>
      <point x="965" y="471"/>
      <point x="1073" y="533"/>
      <point x="1100" y="586" type="qcurve"/>
      <point x="1366" y="506" type="line"/>
      <point x="1315" y="393"/>
      <point x="1073" y="238"/>
      <point x="911" y="238" type="qcurve" smooth="yes"/>
      <point x="683" y="238"/>
      <point x="393" y="518"/>
    </contour>
  </outline>
</glyph>
<glyph name="ordfeminine" format="2">
  <advance width="870"/>
  <unicode hex="00AA"/>
  <anchor x="0" y="0" name="Anchor-11"/>
  <anchor x="0" y="0" name="Anchor-10"/>
  <anchor x="391" y="1063" name="Anchor-9"/>
  <anchor x="0" y="0" name="Anchor-8"/>
  <anchor x="786" y="23" name="Anchor-7"/>
  <outline>
    <contour>
      <point x="139" y="885" type="qcurve" smooth="yes"/>
      <point x="139" y="1007"/>
      <point x="339" y="1171"/>
      <point x="485" y="1171" type="qcurve" smooth="yes"/>
      <point x="577" y="1171"/>
      <point x="639" y="1139" type="qcurve"/>
      <point x="647" y="1178" type="line" smooth="yes"/>
      <point x="651" y="1210"/>
      <point x="651" y="1221" type="qcurve" smooth="yes"/>
      <point x="651" y="1321"/>
      <point x="537" y="1321" type="qcurve" smooth="yes"/>
      <point x="439" y="1321"/>
      <point x="303" y="1239" type="qcurve"/>
      <point x="270" y="1364" type="line"/>
      <point x="421" y="1460"/>
      <point x="582" y="1460" type="qcurve" smooth="yes"/>
      <point x="712" y="1460"/>
      <point x="850" y="1348"/>
      <point x="850" y="1241" type="qcurve" smooth="yes"/>
      <point x="850" y="1205"/>
      <point x="840" y="1153" type="qcurve" smooth="yes"/>
      <point x="793" y="940" type="line" smooth="yes"/>
      <point x="791" y="932"/>
      <point x="791" y="918" type="qcurve" smooth="yes"/>
      <point x="791" y="898"/>
      <point x="809" y="883"/>
      <point x="831" y="881" type="qcurve"/>
      <point x="795" y="707" type="line"/>
      <point x="745" y="698"/>
      <point x="709" y="698" type="qcurve" smooth="yes"/>
      <point x="598" y="698"/>
      <point x="598" y="780" type="qcurve" smooth="yes"/>
      <point x="598" y="785"/>
      <point x="599" y="797"/>
      <point x="601" y="817"/>
      <point x="602" y="827" type="qcurve"/>
      <point x="478" y="694"/>
      <point x="328" y="694" type="qcurve" smooth="yes"/>
      <point x="244" y="694"/>
      <point x="139" y="801"/>
    </contour>
    <contour>
      <point x="598" y="950" type="qcurve" smooth="yes"/>
      <point x="614" y="1030" type="line"/>
      <point x="562" y="1055"/>
      <point x="498" y="1055" type="qcurve" smooth="yes"/>
      <point x="428" y="1055"/>
      <point x="332" y="983"/>
      <point x="332" y="928" type="qcurve" smooth="yes"/>
      <point x="332" y="891"/>
      <point x="380" y="842"/>
      <point x="418" y="842" type="qcurve" smooth="yes"/>
      <point x="472" y="842"/>
      <point x="589" y="910"/>
    </contour>
  </outline>
</glyph>
<glyph name="guillemotleft" format="2">
  <advance width="1288"/>
  <unicode hex="00AB"/>
  <outline>
    <contour>
      <point x="68" y="590" type="line"/>
      <point x="666" y="977" type="line"/>
      <point x="618" y="754" type="line"/>
      <point x="272" y="530" type="line"/>
      <point x="526" y="319" type="line"/>
      <point x="479" y="94" type="line"/>
      <point x="39" y="457" type="line"/>
    </contour>
    <contour>
      <point x="647" y="590" type="line"/>
      <point x="1247" y="977" type="line"/>
      <point x="1200" y="754" type="line"/>
      <point x="854" y="530" type="line"/>
      <point x="1108" y="319" type="line"/>
      <point x="1061" y="94" type="line"/>
      <point x="621" y="457" type="line"/>
    </contour>
  </outline>
</glyph>
<glyph name="logicalnot" format="2">
  <advance width="1210"/>
  <unicode hex="00AC"/>
  <outline>
    <contour>
      <point x="1120" y="819" type="line"/>
      <point x="991" y="217" type="line"/>
      <point x="760" y="217" type="line"/>
      <point x="836" y="573" type="line"/>
      <point x="109" y="573" type="line"/>
      <point x="160" y="819" type="line"/>
    </contour>
  </outline>
</glyph>
<glyph name="sfthyphen" format="2">
  <advance width="1191"/>
  <unicode hex="00AD"/>
  <outline>
    <contour>
      <point x="78" y="438" type="line"/>
      <point x="131" y="686" type="line"/>
      <point x="1090" y="686" type="line"/>
      <point x="1038" y="438" type="line"/>
    </contour>
  </outline>
</glyph>
<glyph name="registered" format="2">
  <advance width="1751"/>
  <unicode hex="00AE"/>
  <outline>
    <contour>
      <point x="125" y="727" type="qcurve" smooth="yes"/>
      <point x="125" y="883"/>
      <point x="242" y="1157"/>
      <point x="445" y="1352"/>
      <point x="731" y="1464"/>
      <point x="895" y="1464" type="qcurve" smooth="yes"/>
      <point x="1114" y="1464"/>
      <point x="1470" y="1273"/>
      <point x="1673" y="935"/>
      <point x="1673" y="727" type="qcurve" smooth="yes"/>
      <point x="1673" y="570"/>
      <point x="1554" y="295"/>
      <point x="1348" y="99"/>
      <point x="1059" y="-14"/>
      <point x="895" y="-14" type="qcurve" smooth="yes"/>
      <point x="676" y="-14"/>
      <point x="323" y="179"/>
      <point x="125" y="518"/>
    </contour>
    <contour>
      <point x="1556" y="723" type="qcurve" smooth="yes"/>
      <point x="1556" y="901"/>
      <point x="1387" y="1193"/>
      <point x="1084" y="1362"/>
      <point x="897" y="1362" type="qcurve" smooth="yes"/>
      <point x="756" y="1362"/>
      <point x="511" y="1263"/>
      <point x="340" y="1093"/>
      <point x="242" y="859"/>
      <point x="242" y="727" type="qcurve" smooth="yes"/>
      <point x="242" y="593"/>
      <point x="340" y="357"/>
      <point x="511" y="186"/>
      <point x="756" y="86"/>
      <point x="897" y="86" type="qcurve" smooth="yes"/>
      <point x="1035" y="86"/>
      <point x="1279" y="181"/>
      <point x="1454" y="347"/>
      <point x="1556" y="586"/>
    </contour>
    <contour>
      <point x="563" y="1180" type="line"/>
      <point x="965" y="1180" type="line" smooth="yes"/>
      <point x="1085" y="1180"/>
      <point x="1251" y="993"/>
      <point x="1251" y="879" type="qcurve" smooth="yes"/>
      <point x="1251" y="794"/>
      <point x="1158" y="647"/>
      <point x="1085" y="618" type="qcurve"/>
      <point x="1296" y="279" type="line"/>
      <point x="1079" y="279" type="line"/>
      <point x="889" y="582" type="line"/>
      <point x="760" y="582" type="line"/>
      <point x="760" y="279" type="line"/>
      <point x="563" y="279" type="line"/>
    </contour>
    <contour>
      <point x="948" y="750" type="line" smooth="yes"/>
      <point x="999" y="750"/>
      <point x="1059" y="818"/>
      <point x="1059" y="879" type="qcurve" smooth="yes"/>
      <point x="1059" y="941"/>
      <point x="992" y="1008"/>
      <point x="942" y="1008" type="qcurve" smooth="yes"/>
      <point x="760" y="1008" type="line"/>
      <point x="760" y="750" type="line"/>
    </contour>
  </outline>
</glyph>
<glyph name="macron" format="2">
  <advance width="792"/>
  <unicode hex="00AF"/>
  <anchor x="594" y="1464" name="Anchor-13"/>
  <outline>
    <contour>
      <point x="262" y="1294" type="line"/>
      <point x="299" y="1464" type="line"/>
      <point x="887" y="1464" type="line"/>
      <point x="850" y="1294" type="line"/>
    </contour>
  </outline>
</glyph>
<glyph name="degree" format="2">
  <advance width="569"/>
  <unicode hex="00B0"/>
  <outline>
    <contour>
      <point x="211" y="1225" type="qcurve" smooth="yes"/>
      <point x="211" y="1326"/>
      <point x="360" y="1483"/>
      <point x="465" y="1483" type="qcurve" smooth="yes"/>
      <point x="539" y="1483"/>
      <point x="629" y="1389"/>
      <point x="629" y="1317" type="qcurve" smooth="yes"/>
      <point x="629" y="1210"/>
      <point x="480" y="1063"/>
      <point x="375" y="1063" type="qcurve" smooth="yes"/>
      <point x="300" y="1063"/>
      <point x="211" y="1152"/>
    </contour>
    <contour>
      <point x="492" y="1288" type="qcurve" smooth="yes"/>
      <point x="492" y="1316"/>
      <point x="460" y="1350"/>
      <point x="436" y="1350" type="qcurve" smooth="yes"/>
      <point x="402" y="1350"/>
      <point x="346" y="1295"/>
      <point x="346" y="1260" type="qcurve" smooth="yes"/>
      <point x="346" y="1231"/>
      <point x="376" y="1196"/>
      <point x="403" y="1196" type="qcurve" smooth="yes"/>
      <point x="435" y="1196"/>
      <point x="492" y="1252"/>
    </contour>
  </outline>
</glyph>
<glyph name="plusminus" format="2">
  <advance width="1046"/>
  <unicode hex="00B1"/>
  <outline>
    <contour>
      <point x="862" y="881" type="line"/>
      <point x="862" y="662" type="line"/>
      <point x="623" y="662" type="line"/>
      <point x="623" y="401" type="line"/>
      <point x="377" y="401" type="line"/>
      <point x="377" y="662" type="line"/>
      <point x="137" y="662" type="line"/>
      <point x="137" y="881" type="line"/>
      <point x="377" y="881" type="line"/>
      <point x="377" y="1141" type="line"/>
      <point x="623" y="1141" type="line"/>
      <point x="623" y="881" type="line"/>
    </contour>
    <contour>
      <point x="137" y="57" type="line"/>
      <point x="137" y="279" type="line"/>
      <point x="860" y="279" type="line"/>
      <point x="860" y="57" type="line"/>
    </contour>
  </outline>
</glyph>
<glyph name="twosuperior" format="2">
  <advance width="825"/>
  <unicode hex="00B2"/>
  <outline>
    <contour>
      <point x="98" y="797" type="line"/>
      <point x="133" y="959"/>
      <point x="277" y="1129"/>
      <point x="432" y="1194" type="qcurve" smooth="yes"/>
      <point x="452" y="1202"/>
      <point x="549" y="1240"/>
      <point x="596" y="1260"/>
      <point x="669" y="1299"/>
      <point x="705" y="1334"/>
      <point x="733" y="1387"/>
      <point x="733" y="1417" type="qcurve" smooth="yes"/>
      <point x="733" y="1464"/>
      <point x="669" y="1520"/>
      <point x="606" y="1520" type="qcurve" smooth="yes"/>
      <point x="529" y="1520"/>
      <point x="390" y="1453"/>
      <point x="340" y="1407" type="qcurve"/>
      <point x="264" y="1530" type="line"/>
      <point x="314" y="1582"/>
      <point x="526" y="1671"/>
      <point x="649" y="1671" type="qcurve" smooth="yes"/>
      <point x="780" y="1671"/>
      <point x="918" y="1555"/>
      <point x="918" y="1456" type="qcurve" smooth="yes"/>
      <point x="918" y="1386"/>
      <point x="869" y="1274"/>
      <point x="777" y="1194"/>
      <point x="671" y="1139"/>
      <point x="602" y="1116" type="qcurve" smooth="yes"/>
      <point x="419" y="1058"/>
      <point x="397" y="956" type="qcurve"/>
      <point x="815" y="956" type="line"/>
      <point x="778" y="797" type="line"/>
    </contour>
  </outline>
</glyph>
<glyph name="threesuperior" format="2">
  <advance width="802"/>
  <unicode hex="00B3"/>
  <outline>
    <contour>
      <point x="127" y="948" type="qcurve"/>
      <point x="236" y="1049" type="line"/>
      <point x="256" y="1002"/>
      <point x="356" y="936"/>
      <point x="438" y="936" type="qcurve" smooth="yes"/>
      <point x="523" y="936"/>
      <point x="643" y="1010"/>
      <point x="643" y="1071" type="qcurve" smooth="yes"/>
      <point x="643" y="1171"/>
      <point x="426" y="1171" type="qcurve" smooth="yes"/>
      <point x="379" y="1171" type="line"/>
      <point x="410" y="1317" type="line"/>
      <point x="455" y="1317" type="line" smooth="yes"/>
      <point x="696" y="1317"/>
      <point x="696" y="1434" type="qcurve" smooth="yes"/>
      <point x="696" y="1478"/>
      <point x="619" y="1524"/>
      <point x="569" y="1524" type="qcurve" smooth="yes"/>
      <point x="431" y="1524"/>
      <point x="332" y="1425" type="qcurve"/>
      <point x="260" y="1548" type="line"/>
      <point x="315" y="1605"/>
      <point x="512" y="1671"/>
      <point x="610" y="1671" type="qcurve" smooth="yes"/>
      <point x="735" y="1671"/>
      <point x="883" y="1557"/>
      <point x="883" y="1466" type="qcurve" smooth="yes"/>
      <point x="883" y="1384"/>
      <point x="773" y="1272"/>
      <point x="676" y="1251" type="qcurve"/>
      <point x="742" y="1239"/>
      <point x="815" y="1140"/>
      <point x="815" y="1071" type="qcurve" smooth="yes"/>
      <point x="815" y="977"/>
      <point x="696" y="843"/>
      <point x="519" y="784"/>
      <point x="414" y="784" type="qcurve" smooth="yes"/>
      <point x="296" y="784"/>
      <point x="139" y="870"/>
    </contour>
  </outline>
</glyph>
<glyph name="acute" format="2">
  <advance width="561"/>
  <unicode hex="00B4"/>
  <anchor x="469" y="1495" name="Anchor-13"/>
  <outline>
    <contour>
      <point x="432" y="1217" type="line"/>
      <point x="254" y="1251" type="line"/>
      <point x="410" y="1495" type="line"/>
      <point x="664" y="1495" type="line"/>
    </contour>
  </outline>
</glyph>
<glyph name="mu" format="2">
  <advance width="1298"/>
  <unicode hex="00B5"/>
  <outline>
    <contour>
      <point x="240" y="1073" type="line"/>
      <point x="514" y="1073" type="line"/>
      <point x="383" y="461" type="line" smooth="yes"/>
      <point x="371" y="402"/>
      <point x="371" y="356" type="qcurve" smooth="yes"/>
      <point x="371" y="213"/>
      <point x="498" y="213" type="qcurve" smooth="yes"/>
      <point x="570" y="213"/>
      <point x="724" y="313"/>
      <point x="788" y="408" type="qcurve"/>
      <point x="930" y="1073" type="line"/>
      <point x="1204" y="1073" type="line"/>
      <point x="1042" y="315" type="line" smooth="yes"/>
      <point x="1038" y="291"/>
      <point x="1038" y="281" type="qcurve" smooth="yes"/>
      <point x="1038" y="257"/>
      <point x="1067" y="235"/>
      <point x="1100" y="233" type="qcurve"/>
      <point x="1049" y="0" type="line"/>
      <point x="956" y="-14"/>
      <point x="924" y="-14" type="qcurve" smooth="yes"/>
      <point x="850" y="-14"/>
      <point x="772" y="45"/>
      <point x="772" y="102" type="qcurve" smooth="yes"/>
      <point x="772" y="137"/>
      <point x="786" y="201" type="qcurve"/>
      <point x="734" y="120"/>
      <point x="525" y="-20"/>
      <point x="432" y="-20" type="qcurve" smooth="yes"/>
      <point x="367" y="-20"/>
      <point x="294" y="46"/>
      <point x="291" y="100" type="qcurve"/>
      <point x="193" y="-434" type="line"/>
      <point x="-82" y="-434" type="line"/>
    </contour>
  </outline>
</glyph>
<glyph name="paragraph" format="2">
  <advance width="1300"/>
  <unicode hex="00B6"/>
  <outline>
    <contour>
      <point x="803" y="1454" type="qcurve" smooth="yes"/>
      <point x="1389" y="1454" type="line"/>
      <point x="1343" y="1249" type="line"/>
      <point x="1208" y="1249" type="line"/>
      <point x="907" y="-164" type="line"/>
      <point x="674" y="-164" type="line"/>
      <point x="801" y="426" type="line"/>
      <point x="707" y="426" type="line"/>
      <point x="582" y="-164" type="line"/>
      <point x="348" y="-164" type="line"/>
      <point x="473" y="426" type="line"/>
      <point x="312" y="427"/>
      <point x="127" y="636"/>
      <point x="127" y="811" type="qcurve" smooth="yes"/>
      <point x="127" y="1104"/>
      <point x="493" y="1454"/>
    </contour>
    <contour>
      <point x="516" y="631" type="qcurve"/>
      <point x="649" y="1249" type="line"/>
      <point x="525" y="1242"/>
      <point x="360" y="1002"/>
      <point x="360" y="840" type="qcurve" smooth="yes"/>
      <point x="360" y="747"/>
      <point x="446" y="637"/>
    </contour>
    <contour>
      <point x="977" y="1249" type="line"/>
      <point x="881" y="1249" type="line"/>
      <point x="750" y="631" type="line"/>
      <point x="844" y="631" type="line"/>
    </contour>
  </outline>
</glyph>
<glyph name="cedilla" format="2">
  <advance width="632"/>
  <unicode hex="00B8"/>
  <outline>
    <contour>
      <point x="115" y="-412" type="qcurve" smooth="yes"/>
      <point x="9" y="-412"/>
      <point x="-86" y="-350" type="qcurve"/>
      <point x="14" y="-205" type="line"/>
      <point x="60" y="-248"/>
      <point x="111" y="-248" type="qcurve" smooth="yes"/>
      <point x="160" y="-248"/>
      <point x="223" y="-186"/>
      <point x="223" y="-133" type="qcurve" smooth="yes"/>
      <point x="223" y="-63"/>
      <point x="166" y="0" type="qcurve"/>
      <point x="266" y="59" type="line"/>
      <point x="375" y="-46"/>
      <point x="375" y="-164" type="qcurve" smooth="yes"/>
      <point x="375" y="-270"/>
      <point x="235" y="-412"/>
    </contour>
  </outline>
</glyph>
<glyph name="onesuperior" format="2">
  <advance width="589"/>
  <unicode hex="00B9"/>
  <outline>
    <contour>
      <point x="621" y="961" type="line"/>
      <point x="586" y="799" type="line"/>
      <point x="135" y="799" type="line"/>
      <point x="170" y="961" type="line"/>
      <point x="322" y="961" type="line"/>
      <point x="434" y="1495" type="line"/>
      <point x="404" y="1463"/>
      <point x="271" y="1391"/>
      <point x="229" y="1391" type="qcurve"/>
      <point x="264" y="1552" type="line"/>
      <point x="300" y="1552"/>
      <point x="402" y="1610"/>
      <point x="469" y="1666"/>
      <point x="471" y="1671" type="qcurve"/>
      <point x="637" y="1671" type="line"/>
      <point x="483" y="961" type="line"/>
    </contour>
  </outline>
</glyph>
<glyph name="ordmasculine" format="2">
  <advance width="876"/>
  <unicode hex="00BA"/>
  <anchor x="0" y="0" name="Anchor-11"/>
  <anchor x="0" y="0" name="Anchor-10"/>
  <anchor x="461" y="1063" name="Anchor-9"/>
  <anchor x="0" y="0" name="Anchor-8"/>
  <anchor x="459" y="0" name="Anchor-7"/>
  <outline>
    <contour>
      <point x="160" y="999" type="qcurve" smooth="yes"/>
      <point x="160" y="1117"/>
      <point x="274" y="1328"/>
      <point x="485" y="1460"/>
      <point x="614" y="1460" type="qcurve" smooth="yes"/>
      <point x="754" y="1460"/>
      <point x="907" y="1288"/>
      <point x="907" y="1155" type="qcurve" smooth="yes"/>
      <point x="907" y="1038"/>
      <point x="794" y="828"/>
      <point x="582" y="694"/>
      <point x="453" y="694" type="qcurve" smooth="yes"/>
      <point x="313" y="694"/>
      <point x="160" y="868"/>
    </contour>
    <contour>
      <point x="702" y="1128" type="qcurve" smooth="yes"/>
      <point x="702" y="1198"/>
      <point x="634" y="1286"/>
      <point x="578" y="1286" type="qcurve" smooth="yes"/>
      <point x="495" y="1286"/>
      <point x="365" y="1132"/>
      <point x="365" y="1026" type="qcurve" smooth="yes"/>
      <point x="365" y="955"/>
      <point x="433" y="866"/>
      <point x="489" y="866" type="qcurve" smooth="yes"/>
      <point x="572" y="866"/>
      <point x="702" y="1022"/>
    </contour>
  </outline>
</glyph>
<glyph name="guillemotright" format="2">
  <advance width="1288"/>
  <unicode hex="00BB"/>
  <outline>
    <contour>
      <point x="598" y="457" type="line"/>
      <point x="6" y="94" type="line"/>
      <point x="53" y="319" type="line"/>
      <point x="397" y="530" type="line"/>
      <point x="145" y="754" type="line"/>
      <point x="193" y="977" type="line"/>
      <point x="627" y="590" type="line"/>
    </contour>
    <contour>
      <point x="1180" y="457" type="line"/>
      <point x="588" y="94" type="line"/>
      <point x="633" y="319" type="line"/>
      <point x="979" y="530" type="line"/>
      <point x="725" y="754" type="line"/>
      <point x="774" y="977" type="line"/>
      <point x="1208" y="590" type="line"/>
    </contour>
  </outline>
</glyph>
<glyph name="onequarter" format="2">
  <advance width="1773"/>
  <unicode hex="00BC"/>
  <outline>
    <contour>
      <point x="586" y="786" type="line"/>
      <point x="551" y="627" type="line"/>
      <point x="98" y="627" type="line"/>
      <point x="133" y="786" type="line"/>
      <point x="287" y="786" type="line"/>
      <point x="399" y="1321" type="line"/>
      <point x="367" y="1289"/>
      <point x="235" y="1217"/>
      <point x="193" y="1217" type="qcurve"/>
      <point x="227" y="1380" type="line"/>
      <point x="264" y="1380"/>
      <point x="367" y="1437"/>
      <point x="434" y="1492"/>
      <point x="436" y="1497" type="qcurve"/>
      <point x="600" y="1497" type="line"/>
      <point x="449" y="786" type="line"/>
    </contour>
    <contour>
      <point x="100" y="96" type="line"/>
      <point x="791" y="770" type="line"/>
      <point x="1444" y="1470" type="line"/>
      <point x="1544" y="1360" type="line"/>
      <point x="870" y="696" type="line"/>
      <point x="199" y="-14" type="line"/>
    </contour>
    <contour>
      <point x="1317" y="113" type="line"/>
      <point x="1096" y="199" type="line"/>
      <point x="948" y="258" type="line"/>
      <point x="1288" y="633" type="line"/>
      <point x="1587" y="864" type="line"/>
      <point x="1604" y="580" type="line"/>
      <point x="1610" y="340" type="line"/>
      <point x="1638" y="279" type="line"/>
      <point x="1559" y="199" type="line"/>
      <point x="1493" y="86" type="line"/>
      <point x="1411" y="0" type="line"/>
    </contour>
    <contour>
      <point x="1298" y="340" type="line"/>
      <point x="1417" y="543" type="line"/>
      <point x="1219" y="442" type="line"/>
    </contour>
  </outline>
</glyph>
<glyph name="onehalf" format="2">
  <advance width="1804"/>
  <unicode hex="00BD"/>
  <outline>
    <contour>
      <point x="586" y="786" type="line"/>
      <point x="551" y="627" type="line"/>
      <point x="98" y="627" type="line"/>
      <point x="133" y="786" type="line"/>
      <point x="287" y="786" type="line"/>
      <point x="399" y="1321" type="line"/>
      <point x="367" y="1289"/>
      <point x="235" y="1217"/>
      <point x="193" y="1217" type="qcurve"/>
      <point x="227" y="1380" type="line"/>
      <point x="264" y="1380"/>
      <point x="367" y="1437"/>
      <point x="434" y="1492"/>
      <point x="436" y="1497" type="qcurve"/>
      <point x="600" y="1497" type="line"/>
      <point x="449" y="786" type="line"/>
    </contour>
    <contour>
      <point x="100" y="96" type="line"/>
      <point x="791" y="770" type="line"/>
      <point x="1444" y="1470" type="line"/>
      <point x="1544" y="1360" type="line"/>
      <point x="870" y="696" type="line"/>
      <point x="199" y="-14" type="line"/>
    </contour>
    <contour>
      <point x="942" y="0" type="line"/>
      <point x="976" y="161"/>
      <point x="1116" y="332"/>
      <point x="1266" y="397" type="qcurve" smooth="yes"/>
      <point x="1284" y="404"/>
      <point x="1361" y="435"/>
      <point x="1402" y="453"/>
      <point x="1465" y="483"/>
      <point x="1500" y="511"/>
      <point x="1538" y="548"/>
      <point x="1554" y="592"/>
      <point x="1554" y="618" type="qcurve" smooth="yes"/>
      <point x="1554" y="667"/>
      <point x="1493" y="721"/>
      <point x="1432" y="721" type="qcurve" smooth="yes"/>
      <point x="1360" y="721"/>
      <point x="1224" y="654"/>
      <point x="1176" y="610" type="qcurve"/>
      <point x="1104" y="731" type="line"/>
      <point x="1149" y="782"/>
      <point x="1357" y="872"/>
      <point x="1473" y="872" type="qcurve" smooth="yes"/>
      <point x="1599" y="872"/>
      <point x="1733" y="756"/>
      <point x="1733" y="657" type="qcurve" smooth="yes"/>
      <point x="1733" y="588"/>
      <point x="1686" y="477"/>
      <point x="1597" y="397"/>
      <point x="1494" y="341"/>
      <point x="1427" y="319" type="qcurve" smooth="yes"/>
      <point x="1252" y="258"/>
      <point x="1231" y="158" type="qcurve"/>
      <point x="1632" y="158" type="line"/>
      <point x="1597" y="0" type="line"/>
    </contour>
  </outline>
</glyph>
<glyph name="threequarters" format="2">
  <advance width="1984"/>
  <unicode hex="00BE"/>
  <outline>
    <contour>
      <point x="94" y="772" type="qcurve"/>
      <point x="203" y="874" type="line"/>
      <point x="223" y="827"/>
      <point x="324" y="762"/>
      <point x="406" y="762" type="qcurve" smooth="yes"/>
      <point x="491" y="762"/>
      <point x="610" y="836"/>
      <point x="610" y="897" type="qcurve" smooth="yes"/>
      <point x="610" y="997"/>
      <point x="393" y="997" type="qcurve" smooth="yes"/>
      <point x="346" y="997" type="line"/>
      <point x="377" y="1143" type="line"/>
      <point x="422" y="1143" type="line" smooth="yes"/>
      <point x="546" y="1143"/>
      <point x="664" y="1200"/>
      <point x="664" y="1260" type="qcurve" smooth="yes"/>
      <point x="664" y="1304"/>
      <point x="586" y="1350"/>
      <point x="535" y="1350" type="qcurve" smooth="yes"/>
      <point x="394" y="1350"/>
      <point x="299" y="1251" type="qcurve"/>
      <point x="227" y="1374" type="line"/>
      <point x="282" y="1430"/>
      <point x="480" y="1495"/>
      <point x="578" y="1495" type="qcurve" smooth="yes"/>
      <point x="702" y="1495"/>
      <point x="850" y="1382"/>
      <point x="850" y="1292" type="qcurve" smooth="yes"/>
      <point x="850" y="1210"/>
      <point x="740" y="1098"/>
      <point x="643" y="1077" type="qcurve"/>
      <point x="709" y="1065"/>
      <point x="782" y="966"/>
      <point x="782" y="897" type="qcurve" smooth="yes"/>
      <point x="782" y="803"/>
      <point x="662" y="669"/>
      <point x="484" y="610"/>
      <point x="379" y="610" type="qcurve" smooth="yes"/>
      <point x="262" y="610"/>
      <point x="106" y="696"/>
    </contour>
    <contour>
      <point x="311" y="96" type="line"/>
      <point x="1001" y="770" type="line"/>
      <point x="1655" y="1470" type="line"/>
      <point x="1755" y="1360" type="line"/>
      <point x="1081" y="696" type="line"/>
      <point x="410" y="-14" type="line"/>
    </contour>
    <contour>
      <point x="1528" y="113" type="line"/>
      <point x="1307" y="199" type="line"/>
      <point x="1159" y="258" type="line"/>
      <point x="1499" y="633" type="line"/>
      <point x="1798" y="864" type="line"/>
      <point x="1815" y="580" type="line"/>
      <point x="1821" y="340" type="line"/>
      <point x="1849" y="279" type="line"/>
      <point x="1769" y="199" type="line"/>
      <point x="1704" y="86" type="line"/>
      <point x="1622" y="0" type="line"/>
    </contour>
    <contour>
      <point x="1509" y="340" type="line"/>
      <point x="1628" y="543" type="line"/>
      <point x="1430" y="442" type="line"/>
    </contour>
  </outline>
</glyph>
<glyph name="questiondown" format="2">
  <advance width="954"/>
  <unicode hex="00BF"/>
  <outline>
    <contour>
      <point x="807" y="1036" type="line"/>
      <point x="748" y="754" type="line"/>
      <point x="522" y="754" type="line"/>
      <point x="582" y="1036" type="line"/>
    </contour>
    <contour>
      <point x="711" y="559" type="line"/>
      <point x="689" y="450"/>
      <point x="589" y="296"/>
      <point x="485" y="240" type="qcurve" smooth="yes"/>
      <point x="342" y="164"/>
      <point x="304" y="139" type="qcurve" smooth="yes"/>
      <point x="188" y="60"/>
      <point x="173" y="-37" type="qcurve" smooth="yes"/>
      <point x="170" y="-54"/>
      <point x="170" y="-72" type="qcurve" smooth="yes"/>
      <point x="170" y="-138"/>
      <point x="251" y="-213"/>
      <point x="313" y="-213" type="qcurve" smooth="yes"/>
      <point x="445" y="-213"/>
      <point x="567" y="-49" type="qcurve"/>
      <point x="721" y="-172" type="line"/>
      <point x="644" y="-296"/>
      <point x="393" y="-436"/>
      <point x="256" y="-436" type="qcurve" smooth="yes"/>
      <point x="190" y="-436"/>
      <point x="74" y="-398"/>
      <point x="-21" y="-323"/>
      <point x="-76" y="-198"/>
      <point x="-76" y="-117" type="qcurve" smooth="yes"/>
      <point x="-76" y="-30"/>
      <point x="-35" y="106"/>
      <point x="50" y="206"/>
      <point x="139" y="273"/>
      <point x="207" y="311" type="qcurve" smooth="yes"/>
      <point x="228" y="323"/>
      <point x="304" y="363"/>
      <point x="349" y="387"/>
      <point x="409" y="429"/>
      <point x="446" y="468"/>
      <point x="478" y="525"/>
      <point x="485" y="559" type="qcurve"/>
    </contour>
  </outline>
</glyph>
<glyph name="Acircumflex" format="2">
  <advance width="1320"/>
  <unicode hex="00C2"/>
  <anchor x="0" y="0" name="Anchor-11"/>
  <anchor x="0" y="0" name="Anchor-10"/>
  <anchor x="926" y="1876" name="Anchor-9"/>
  <anchor x="1184" y="0" name="Anchor-8"/>
  <anchor x="547" y="0" name="Anchor-7"/>
  <outline>
    <contour>
      <point x="588" y="1669" type="line"/>
      <point x="842" y="1876" type="line"/>
      <point x="1038" y="1876" type="line"/>
      <point x="1204" y="1669" type="line"/>
      <point x="1047" y="1604" type="line"/>
      <point x="909" y="1733" type="line"/>
      <point x="717" y="1604" type="line"/>
    </contour>
    <contour>
      <point x="721" y="1454" type="line"/>
      <point x="973" y="1454" type="line"/>
      <point x="1184" y="0" type="line"/>
      <point x="893" y="0" type="line"/>
      <point x="848" y="362" type="line"/>
      <point x="379" y="362" type="line"/>
      <point x="182" y="0" type="line"/>
      <point x="-109" y="0" type="line"/>
    </contour>
    <contour>
      <point x="842" y="561" type="line"/>
      <point x="778" y="1133" type="line"/>
      <point x="467" y="561" type="line"/>
    </contour>
  </outline>
</glyph>
<glyph name="Atilde" format="2">
  <advance width="1320"/>
  <unicode hex="00C3"/>
  <anchor x="0" y="0" name="Anchor-11"/>
  <anchor x="0" y="0" name="Anchor-10"/>
  <anchor x="940" y="1876" name="Anchor-9"/>
  <anchor x="1184" y="0" name="Anchor-8"/>
  <anchor x="547" y="0" name="Anchor-7"/>
  <outline>
    <contour>
      <point x="776" y="1706" type="qcurve" smooth="yes"/>
      <point x="751" y="1706"/>
      <point x="710" y="1687"/>
      <point x="687" y="1660"/>
      <point x="670" y="1630"/>
      <point x="664" y="1611"/>
      <point x="664" y="1608" type="qcurve"/>
      <point x="512" y="1608" type="line"/>
      <point x="515" y="1625"/>
      <point x="542" y="1684"/>
      <point x="594" y="1760"/>
      <point x="659" y="1825"/>
      <point x="752" y="1870"/>
      <point x="801" y="1870" type="qcurve" smooth="yes"/>
      <point x="841" y="1870"/>
      <point x="909" y="1840"/>
      <point x="950" y="1804"/>
      <point x="1006" y="1774"/>
      <point x="1036" y="1774" type="qcurve" smooth="yes"/>
      <point x="1068" y="1774"/>
      <point x="1120" y="1802"/>
      <point x="1148" y="1843"/>
      <point x="1161" y="1869"/>
      <point x="1163" y="1876" type="qcurve"/>
      <point x="1313" y="1876" type="line"/>
      <point x="1310" y="1862"/>
      <point x="1283" y="1805"/>
      <point x="1229" y="1729"/>
      <point x="1162" y="1661"/>
      <point x="1065" y="1614"/>
      <point x="1014" y="1614" type="qcurve" smooth="yes"/>
      <point x="974" y="1614"/>
      <point x="904" y="1643"/>
      <point x="861" y="1677"/>
      <point x="804" y="1706"/>
    </contour>
    <contour>
      <point x="721" y="1454" type="line"/>
      <point x="973" y="1454" type="line"/>
      <point x="1184" y="0" type="line"/>
      <point x="893" y="0" type="line"/>
      <point x="848" y="362" type="line"/>
      <point x="379" y="362" type="line"/>
      <point x="182" y="0" type="line"/>
      <point x="-109" y="0" type="line"/>
    </contour>
    <contour>
      <point x="842" y="561" type="line"/>
      <point x="778" y="1133" type="line"/>
      <point x="467" y="561" type="line"/>
    </contour>
  </outline>
</glyph>
<glyph name="Adieresis" format="2">
  <advance width="1320"/>
  <unicode hex="00C4"/>
  <anchor x="0" y="0" name="Anchor-11"/>
  <anchor x="0" y="0" name="Anchor-10"/>
  <anchor x="938" y="1862" name="Anchor-9"/>
  <anchor x="1184" y="0" name="Anchor-8"/>
  <anchor x="547" y="0" name="Anchor-7"/>
  <outline>
    <contour>
      <point x="580" y="1618" type="line"/>
      <point x="633" y="1862" type="line"/>
      <point x="860" y="1862" type="line"/>
      <point x="807" y="1618" type="line"/>
    </contour>
    <contour>
      <point x="965" y="1618" type="line"/>
      <point x="1018" y="1862" type="line"/>
      <point x="1243" y="1862" type="line"/>
      <point x="1192" y="1618" type="line"/>
    </contour>
    <contour>
      <point x="721" y="1454" type="line"/>
      <point x="973" y="1454" type="line"/>
      <point x="1184" y="0" type="line"/>
      <point x="893" y="0" type="line"/>
      <point x="848" y="362" type="line"/>
      <point x="379" y="362" type="line"/>
      <point x="182" y="0" type="line"/>
      <point x="-109" y="0" type="line"/>
    </contour>
    <contour>
      <point x="842" y="561" type="line"/>
      <point x="778" y="1133" type="line"/>
      <point x="467" y="561" type="line"/>
    </contour>
  </outline>
</glyph>
<glyph name="Aring" format="2">
  <advance width="1320"/>
  <unicode hex="00C5"/>
  <anchor x="0" y="0" name="Anchor-11"/>
  <anchor x="0" y="0" name="Anchor-10"/>
  <anchor x="940" y="1876" name="Anchor-9"/>
  <anchor x="1184" y="0" name="Anchor-8"/>
  <anchor x="547" y="0" name="Anchor-7"/>
  <outline>
    <contour>
      <point x="942" y="1876" type="qcurve" smooth="yes"/>
      <point x="1019" y="1876"/>
      <point x="1106" y="1809"/>
      <point x="1106" y="1749" type="qcurve" smooth="yes"/>
      <point x="1106" y="1663"/>
      <point x="976" y="1561"/>
      <point x="874" y="1561" type="qcurve" smooth="yes"/>
      <point x="797" y="1561"/>
      <point x="709" y="1628"/>
      <point x="709" y="1688" type="qcurve" smooth="yes"/>
      <point x="709" y="1775"/>
      <point x="840" y="1876"/>
    </contour>
    <contour>
      <point x="827" y="1706" type="qcurve" smooth="yes"/>
      <point x="827" y="1679"/>
      <point x="862" y="1645"/>
      <point x="891" y="1645" type="qcurve" smooth="yes"/>
      <point x="928" y="1645"/>
      <point x="987" y="1695"/>
      <point x="987" y="1731" type="qcurve" smooth="yes"/>
      <point x="987" y="1759"/>
      <point x="951" y="1792"/>
      <point x="922" y="1792" type="qcurve" smooth="yes"/>
      <point x="884" y="1792"/>
      <point x="827" y="1742"/>
    </contour>
    <contour>
      <point x="721" y="1454" type="line"/>
      <point x="973" y="1454" type="line"/>
      <point x="1184" y="0" type="line"/>
      <point x="893" y="0" type="line"/>
      <point x="848" y="362" type="line"/>
      <point x="379" y="362" type="line"/>
      <point x="182" y="0" type="line"/>
      <point x="-109" y="0" type="line"/>
    </contour>
    <contour>
      <point x="842" y="561" type="line"/>
      <point x="778" y="1133" type="line"/>
      <point x="467" y="561" type="line"/>
    </contour>
  </outline>
</glyph>
<glyph name="AE" format="2">
  <advance width="1902"/>
  <unicode hex="00C6"/>
  <anchor x="0" y="0" name="Anchor-11"/>
  <anchor x="0" y="0" name="Anchor-10"/>
  <anchor x="1251" y="1450" name="Anchor-9"/>
  <anchor x="0" y="0" name="Anchor-8"/>
  <anchor x="0" y="0" name="Anchor-7"/>
  <outline>
    <contour>
      <point x="1004" y="1454" type="line"/>
      <point x="1995" y="1454" type="line"/>
      <point x="1942" y="1206" type="line"/>
      <point x="1305" y="1206" type="line"/>
      <point x="1233" y="864" type="line"/>
      <point x="1763" y="864" type="line"/>
      <point x="1710" y="616" type="line"/>
      <point x="1180" y="616" type="line"/>
      <point x="1102" y="248" type="line"/>
      <point x="1753" y="248" type="line"/>
      <point x="1702" y="0" type="line"/>
      <point x="768" y="0" type="line"/>
      <point x="846" y="362" type="line"/>
      <point x="410" y="362" type="line"/>
      <point x="137" y="0" type="line"/>
      <point x="-164" y="0" type="line"/>
    </contour>
    <contour>
      <point x="877" y="608" type="line"/>
      <point x="989" y="1137" type="line"/>
      <point x="584" y="608" type="line"/>
    </contour>
  </outline>
</glyph>
<glyph name="Ccedilla" format="2">
  <advance width="1347"/>
  <unicode hex="00C7"/>
  <anchor x="0" y="0" name="Anchor-11"/>
  <anchor x="0" y="0" name="Anchor-10"/>
  <anchor x="868" y="1454" name="Anchor-9"/>
  <anchor x="0" y="0" name="Anchor-8"/>
  <anchor x="561" y="0" name="Anchor-7"/>
  <outline>
    <contour>
      <point x="672" y="238" type="qcurve" smooth="yes"/>
      <point x="775" y="238"/>
      <point x="981" y="349"/>
      <point x="1047" y="459" type="qcurve"/>
      <point x="1249" y="326" type="line"/>
      <point x="1187" y="225"/>
      <point x="983" y="72"/>
      <point x="762" y="-6"/>
      <point x="651" y="-12" type="qcurve"/>
      <point x="700" y="-80"/>
      <point x="700" y="-164" type="qcurve" smooth="yes"/>
      <point x="700" y="-270"/>
      <point x="560" y="-412"/>
      <point x="440" y="-412" type="qcurve" smooth="yes"/>
      <point x="335" y="-412"/>
      <point x="240" y="-350" type="qcurve"/>
      <point x="340" y="-205" type="line"/>
      <point x="386" y="-248"/>
      <point x="436" y="-248" type="qcurve" smooth="yes"/>
      <point x="485" y="-248"/>
      <point x="549" y="-186"/>
      <point x="549" y="-133" type="qcurve" smooth="yes"/>
      <point x="549" y="-63"/>
      <point x="492" y="0" type="qcurve"/>
      <point x="494" y="0" type="line"/>
      <point x="363" y="29"/>
      <point x="169" y="214"/>
      <point x="76" y="461"/>
      <point x="76" y="600" type="qcurve" smooth="yes"/>
      <point x="76" y="722"/>
      <point x="155" y="970"/>
      <point x="306" y="1190"/>
      <point x="508" y="1362"/>
      <point x="775" y="1462"/>
      <point x="920" y="1462" type="qcurve" smooth="yes"/>
      <point x="1114" y="1462"/>
      <point x="1363" y="1289"/>
      <point x="1403" y="1145" type="qcurve"/>
      <point x="1161" y="999" type="line"/>
      <point x="1112" y="1212"/>
      <point x="868" y="1212" type="qcurve" smooth="yes"/>
      <point x="770" y="1212"/>
      <point x="602" y="1140"/>
      <point x="485" y="1021"/>
      <point x="401" y="867"/>
      <point x="362" y="705"/>
      <point x="362" y="625" type="qcurve" smooth="yes"/>
      <point x="362" y="459"/>
      <point x="526" y="238"/>
    </contour>
  </outline>
</glyph>
<glyph name="Egrave" format="2">
  <advance width="1183"/>
  <unicode hex="00C8"/>
  <anchor x="0" y="0" name="Anchor-11"/>
  <anchor x="0" y="0" name="Anchor-10"/>
  <anchor x="756" y="1876" name="Anchor-9"/>
  <anchor x="981" y="0" name="Anchor-8"/>
  <anchor x="479" y="0" name="Anchor-7"/>
  <outline>
    <contour>
      <point x="573" y="1876" type="line"/>
      <point x="825" y="1876" type="line"/>
      <point x="879" y="1632" type="line"/>
      <point x="688" y="1595" type="line"/>
    </contour>
    <contour>
      <point x="330" y="1454" type="line"/>
      <point x="1272" y="1454" type="line"/>
      <point x="1221" y="1206" type="line"/>
      <point x="557" y="1206" type="line"/>
      <point x="483" y="856" type="line"/>
      <point x="1055" y="856" type="line"/>
      <point x="1006" y="627" type="line"/>
      <point x="434" y="627" type="line"/>
      <point x="354" y="248" type="line"/>
      <point x="1034" y="248" type="line"/>
      <point x="981" y="0" type="line"/>
      <point x="20" y="0" type="line"/>
    </contour>
  </outline>
</glyph>
<glyph name="Ecircumflex" format="2">
  <advance width="1183"/>
  <unicode hex="00CA"/>
  <anchor x="0" y="0" name="Anchor-11"/>
  <anchor x="0" y="0" name="Anchor-10"/>
  <anchor x="862" y="1876" name="Anchor-9"/>
  <anchor x="981" y="0" name="Anchor-8"/>
  <anchor x="479" y="0" name="Anchor-7"/>
  <outline>
    <contour>
      <point x="524" y="1669" type="line"/>
      <point x="778" y="1876" type="line"/>
      <point x="975" y="1876" type="line"/>
      <point x="1141" y="1669" type="line"/>
      <point x="983" y="1604" type="line"/>
      <point x="846" y="1733" type="line"/>
      <point x="653" y="1604" type="line"/>
    </contour>
    <contour>
      <point x="330" y="1454" type="line"/>
      <point x="1272" y="1454" type="line"/>
      <point x="1221" y="1206" type="line"/>
      <point x="557" y="1206" type="line"/>
      <point x="483" y="856" type="line"/>
      <point x="1055" y="856" type="line"/>
      <point x="1006" y="627" type="line"/>
      <point x="434" y="627" type="line"/>
      <point x="354" y="248" type="line"/>
      <point x="1034" y="248" type="line"/>
      <point x="981" y="0" type="line"/>
      <point x="20" y="0" type="line"/>
    </contour>
  </outline>
</glyph>
<glyph name="Igrave" format="2">
  <advance width="583"/>
  <unicode hex="00CC"/>
  <anchor x="0" y="0" name="Anchor-11"/>
  <anchor x="0" y="0" name="Anchor-10"/>
  <anchor x="446" y="1876" name="Anchor-9"/>
  <anchor x="301" y="0" name="Anchor-8"/>
  <anchor x="168" y="0" name="Anchor-7"/>
  <outline>
    <contour>
      <point x="264" y="1876" type="line"/>
      <point x="516" y="1876" type="line"/>
      <point x="569" y="1632" type="line"/>
      <point x="379" y="1595" type="line"/>
    </contour>
    <contour>
      <point x="330" y="1452" type="line"/>
      <point x="610" y="1452" type="line"/>
      <point x="301" y="0" type="line"/>
      <point x="20" y="0" type="line"/>
    </contour>
  </outline>
</glyph>
<glyph name="Iacute" format="2">
  <advance width="583"/>
  <unicode hex="00CD"/>
  <anchor x="0" y="0" name="Anchor-11"/>
  <anchor x="0" y="0" name="Anchor-10"/>
  <anchor x="627" y="1880" name="Anchor-9"/>
  <anchor x="301" y="0" name="Anchor-8"/>
  <anchor x="168" y="0" name="Anchor-7"/>
  <outline>
    <contour>
      <point x="590" y="1602" type="line"/>
      <point x="412" y="1636" type="line"/>
      <point x="567" y="1880" type="line"/>
      <point x="821" y="1880" type="line"/>
    </contour>
    <contour>
      <point x="330" y="1452" type="line"/>
      <point x="610" y="1452" type="line"/>
      <point x="301" y="0" type="line"/>
      <point x="20" y="0" type="line"/>
    </contour>
  </outline>
</glyph>
<glyph name="Icircumflex" format="2">
  <advance width="583"/>
  <unicode hex="00CE"/>
  <anchor x="0" y="0" name="Anchor-11"/>
  <anchor x="0" y="0" name="Anchor-10"/>
  <anchor x="553" y="1876" name="Anchor-9"/>
  <anchor x="301" y="0" name="Anchor-8"/>
  <anchor x="168" y="0" name="Anchor-7"/>
  <outline>
    <contour>
      <point x="215" y="1669" type="line"/>
      <point x="469" y="1876" type="line"/>
      <point x="666" y="1876" type="line"/>
      <point x="831" y="1669" type="line"/>
      <point x="674" y="1604" type="line"/>
      <point x="537" y="1733" type="line"/>
      <point x="344" y="1604" type="line"/>
    </contour>
    <contour>
      <point x="330" y="1452" type="line"/>
      <point x="610" y="1452" type="line"/>
      <point x="301" y="0" type="line"/>
      <point x="20" y="0" type="line"/>
    </contour>
  </outline>
</glyph>
<glyph name="Idieresis" format="2">
  <advance width="583"/>
  <unicode hex="00CF"/>
  <anchor x="0" y="0" name="Anchor-11"/>
  <anchor x="0" y="0" name="Anchor-10"/>
  <anchor x="565" y="1862" name="Anchor-9"/>
  <anchor x="301" y="0" name="Anchor-8"/>
  <anchor x="168" y="0" name="Anchor-7"/>
  <outline>
    <contour>
      <point x="207" y="1618" type="line"/>
      <point x="260" y="1862" type="line"/>
      <point x="487" y="1862" type="line"/>
      <point x="434" y="1618" type="line"/>
    </contour>
    <contour>
      <point x="592" y="1618" type="line"/>
      <point x="645" y="1862" type="line"/>
      <point x="870" y="1862" type="line"/>
      <point x="819" y="1618" type="line"/>
    </contour>
    <contour>
      <point x="330" y="1452" type="line"/>
      <point x="610" y="1452" type="line"/>
      <point x="301" y="0" type="line"/>
      <point x="20" y="0" type="line"/>
    </contour>
  </outline>
</glyph>
<glyph name="Ntilde" format="2">
  <advance width="1501"/>
  <unicode hex="00D1"/>
  <anchor x="0" y="0" name="Anchor-11"/>
  <anchor x="0" y="0" name="Anchor-10"/>
  <anchor x="1026" y="1872" name="Anchor-9"/>
  <anchor x="0" y="0" name="Anchor-8"/>
  <anchor x="635" y="0" name="Anchor-7"/>
  <outline>
    <contour>
      <point x="862" y="1702" type="qcurve" smooth="yes"/>
      <point x="837" y="1702"/>
      <point x="796" y="1683"/>
      <point x="773" y="1656"/>
      <point x="756" y="1626"/>
      <point x="750" y="1607"/>
      <point x="750" y="1604" type="qcurve"/>
      <point x="598" y="1604" type="line"/>
      <point x="601" y="1621"/>
      <point x="628" y="1680"/>
      <point x="680" y="1756"/>
      <point x="745" y="1821"/>
      <point x="838" y="1866"/>
      <point x="887" y="1866" type="qcurve" smooth="yes"/>
      <point x="927" y="1866"/>
      <point x="995" y="1836"/>
      <point x="1036" y="1799"/>
      <point x="1092" y="1769"/>
      <point x="1122" y="1769" type="qcurve" smooth="yes"/>
      <point x="1154" y="1769"/>
      <point x="1206" y="1798"/>
      <point x="1234" y="1839"/>
      <point x="1247" y="1865"/>
      <point x="1249" y="1872" type="qcurve"/>
      <point x="1399" y="1872" type="line"/>
      <point x="1396" y="1858"/>
      <point x="1369" y="1801"/>
      <point x="1315" y="1725"/>
      <point x="1248" y="1657"/>
      <point x="1151" y="1610"/>
      <point x="1100" y="1610" type="qcurve" smooth="yes"/>
      <point x="1060" y="1610"/>
      <point x="990" y="1639"/>
      <point x="947" y="1673"/>
      <point x="890" y="1702"/>
    </contour>
    <contour>
      <point x="330" y="1454" type="line"/>
      <point x="549" y="1454" type="line"/>
      <point x="1044" y="500" type="line"/>
      <point x="1247" y="1452" type="line"/>
      <point x="1528" y="1452" type="line"/>
      <point x="1219" y="0" type="line"/>
      <point x="991" y="0" type="line"/>
      <point x="498" y="932" type="line"/>
      <point x="301" y="0" type="line"/>
      <point x="20" y="0" type="line"/>
    </contour>
  </outline>
</glyph>
<glyph name="multiply" format="2">
  <advance width="997"/>
  <unicode hex="00D7"/>
  <outline>
    <contour>
      <point x="866" y="352" type="line"/>
      <point x="692" y="182" type="line"/>
      <point x="481" y="393" type="line"/>
      <point x="270" y="182" type="line"/>
      <point x="100" y="354" type="line"/>
      <point x="309" y="563" type="line"/>
      <point x="109" y="766" type="line"/>
      <point x="283" y="936" type="line"/>
      <point x="483" y="735" type="line"/>
      <point x="684" y="938" type="line"/>
      <point x="854" y="766" type="line"/>
      <point x="653" y="563" type="line"/>
    </contour>
  </outline>
</glyph>
<glyph name="Oslash" format="2">
  <advance width="1492"/>
  <unicode hex="00D8"/>
  <anchor x="1194" y="1346" name="Anchor-11"/>
  <anchor x="756" y="727" name="Anchor-10"/>
  <anchor x="930" y="1450" name="Anchor-9"/>
  <anchor x="721" y="0" name="Anchor-8"/>
  <anchor x="643" y="0" name="Anchor-7"/>
  <outline>
    <contour>
      <point x="1563" y="1454" type="line"/>
      <point x="1362" y="1227" type="line"/>
      <point x="1462" y="1066"/>
      <point x="1462" y="856" type="qcurve" smooth="yes"/>
      <point x="1462" y="695"/>
      <point x="1320" y="378"/>
      <point x="1089" y="138"/>
      <point x="775" y="-10"/>
      <point x="612" y="-10" type="qcurve" smooth="yes"/>
      <point x="458" y="-10"/>
      <point x="340" y="63" type="qcurve"/>
      <point x="285" y="0" type="line"/>
      <point x="-18" y="0" type="line"/>
      <point x="178" y="223" type="line"/>
      <point x="76" y="379"/>
      <point x="76" y="594" type="qcurve" smooth="yes"/>
      <point x="76" y="757"/>
      <point x="219" y="1075"/>
      <point x="451" y="1315"/>
      <point x="768" y="1464"/>
      <point x="932" y="1464" type="qcurve" smooth="yes"/>
      <point x="1089" y="1464"/>
      <point x="1202" y="1389" type="qcurve"/>
      <point x="1260" y="1454" type="line"/>
    </contour>
    <contour>
      <point x="362" y="616" type="qcurve" smooth="yes"/>
      <point x="362" y="540"/>
      <point x="385" y="459" type="qcurve"/>
      <point x="1016" y="1176" type="line"/>
      <point x="957" y="1212"/>
      <point x="872" y="1212" type="qcurve" smooth="yes"/>
      <point x="763" y="1212"/>
      <point x="569" y="1103"/>
      <point x="438" y="931"/>
      <point x="362" y="720"/>
    </contour>
    <contour>
      <point x="1176" y="836" type="qcurve" smooth="yes"/>
      <point x="1176" y="921"/>
      <point x="1153" y="989" type="qcurve"/>
      <point x="526" y="274" type="line"/>
      <point x="584" y="240"/>
      <point x="668" y="240" type="qcurve" smooth="yes"/>
      <point x="777" y="240"/>
      <point x="971" y="350"/>
      <point x="1100" y="523"/>
      <point x="1176" y="734"/>
    </contour>
  </outline>
</glyph>
<glyph name="Udieresis" format="2">
  <advance width="1474"/>
  <unicode hex="00DC"/>
  <anchor x="1534" y="1343" name="Anchor-11"/>
  <anchor x="0" y="0" name="Anchor-10"/>
  <anchor x="995" y="1858" name="Anchor-9"/>
  <anchor x="721" y="0" name="Anchor-8"/>
  <anchor x="608" y="0" name="Anchor-7"/>
  <outline>
    <contour>
      <point x="637" y="1614" type="line"/>
      <point x="690" y="1858" type="line"/>
      <point x="918" y="1858" type="line"/>
      <point x="864" y="1614" type="line"/>
    </contour>
    <contour>
      <point x="1022" y="1614" type="line"/>
      <point x="1075" y="1858" type="line"/>
      <point x="1300" y="1858" type="line"/>
      <point x="1249" y="1614" type="line"/>
    </contour>
    <contour>
      <point x="125" y="481" type="qcurve" smooth="yes"/>
      <point x="125" y="593"/>
      <point x="152" y="713" type="qcurve" smooth="yes"/>
      <point x="309" y="1454" type="line"/>
      <point x="590" y="1454" type="line"/>
      <point x="432" y="713" type="line" smooth="yes"/>
      <point x="412" y="623"/>
      <point x="412" y="530" type="qcurve" smooth="yes"/>
      <point x="412" y="397"/>
      <point x="527" y="240"/>
      <point x="655" y="240" type="qcurve" smooth="yes"/>
      <point x="727" y="240"/>
      <point x="852" y="293"/>
      <point x="944" y="382"/>
      <point x="1019" y="506"/>
      <point x="1067" y="638"/>
      <point x="1083" y="713" type="qcurve" smooth="yes"/>
      <point x="1241" y="1454" type="line"/>
      <point x="1522" y="1454" type="line"/>
      <point x="1364" y="713" type="line" smooth="yes"/>
      <point x="1332" y="560"/>
      <point x="1206" y="304"/>
      <point x="1020" y="103"/>
      <point x="759" y="-10"/>
      <point x="604" y="-10" type="qcurve" smooth="yes"/>
      <point x="477" y="-10"/>
      <point x="289" y="65"/>
      <point x="178" y="200"/>
      <point x="125" y="374"/>
    </contour>
  </outline>
</glyph>
<glyph name="Yacute" format="2">
  <advance width="1267"/>
  <unicode hex="00DD"/>
  <anchor x="0" y="0" name="Anchor-11"/>
  <anchor x="0" y="0" name="Anchor-10"/>
  <anchor x="926" y="1876" name="Anchor-9"/>
  <anchor x="0" y="0" name="Anchor-8"/>
  <anchor x="0" y="0" name="Anchor-7"/>
  <outline>
    <contour>
      <point x="889" y="1597" type="line"/>
      <point x="711" y="1632" type="line"/>
      <point x="866" y="1876" type="line"/>
      <point x="1120" y="1876" type="line"/>
    </contour>
    <contour>
      <point x="461" y="512" type="line"/>
      <point x="166" y="1454" type="line"/>
      <point x="473" y="1454" type="line"/>
      <point x="653" y="754" type="line"/>
      <point x="1137" y="1454" type="line"/>
      <point x="1442" y="1454" type="line"/>
      <point x="739" y="508" type="line"/>
      <point x="633" y="0" type="line"/>
      <point x="352" y="0" type="line"/>
    </contour>
  </outline>
</glyph>
<glyph name="Thorn" format="2">
  <advance width="1193"/>
  <unicode hex="00DE"/>
  <outline>
    <contour>
      <point x="330" y="1454" type="line"/>
      <point x="610" y="1454" type="line"/>
      <point x="555" y="1192" type="line"/>
      <point x="825" y="1192" type="line" smooth="yes"/>
      <point x="932" y="1192"/>
      <point x="1097" y="1076"/>
      <point x="1178" y="895"/>
      <point x="1178" y="791" type="qcurve" smooth="yes"/>
      <point x="1178" y="690"/>
      <point x="1090" y="485"/>
      <point x="945" y="325"/>
      <point x="741" y="225"/>
      <point x="633" y="225" type="qcurve" smooth="yes"/>
      <point x="348" y="225" type="line"/>
      <point x="301" y="0" type="line"/>
      <point x="20" y="0" type="line"/>
    </contour>
    <contour>
      <point x="672" y="473" type="line" smooth="yes"/>
      <point x="757" y="473"/>
      <point x="893" y="652"/>
      <point x="893" y="762" type="qcurve" smooth="yes"/>
      <point x="893" y="841"/>
      <point x="817" y="944"/>
      <point x="760" y="944" type="qcurve" smooth="yes"/>
      <point x="502" y="944" type="line"/>
      <point x="401" y="473" type="line"/>
    </contour>
  </outline>
</glyph>
<glyph name="germandbls" format="2">
  <advance width="1101"/>
  <unicode hex="00DF"/>
  <outline>
    <contour>
      <point x="410" y="240" type="line"/>
      <point x="549" y="242"/>
      <point x="727" y="378"/>
      <point x="727" y="506" type="qcurve" smooth="yes"/>
      <point x="727" y="588"/>
      <point x="629" y="682"/>
      <point x="557" y="682" type="qcurve" smooth="yes"/>
      <point x="516" y="682" type="line"/>
      <point x="567" y="928" type="line"/>
      <point x="606" y="928" type="line" smooth="yes"/>
      <point x="686" y="928"/>
      <point x="784" y="1038"/>
      <point x="784" y="1112" type="qcurve" smooth="yes"/>
      <point x="784" y="1168"/>
      <point x="718" y="1229"/>
      <point x="666" y="1229" type="qcurve" smooth="yes"/>
      <point x="588" y="1229"/>
      <point x="489" y="1116"/>
      <point x="469" y="1022" type="qcurve" smooth="yes"/>
      <point x="252" y="0" type="line"/>
      <point x="-8" y="0" type="line"/>
      <point x="217" y="1069" type="line" smooth="yes"/>
      <point x="255" y="1240"/>
      <point x="550" y="1462"/>
      <point x="737" y="1462" type="qcurve" smooth="yes"/>
      <point x="881" y="1462"/>
      <point x="1059" y="1313"/>
      <point x="1059" y="1188" type="qcurve" smooth="yes"/>
      <point x="1059" y="1070"/>
      <point x="910" y="857"/>
      <point x="819" y="823" type="qcurve"/>
      <point x="911" y="794"/>
      <point x="1014" y="630"/>
      <point x="1014" y="518" type="qcurve" smooth="yes"/>
      <point x="1014" y="409"/>
      <point x="940" y="231"/>
      <point x="815" y="111"/>
      <point x="644" y="28"/>
      <point x="458" y="-10"/>
      <point x="356" y="-12" type="qcurve"/>
    </contour>
  </outline>
</glyph>
<glyph name="atilde" format="2">
  <advance width="1277"/>
  <unicode hex="00E3"/>
  <anchor x="0" y="0" name="Anchor-11"/>
  <anchor x="0" y="0" name="Anchor-10"/>
  <anchor x="842" y="1495" name="Anchor-9"/>
  <anchor x="1063" y="0" name="Anchor-8"/>
  <anchor x="526" y="0" name="Anchor-7"/>
  <outline>
    <contour>
      <point x="678" y="1325" type="qcurve" smooth="yes"/>
      <point x="653" y="1325"/>
      <point x="612" y="1306"/>
      <point x="588" y="1279"/>
      <point x="571" y="1249"/>
      <point x="565" y="1230"/>
      <point x="565" y="1227" type="qcurve"/>
      <point x="414" y="1227" type="line"/>
      <point x="417" y="1245"/>
      <point x="444" y="1303"/>
      <point x="496" y="1379"/>
      <point x="560" y="1444"/>
      <point x="653" y="1489"/>
      <point x="702" y="1489" type="qcurve" smooth="yes"/>
      <point x="742" y="1489"/>
      <point x="811" y="1459"/>
      <point x="851" y="1423"/>
      <point x="908" y="1393"/>
      <point x="938" y="1393" type="qcurve" smooth="yes"/>
      <point x="970" y="1393"/>
      <point x="1022" y="1421"/>
      <point x="1050" y="1462"/>
      <point x="1063" y="1488"/>
      <point x="1065" y="1495" type="qcurve"/>
      <point x="1214" y="1495" type="line"/>
      <point x="1211" y="1481"/>
      <point x="1184" y="1424"/>
      <point x="1130" y="1348"/>
      <point x="1063" y="1280"/>
      <point x="966" y="1233"/>
      <point x="915" y="1233" type="qcurve" smooth="yes"/>
      <point x="875" y="1233"/>
      <point x="805" y="1262"/>
      <point x="763" y="1296"/>
      <point x="706" y="1325"/>
    </contour>
    <contour>
      <point x="31" y="420" type="qcurve" smooth="yes"/>
      <point x="31" y="550"/>
      <point x="128" y="798"/>
      <point x="287" y="981"/>
      <point x="504" y="1092"/>
      <point x="618" y="1092" type="qcurve" smooth="yes"/>
      <point x="726" y="1092"/>
      <point x="883" y="978"/>
      <point x="913" y="885" type="qcurve"/>
      <point x="954" y="1069" type="line"/>
      <point x="1229" y="1069" type="line"/>
      <point x="1069" y="315" type="line" smooth="yes"/>
      <point x="1063" y="294"/>
      <point x="1063" y="279" type="qcurve" smooth="yes"/>
      <point x="1063" y="236"/>
      <point x="1112" y="233" type="qcurve"/>
      <point x="1063" y="0" type="line"/>
      <point x="977" y="-14"/>
      <point x="950" y="-14" type="qcurve" smooth="yes"/>
      <point x="877" y="-14"/>
      <point x="795" y="49"/>
      <point x="795" y="109" type="qcurve" smooth="yes"/>
      <point x="795" y="134"/>
      <point x="807" y="186" type="qcurve"/>
      <point x="732" y="87"/>
      <point x="521" y="-20"/>
      <point x="412" y="-20" type="qcurve" smooth="yes"/>
      <point x="238" y="-20"/>
      <point x="31" y="229"/>
    </contour>
    <contour>
      <point x="811" y="393" type="qcurve"/>
      <point x="864" y="649" type="line"/>
      <point x="852" y="738"/>
      <point x="732" y="858"/>
      <point x="655" y="858" type="qcurve" smooth="yes"/>
      <point x="569" y="858"/>
      <point x="412" y="743"/>
      <point x="319" y="560"/>
      <point x="319" y="463" type="qcurve" smooth="yes"/>
      <point x="319" y="355"/>
      <point x="437" y="213"/>
      <point x="535" y="213" type="qcurve" smooth="yes"/>
      <point x="607" y="213"/>
      <point x="767" y="316"/>
    </contour>
  </outline>
</glyph>
<glyph name="aring" format="2">
  <advance width="1277"/>
  <unicode hex="00E5"/>
  <anchor x="0" y="0" name="Anchor-11"/>
  <anchor x="0" y="0" name="Anchor-10"/>
  <anchor x="842" y="1495" name="Anchor-9"/>
  <anchor x="1063" y="0" name="Anchor-8"/>
  <anchor x="526" y="0" name="Anchor-7"/>
  <outline>
    <contour>
      <point x="844" y="1495" type="qcurve" smooth="yes"/>
      <point x="921" y="1495"/>
      <point x="1008" y="1428"/>
      <point x="1008" y="1368" type="qcurve" smooth="yes"/>
      <point x="1008" y="1282"/>
      <point x="878" y="1180"/>
      <point x="776" y="1180" type="qcurve" smooth="yes"/>
      <point x="699" y="1180"/>
      <point x="610" y="1247"/>
      <point x="610" y="1307" type="qcurve" smooth="yes"/>
      <point x="610" y="1394"/>
      <point x="741" y="1495"/>
    </contour>
    <contour>
      <point x="729" y="1325" type="qcurve" smooth="yes"/>
      <point x="729" y="1298"/>
      <point x="764" y="1264"/>
      <point x="793" y="1264" type="qcurve" smooth="yes"/>
      <point x="830" y="1264"/>
      <point x="889" y="1314"/>
      <point x="889" y="1350" type="qcurve" smooth="yes"/>
      <point x="889" y="1378"/>
      <point x="852" y="1411"/>
      <point x="823" y="1411" type="qcurve" smooth="yes"/>
      <point x="785" y="1411"/>
      <point x="729" y="1361"/>
    </contour>
    <contour>
      <point x="31" y="420" type="qcurve" smooth="yes"/>
      <point x="31" y="550"/>
      <point x="128" y="798"/>
      <point x="287" y="981"/>
      <point x="504" y="1092"/>
      <point x="618" y="1092" type="qcurve" smooth="yes"/>
      <point x="726" y="1092"/>
      <point x="883" y="978"/>
      <point x="913" y="885" type="qcurve"/>
      <point x="954" y="1069" type="line"/>
      <point x="1229" y="1069" type="line"/>
      <point x="1069" y="315" type="line" smooth="yes"/>
      <point x="1063" y="294"/>
      <point x="1063" y="279" type="qcurve" smooth="yes"/>
      <point x="1063" y="236"/>
      <point x="1112" y="233" type="qcurve"/>
      <point x="1063" y="0" type="line"/>
      <point x="977" y="-14"/>
      <point x="950" y="-14" type="qcurve" smooth="yes"/>
      <point x="877" y="-14"/>
      <point x="795" y="49"/>
      <point x="795" y="109" type="qcurve" smooth="yes"/>
      <point x="795" y="134"/>
      <point x="807" y="186" type="qcurve"/>
      <point x="732" y="87"/>
      <point x="521" y="-20"/>
      <point x="412" y="-20" type="qcurve" smooth="yes"/>
      <point x="238" y="-20"/>
      <point x="31" y="229"/>
    </contour>
    <contour>
      <point x="811" y="393" type="qcurve"/>
      <point x="864" y="649" type="line"/>
      <point x="852" y="738"/>
      <point x="732" y="858"/>
      <point x="655" y="858" type="qcurve" smooth="yes"/>
      <point x="569" y="858"/>
      <point x="412" y="743"/>
      <point x="319" y="560"/>
      <point x="319" y="463" type="qcurve" smooth="yes"/>
      <point x="319" y="355"/>
      <point x="437" y="213"/>
      <point x="535" y="213" type="qcurve" smooth="yes"/>
      <point x="607" y="213"/>
      <point x="767" y="316"/>
    </contour>
  </outline>
</glyph>
<glyph name="igrave" format="2">
  <advance width="518"/>
  <unicode hex="00EC"/>
  <anchor x="0" y="0" name="Anchor-11"/>
  <anchor x="0" y="0" name="Anchor-10"/>
  <anchor x="440" y="1479" name="Anchor-9"/>
  <anchor x="352" y="20" name="Anchor-8"/>
  <anchor x="127" y="0" name="Anchor-7"/>
  <outline>
    <contour>
      <point x="258" y="1479" type="line"/>
      <point x="510" y="1479" type="line"/>
      <point x="563" y="1235" type="line"/>
      <point x="373" y="1198" type="line"/>
    </contour>
    <contour>
      <point x="219" y="1073" type="line"/>
      <point x="494" y="1073" type="line"/>
      <point x="266" y="0" type="line"/>
      <point x="-8" y="0" type="line"/>
    </contour>
  </outline>
</glyph>
<glyph name="iacute" format="2">
  <advance width="518"/>
  <unicode hex="00ED"/>
  <anchor x="0" y="0" name="Anchor-11"/>
  <anchor x="0" y="0" name="Anchor-10"/>
  <anchor x="504" y="1499" name="Anchor-9"/>
  <anchor x="352" y="20" name="Anchor-8"/>
  <anchor x="127" y="0" name="Anchor-7"/>
  <outline>
    <contour>
      <point x="467" y="1221" type="line"/>
      <point x="289" y="1255" type="line"/>
      <point x="444" y="1499" type="line"/>
      <point x="698" y="1499" type="line"/>
    </contour>
    <contour>
      <point x="219" y="1073" type="line"/>
      <point x="494" y="1073" type="line"/>
      <point x="266" y="0" type="line"/>
      <point x="-8" y="0" type="line"/>
    </contour>
  </outline>
</glyph>
<glyph name="icircumflex" format="2">
  <advance width="518"/>
  <unicode hex="00EE"/>
  <anchor x="0" y="0" name="Anchor-11"/>
  <anchor x="0" y="0" name="Anchor-10"/>
  <anchor x="430" y="1495" name="Anchor-9"/>
  <anchor x="352" y="20" name="Anchor-8"/>
  <anchor x="127" y="0" name="Anchor-7"/>
  <outline>
    <contour>
      <point x="92" y="1288" type="line"/>
      <point x="346" y="1495" type="line"/>
      <point x="543" y="1495" type="line"/>
      <point x="709" y="1288" type="line"/>
      <point x="551" y="1223" type="line"/>
      <point x="414" y="1352" type="line"/>
      <point x="221" y="1223" type="line"/>
    </contour>
    <contour>
      <point x="219" y="1073" type="line"/>
      <point x="494" y="1073" type="line"/>
      <point x="266" y="0" type="line"/>
      <point x="-8" y="0" type="line"/>
    </contour>
  </outline>
</glyph>
<glyph name="idieresis" format="2">
  <advance width="518"/>
  <unicode hex="00EF"/>
  <anchor x="0" y="0" name="Anchor-11"/>
  <anchor x="0" y="0" name="Anchor-10"/>
  <anchor x="442" y="1481" name="Anchor-9"/>
  <anchor x="352" y="20" name="Anchor-8"/>
  <anchor x="127" y="0" name="Anchor-7"/>
  <outline>
    <contour>
      <point x="84" y="1237" type="line"/>
      <point x="137" y="1481" type="line"/>
      <point x="365" y="1481" type="line"/>
      <point x="311" y="1237" type="line"/>
    </contour>
    <contour>
      <point x="469" y="1237" type="line"/>
      <point x="522" y="1481" type="line"/>
      <point x="748" y="1481" type="line"/>
      <point x="696" y="1237" type="line"/>
    </contour>
    <contour>
      <point x="219" y="1073" type="line"/>
      <point x="494" y="1073" type="line"/>
      <point x="266" y="0" type="line"/>
      <point x="-8" y="0" type="line"/>
    </contour>
  </outline>
</glyph>
<glyph name="eth" format="2">
  <advance width="1212"/>
  <unicode hex="00F0"/>
  <outline>
    <contour>
      <point x="1192" y="1352" type="line"/>
      <point x="1028" y="1268" type="line"/>
      <point x="1157" y="1048"/>
      <point x="1157" y="768" type="qcurve" smooth="yes"/>
      <point x="1157" y="593"/>
      <point x="1046" y="294"/>
      <point x="857" y="93"/>
      <point x="603" y="-20"/>
      <point x="461" y="-20" type="qcurve" smooth="yes"/>
      <point x="265" y="-20"/>
      <point x="25" y="212"/>
      <point x="25" y="391" type="qcurve" smooth="yes"/>
      <point x="25" y="504"/>
      <point x="124" y="718"/>
      <point x="285" y="873"/>
      <point x="499" y="967"/>
      <point x="608" y="967" type="qcurve" smooth="yes"/>
      <point x="705" y="967"/>
      <point x="860" y="880"/>
      <point x="899" y="807" type="qcurve"/>
      <point x="896" y="873"/>
      <point x="887" y="938" type="qcurve" smooth="yes"/>
      <point x="865" y="1064"/>
      <point x="801" y="1169" type="qcurve"/>
      <point x="610" y="1069" type="line"/>
      <point x="555" y="1176" type="line"/>
      <point x="731" y="1270" type="line"/>
      <point x="638" y="1385"/>
      <point x="467" y="1495" type="qcurve"/>
      <point x="815" y="1495" type="line"/>
      <point x="896" y="1443"/>
      <point x="961" y="1366" type="qcurve"/>
      <point x="1137" y="1460" type="line"/>
    </contour>
    <contour>
      <point x="514" y="213" type="qcurve" smooth="yes"/>
      <point x="643" y="213"/>
      <point x="838" y="408"/>
      <point x="838" y="537" type="qcurve" smooth="yes"/>
      <point x="838" y="629"/>
      <point x="725" y="745"/>
      <point x="631" y="745" type="qcurve" smooth="yes"/>
      <point x="502" y="745"/>
      <point x="309" y="557"/>
      <point x="309" y="426" type="qcurve" smooth="yes"/>
      <point x="309" y="334"/>
      <point x="422" y="213"/>
    </contour>
  </outline>
</glyph>
<glyph name="ntilde" format="2">
  <advance width="1191"/>
  <unicode hex="00F1"/>
  <anchor x="0" y="0" name="Anchor-11"/>
  <anchor x="0" y="0" name="Anchor-10"/>
  <anchor x="868" y="1491" name="Anchor-9"/>
  <anchor x="0" y="0" name="Anchor-8"/>
  <anchor x="483" y="0" name="Anchor-7"/>
  <outline>
    <contour>
      <point x="705" y="1321" type="qcurve" smooth="yes"/>
      <point x="680" y="1321"/>
      <point x="639" y="1302"/>
      <point x="615" y="1275"/>
      <point x="598" y="1245"/>
      <point x="592" y="1226"/>
      <point x="592" y="1223" type="qcurve"/>
      <point x="440" y="1223" type="line"/>
      <point x="443" y="1240"/>
      <point x="470" y="1299"/>
      <point x="522" y="1375"/>
      <point x="587" y="1440"/>
      <point x="680" y="1485"/>
      <point x="729" y="1485" type="qcurve" smooth="yes"/>
      <point x="769" y="1485"/>
      <point x="838" y="1455"/>
      <point x="878" y="1419"/>
      <point x="935" y="1389"/>
      <point x="965" y="1389" type="qcurve" smooth="yes"/>
      <point x="997" y="1389"/>
      <point x="1049" y="1417"/>
      <point x="1077" y="1458"/>
      <point x="1090" y="1484"/>
      <point x="1092" y="1491" type="qcurve"/>
      <point x="1241" y="1491" type="line"/>
      <point x="1238" y="1477"/>
      <point x="1211" y="1420"/>
      <point x="1157" y="1344"/>
      <point x="1090" y="1276"/>
      <point x="993" y="1229"/>
      <point x="942" y="1229" type="qcurve" smooth="yes"/>
      <point x="902" y="1229"/>
      <point x="832" y="1258"/>
      <point x="790" y="1292"/>
      <point x="733" y="1321"/>
    </contour>
    <contour>
      <point x="219" y="1073" type="line"/>
      <point x="467" y="1073" type="line"/>
      <point x="424" y="874" type="line"/>
      <point x="502" y="976"/>
      <point x="740" y="1092"/>
      <point x="872" y="1092" type="qcurve" smooth="yes"/>
      <point x="1112" y="1092"/>
      <point x="1112" y="844" type="qcurve" smooth="yes"/>
      <point x="1112" y="768"/>
      <point x="1092" y="670" type="qcurve" smooth="yes"/>
      <point x="950" y="0" type="line"/>
      <point x="676" y="0" type="line"/>
      <point x="803" y="602" type="line" smooth="yes"/>
      <point x="817" y="674"/>
      <point x="817" y="711" type="qcurve" smooth="yes"/>
      <point x="817" y="780"/>
      <point x="755" y="850"/>
      <point x="700" y="850" type="qcurve" smooth="yes"/>
      <point x="624" y="850"/>
      <point x="448" y="722"/>
      <point x="399" y="627" type="qcurve"/>
      <point x="266" y="0" type="line"/>
      <point x="-8" y="0" type="line"/>
    </contour>
  </outline>
</glyph>
<glyph name="divide" format="2">
  <advance width="1064"/>
  <unicode hex="00F7"/>
  <outline>
    <contour>
      <point x="416" y="858" type="line"/>
      <point x="416" y="1120" type="line"/>
      <point x="647" y="1120" type="line"/>
      <point x="647" y="858" type="line"/>
    </contour>
    <contour>
      <point x="117" y="500" type="line"/>
      <point x="117" y="719" type="line"/>
      <point x="944" y="719" type="line"/>
      <point x="944" y="500" type="line"/>
    </contour>
    <contour>
      <point x="416" y="98" type="line"/>
      <point x="416" y="362" type="line"/>
      <point x="647" y="362" type="line"/>
      <point x="647" y="98" type="line"/>
    </contour>
  </outline>
</glyph>
<glyph name="uacute" format="2">
  <advance width="1218"/>
  <unicode hex="00FA"/>
  <anchor x="1210" y="956" name="Anchor-11"/>
  <anchor x="0" y="0" name="Anchor-10"/>
  <anchor x="872" y="1499" name="Anchor-9"/>
  <anchor x="1006" y="0" name="Anchor-8"/>
  <anchor x="498" y="0" name="Anchor-7"/>
  <outline>
    <contour>
      <point x="836" y="1221" type="line"/>
      <point x="657" y="1255" type="line"/>
      <point x="813" y="1499" type="line"/>
      <point x="1067" y="1499" type="line"/>
    </contour>
    <contour>
      <point x="45" y="242" type="qcurve" smooth="yes"/>
      <point x="45" y="298"/>
      <point x="66" y="401" type="qcurve" smooth="yes"/>
      <point x="209" y="1073" type="line"/>
      <point x="481" y="1073" type="line"/>
      <point x="352" y="461" type="line" smooth="yes"/>
      <point x="338" y="404"/>
      <point x="338" y="358" type="qcurve" smooth="yes"/>
      <point x="338" y="213"/>
      <point x="461" y="213" type="qcurve" smooth="yes"/>
      <point x="536" y="213"/>
      <point x="692" y="313"/>
      <point x="756" y="408" type="qcurve"/>
      <point x="897" y="1073" type="line"/>
      <point x="1171" y="1073" type="line"/>
      <point x="1010" y="315" type="line" smooth="yes"/>
      <point x="1006" y="287"/>
      <point x="1006" y="279" type="qcurve" smooth="yes"/>
      <point x="1006" y="256"/>
      <point x="1029" y="235"/>
      <point x="1055" y="233" type="qcurve"/>
      <point x="1006" y="0" type="line"/>
      <point x="920" y="-14"/>
      <point x="891" y="-14" type="qcurve" smooth="yes"/>
      <point x="819" y="-14"/>
      <point x="739" y="45"/>
      <point x="739" y="102" type="qcurve" smooth="yes"/>
      <point x="739" y="135"/>
      <point x="754" y="201" type="qcurve"/>
      <point x="663" y="92"/>
      <point x="428" y="-20"/>
      <point x="297" y="-20" type="qcurve" smooth="yes"/>
      <point x="173" y="-20"/>
      <point x="45" y="113"/>
    </contour>
  </outline>
</glyph>
<glyph name="udieresis" format="2">
  <advance width="1218"/>
  <unicode hex="00FC"/>
  <anchor x="1210" y="956" name="Anchor-11"/>
  <anchor x="0" y="0" name="Anchor-10"/>
  <anchor x="811" y="1481" name="Anchor-9"/>
  <anchor x="1006" y="0" name="Anchor-8"/>
  <anchor x="498" y="0" name="Anchor-7"/>
  <outline>
    <contour>
      <point x="453" y="1237" type="line"/>
      <point x="506" y="1481" type="line"/>
      <point x="733" y="1481" type="line"/>
      <point x="680" y="1237" type="line"/>
    </contour>
    <contour>
      <point x="838" y="1237" type="line"/>
      <point x="891" y="1481" type="line"/>
      <point x="1116" y="1481" type="line"/>
      <point x="1065" y="1237" type="line"/>
    </contour>
    <contour>
      <point x="45" y="242" type="qcurve" smooth="yes"/>
      <point x="45" y="298"/>
      <point x="66" y="401" type="qcurve" smooth="yes"/>
      <point x="209" y="1073" type="line"/>
      <point x="481" y="1073" type="line"/>
      <point x="352" y="461" type="line" smooth="yes"/>
      <point x="338" y="404"/>
      <point x="338" y="358" type="qcurve" smooth="yes"/>
      <point x="338" y="213"/>
      <point x="461" y="213" type="qcurve" smooth="yes"/>
      <point x="536" y="213"/>
      <point x="692" y="313"/>
      <point x="756" y="408" type="qcurve"/>
      <point x="897" y="1073" type="line"/>
      <point x="1171" y="1073" type="line"/>
      <point x="1010" y="315" type="line" smooth="yes"/>
      <point x="1006" y="287"/>
      <point x="1006" y="279" type="qcurve" smooth="yes"/>
      <point x="1006" y="256"/>
      <point x="1029" y="235"/>
      <point x="1055" y="233" type="qcurve"/>
      <point x="1006" y="0" type="line"/>
      <point x="920" y="-14"/>
      <point x="891" y="-14" type="qcurve" smooth="yes"/>
      <point x="819" y="-14"/>
      <point x="739" y="45"/>
      <point x="739" y="102" type="qcurve" smooth="yes"/>
      <point x="739" y="135"/>
      <point x="754" y="201" type="qcurve"/>
      <point x="663" y="92"/>
      <point x="428" y="-20"/>
      <point x="297" y="-20" type="qcurve" smooth="yes"/>
      <point x="173" y="-20"/>
      <point x="45" y="113"/>
    </contour>
  </outline>
</glyph>
<glyph name="yacute" format="2">
  <advance width="1064"/>
  <unicode hex="00FD"/>
  <anchor x="0" y="0" name="Anchor-11"/>
  <anchor x="0" y="0" name="Anchor-10"/>
  <anchor x="750" y="1495" name="Anchor-9"/>
  <anchor x="0" y="0" name="Anchor-8"/>
  <anchor x="705" y="0" name="Anchor-7"/>
  <outline>
    <contour>
      <point x="713" y="1217" type="line"/>
      <point x="535" y="1251" type="line"/>
      <point x="690" y="1495" type="line"/>
      <point x="944" y="1495" type="line"/>
    </contour>
    <contour>
      <point x="-90" y="-258" type="line"/>
      <point x="34" y="-247"/>
      <point x="153" y="-188"/>
      <point x="215" y="-102" type="qcurve" smooth="yes"/>
      <point x="274" y="-23" type="line"/>
      <point x="96" y="1073" type="line"/>
      <point x="377" y="1073" type="line"/>
      <point x="469" y="238" type="line"/>
      <point x="539" y="352" type="line" smooth="yes"/>
      <point x="665" y="561"/>
      <point x="803" y="886"/>
      <point x="846" y="1073" type="qcurve"/>
      <point x="1112" y="1073" type="line"/>
      <point x="1056" y="874"/>
      <point x="891" y="536"/>
      <point x="690" y="211" type="qcurve" smooth="yes"/>
      <point x="526" y="-53" type="line" smooth="yes"/>
      <point x="384" y="-282"/>
      <point x="124" y="-466"/>
      <point x="-57" y="-469" type="qcurve"/>
    </contour>
  </outline>
</glyph>
<glyph name="ydieresis" format="2">
  <advance width="1064"/>
  <unicode hex="00FF"/>
  <anchor x="0" y="0" name="Anchor-11"/>
  <anchor x="0" y="0" name="Anchor-10"/>
  <anchor x="688" y="1477" name="Anchor-9"/>
  <anchor x="0" y="0" name="Anchor-8"/>
  <anchor x="705" y="0" name="Anchor-7"/>
  <outline>
    <contour>
      <point x="330" y="1233" type="line"/>
      <point x="383" y="1477" type="line"/>
      <point x="610" y="1477" type="line"/>
      <point x="557" y="1233" type="line"/>
    </contour>
    <contour>
      <point x="715" y="1233" type="line"/>
      <point x="768" y="1477" type="line"/>
      <point x="993" y="1477" type="line"/>
      <point x="942" y="1233" type="line"/>
    </contour>
    <contour>
      <point x="-90" y="-258" type="line"/>
      <point x="34" y="-247"/>
      <point x="153" y="-188"/>
      <point x="215" y="-102" type="qcurve" smooth="yes"/>
      <point x="274" y="-23" type="line"/>
      <point x="96" y="1073" type="line"/>
      <point x="377" y="1073" type="line"/>
      <point x="469" y="238" type="line"/>
      <point x="539" y="352" type="line" smooth="yes"/>
      <point x="665" y="561"/>
      <point x="803" y="886"/>
      <point x="846" y="1073" type="qcurve"/>
      <point x="1112" y="1073" type="line"/>
      <point x="1056" y="874"/>
      <point x="891" y="536"/>
      <point x="690" y="211" type="qcurve" smooth="yes"/>
      <point x="526" y="-53" type="line" smooth="yes"/>
      <point x="384" y="-282"/>
      <point x="124" y="-466"/>
      <point x="-57" y="-469" type="qcurve"/>
    </contour>
  </outline>
</glyph>
<glyph name="Amacron" format="2">
  <advance width="1320"/>
  <unicode hex="0100"/>
  <anchor x="0" y="0" name="Anchor-11"/>
  <anchor x="0" y="0" name="Anchor-10"/>
  <anchor x="934" y="1845" name="Anchor-9"/>
  <anchor x="1184" y="0" name="Anchor-8"/>
  <anchor x="547" y="0" name="Anchor-7"/>
  <outline>
    <contour>
      <point x="602" y="1675" type="line"/>
      <point x="639" y="1845" type="line"/>
      <point x="1227" y="1845" type="line"/>
      <point x="1190" y="1675" type="line"/>
    </contour>
    <contour>
      <point x="721" y="1454" type="line"/>
      <point x="973" y="1454" type="line"/>
      <point x="1184" y="0" type="line"/>
      <point x="893" y="0" type="line"/>
      <point x="848" y="362" type="line"/>
      <point x="379" y="362" type="line"/>
      <point x="182" y="0" type="line"/>
      <point x="-109" y="0" type="line"/>
    </contour>
    <contour>
      <point x="842" y="561" type="line"/>
      <point x="778" y="1133" type="line"/>
      <point x="467" y="561" type="line"/>
    </contour>
  </outline>
</glyph>
<glyph name="abreve" format="2">
  <advance width="1277"/>
  <unicode hex="0103"/>
  <anchor x="0" y="0" name="Anchor-11"/>
  <anchor x="0" y="0" name="Anchor-10"/>
  <anchor x="842" y="1495" name="Anchor-9"/>
  <anchor x="1063" y="0" name="Anchor-8"/>
  <anchor x="526" y="0" name="Anchor-7"/>
  <outline>
    <contour>
      <point x="954" y="1495" type="qcurve"/>
      <point x="1102" y="1495" type="line"/>
      <point x="1076" y="1376"/>
      <point x="894" y="1221"/>
      <point x="782" y="1221" type="qcurve" smooth="yes"/>
      <point x="683" y="1221"/>
      <point x="569" y="1334"/>
      <point x="569" y="1427" type="qcurve" smooth="yes"/>
      <point x="569" y="1460"/>
      <point x="578" y="1495" type="qcurve"/>
      <point x="725" y="1495" type="line"/>
      <point x="719" y="1474"/>
      <point x="719" y="1454" type="qcurve" smooth="yes"/>
      <point x="719" y="1408"/>
      <point x="769" y="1343"/>
      <point x="807" y="1343" type="qcurve" smooth="yes"/>
      <point x="850" y="1343"/>
      <point x="934" y="1429"/>
    </contour>
    <contour>
      <point x="31" y="420" type="qcurve" smooth="yes"/>
      <point x="31" y="550"/>
      <point x="128" y="798"/>
      <point x="287" y="981"/>
      <point x="504" y="1092"/>
      <point x="618" y="1092" type="qcurve" smooth="yes"/>
      <point x="726" y="1092"/>
      <point x="883" y="978"/>
      <point x="913" y="885" type="qcurve"/>
      <point x="954" y="1069" type="line"/>
      <point x="1229" y="1069" type="line"/>
      <point x="1069" y="315" type="line" smooth="yes"/>
      <point x="1063" y="294"/>
      <point x="1063" y="279" type="qcurve" smooth="yes"/>
      <point x="1063" y="236"/>
      <point x="1112" y="233" type="qcurve"/>
      <point x="1063" y="0" type="line"/>
      <point x="977" y="-14"/>
      <point x="950" y="-14" type="qcurve" smooth="yes"/>
      <point x="877" y="-14"/>
      <point x="795" y="49"/>
      <point x="795" y="109" type="qcurve" smooth="yes"/>
      <point x="795" y="134"/>
      <point x="807" y="186" type="qcurve"/>
      <point x="732" y="87"/>
      <point x="521" y="-20"/>
      <point x="412" y="-20" type="qcurve" smooth="yes"/>
      <point x="238" y="-20"/>
      <point x="31" y="229"/>
    </contour>
    <contour>
      <point x="811" y="393" type="qcurve"/>
      <point x="864" y="649" type="line"/>
      <point x="852" y="738"/>
      <point x="732" y="858"/>
      <point x="655" y="858" type="qcurve" smooth="yes"/>
      <point x="569" y="858"/>
      <point x="412" y="743"/>
      <point x="319" y="560"/>
      <point x="319" y="463" type="qcurve" smooth="yes"/>
      <point x="319" y="355"/>
      <point x="437" y="213"/>
      <point x="535" y="213" type="qcurve" smooth="yes"/>
      <point x="607" y="213"/>
      <point x="767" y="316"/>
    </contour>
  </outline>
</glyph>
<glyph name="Aogonek" format="2">
  <advance width="1320"/>
  <unicode hex="0104"/>
  <anchor x="0" y="0" name="Anchor-11"/>
  <anchor x="0" y="0" name="Anchor-10"/>
  <anchor x="850" y="1454" name="Anchor-9"/>
  <anchor x="1184" y="0" name="Anchor-8"/>
  <anchor x="547" y="0" name="Anchor-7"/>
  <outline>
    <contour>
      <point x="1024" y="-193" type="qcurve" smooth="yes"/>
      <point x="1024" y="-251"/>
      <point x="1116" y="-254" type="qcurve"/>
      <point x="1028" y="-410" type="line"/>
      <point x="939" y="-399"/>
      <point x="846" y="-312"/>
      <point x="846" y="-254" type="qcurve" smooth="yes"/>
      <point x="846" y="-122"/>
      <point x="1020" y="0" type="qcurve"/>
      <point x="893" y="0" type="line"/>
      <point x="848" y="362" type="line"/>
      <point x="379" y="362" type="line"/>
      <point x="182" y="0" type="line"/>
      <point x="-109" y="0" type="line"/>
      <point x="721" y="1454" type="line"/>
      <point x="973" y="1454" type="line"/>
      <point x="1184" y="0" type="line"/>
      <point x="1103" y="-63"/>
      <point x="1024" y="-155"/>
    </contour>
    <contour>
      <point x="467" y="561" type="line"/>
      <point x="842" y="561" type="line"/>
      <point x="778" y="1133" type="line"/>
    </contour>
  </outline>
</glyph>
<glyph name="aogonek" format="2">
  <advance width="1277"/>
  <unicode hex="0105"/>
  <anchor x="0" y="0" name="Anchor-11"/>
  <anchor x="0" y="0" name="Anchor-10"/>
  <anchor x="752" y="1073" name="Anchor-9"/>
  <anchor x="1063" y="0" name="Anchor-8"/>
  <anchor x="526" y="0" name="Anchor-7"/>
  <outline>
    <contour>
      <point x="1063" y="279" type="qcurve" smooth="yes"/>
      <point x="1063" y="236"/>
      <point x="1112" y="233" type="qcurve"/>
      <point x="1063" y="0" type="line"/>
      <point x="982" y="-63"/>
      <point x="903" y="-155"/>
      <point x="903" y="-193" type="qcurve" smooth="yes"/>
      <point x="903" y="-251"/>
      <point x="995" y="-254" type="qcurve"/>
      <point x="907" y="-410" type="line"/>
      <point x="818" y="-399"/>
      <point x="725" y="-312"/>
      <point x="725" y="-254" type="qcurve" smooth="yes"/>
      <point x="725" y="-128"/>
      <point x="889" y="-8" type="qcurve"/>
      <point x="795" y="17"/>
      <point x="795" y="109" type="qcurve" smooth="yes"/>
      <point x="795" y="134"/>
      <point x="807" y="186" type="qcurve"/>
      <point x="732" y="87"/>
      <point x="521" y="-20"/>
      <point x="412" y="-20" type="qcurve" smooth="yes"/>
      <point x="238" y="-20"/>
      <point x="31" y="229"/>
      <point x="31" y="420" type="qcurve" smooth="yes"/>
      <point x="31" y="550"/>
      <point x="128" y="798"/>
      <point x="287" y="981"/>
      <point x="504" y="1092"/>
      <point x="618" y="1092" type="qcurve" smooth="yes"/>
      <point x="726" y="1092"/>
      <point x="883" y="978"/>
      <point x="913" y="885" type="qcurve"/>
      <point x="954" y="1069" type="line"/>
      <point x="1229" y="1069" type="line"/>
      <point x="1069" y="315" type="line" smooth="yes"/>
      <point x="1063" y="294"/>
    </contour>
    <contour>
      <point x="811" y="393" type="qcurve"/>
      <point x="864" y="649" type="line"/>
      <point x="852" y="738"/>
      <point x="732" y="858"/>
      <point x="655" y="858" type="qcurve" smooth="yes"/>
      <point x="569" y="858"/>
      <point x="412" y="743"/>
      <point x="319" y="560"/>
      <point x="319" y="463" type="qcurve" smooth="yes"/>
      <point x="319" y="355"/>
      <point x="437" y="213"/>
      <point x="535" y="213" type="qcurve" smooth="yes"/>
      <point x="607" y="213"/>
      <point x="767" y="316"/>
    </contour>
  </outline>
</glyph>
<glyph name="Cacute" format="2">
  <advance width="1347"/>
  <unicode hex="0106"/>
  <anchor x="0" y="0" name="Anchor-11"/>
  <anchor x="0" y="0" name="Anchor-10"/>
  <anchor x="1018" y="1880" name="Anchor-9"/>
  <anchor x="0" y="0" name="Anchor-8"/>
  <anchor x="561" y="0" name="Anchor-7"/>
  <outline>
    <contour>
      <point x="981" y="1602" type="line"/>
      <point x="803" y="1636" type="line"/>
      <point x="958" y="1880" type="line"/>
      <point x="1212" y="1880" type="line"/>
    </contour>
    <contour>
      <point x="76" y="600" type="qcurve" smooth="yes"/>
      <point x="76" y="722"/>
      <point x="155" y="970"/>
      <point x="306" y="1190"/>
      <point x="508" y="1362"/>
      <point x="775" y="1462"/>
      <point x="920" y="1462" type="qcurve" smooth="yes"/>
      <point x="1114" y="1462"/>
      <point x="1363" y="1289"/>
      <point x="1403" y="1145" type="qcurve"/>
      <point x="1161" y="999" type="line"/>
      <point x="1112" y="1212"/>
      <point x="868" y="1212" type="qcurve" smooth="yes"/>
      <point x="770" y="1212"/>
      <point x="602" y="1140"/>
      <point x="485" y="1021"/>
      <point x="401" y="867"/>
      <point x="362" y="705"/>
      <point x="362" y="625" type="qcurve" smooth="yes"/>
      <point x="362" y="459"/>
      <point x="526" y="238"/>
      <point x="672" y="238" type="qcurve" smooth="yes"/>
      <point x="775" y="238"/>
      <point x="981" y="349"/>
      <point x="1047" y="459" type="qcurve"/>
      <point x="1249" y="326" type="line"/>
      <point x="1151" y="167"/>
      <point x="793" y="-12"/>
      <point x="616" y="-12" type="qcurve" smooth="yes"/>
      <point x="513" y="-12"/>
      <point x="337" y="55"/>
      <point x="210" y="172"/>
      <point x="120" y="328"/>
      <point x="76" y="506"/>
    </contour>
  </outline>
</glyph>
<glyph name="cacute" format="2">
  <advance width="1110"/>
  <unicode hex="0107"/>
  <anchor x="0" y="0" name="Anchor-11"/>
  <anchor x="0" y="0" name="Anchor-10"/>
  <anchor x="852" y="1495" name="Anchor-9"/>
  <anchor x="0" y="0" name="Anchor-8"/>
  <anchor x="492" y="0" name="Anchor-7"/>
  <outline>
    <contour>
      <point x="815" y="1217" type="line"/>
      <point x="637" y="1251" type="line"/>
      <point x="793" y="1495" type="line"/>
      <point x="1047" y="1495" type="line"/>
    </contour>
    <contour>
      <point x="31" y="432" type="qcurve" smooth="yes"/>
      <point x="31" y="558"/>
      <point x="131" y="797"/>
      <point x="304" y="981"/>
      <point x="557" y="1092"/>
      <point x="700" y="1092" type="qcurve" smooth="yes"/>
      <point x="865" y="1092"/>
      <point x="1075" y="944"/>
      <point x="1108" y="817" type="qcurve"/>
      <point x="825" y="735" type="line"/>
      <point x="780" y="858"/>
      <point x="651" y="858" type="qcurve" smooth="yes"/>
      <point x="519" y="858"/>
      <point x="315" y="629"/>
      <point x="315" y="465" type="qcurve" smooth="yes"/>
      <point x="315" y="352"/>
      <point x="425" y="213"/>
      <point x="514" y="213" type="qcurve" smooth="yes"/>
      <point x="579" y="213"/>
      <point x="707" y="285"/>
      <point x="743" y="340" type="qcurve"/>
      <point x="993" y="258" type="line"/>
      <point x="911" y="133"/>
      <point x="632" y="-20"/>
      <point x="469" y="-20" type="qcurve" smooth="yes"/>
      <point x="261" y="-20"/>
      <point x="31" y="237"/>
    </contour>
  </outline>
</glyph>
<glyph name="ccaron" format="2">
  <advance width="1110"/>
  <unicode hex="010D"/>
  <anchor x="0" y="0" name="Anchor-11"/>
  <anchor x="0" y="0" name="Anchor-10"/>
  <anchor x="791" y="1491" name="Anchor-9"/>
  <anchor x="0" y="0" name="Anchor-8"/>
  <anchor x="492" y="0" name="Anchor-7"/>
  <outline>
    <contour>
      <point x="461" y="1425" type="line"/>
      <point x="616" y="1491" type="line"/>
      <point x="754" y="1362" type="line"/>
      <point x="946" y="1491" type="line"/>
      <point x="1075" y="1425" type="line"/>
      <point x="821" y="1219" type="line"/>
      <point x="625" y="1219" type="line"/>
    </contour>
    <contour>
      <point x="31" y="432" type="qcurve" smooth="yes"/>
      <point x="31" y="558"/>
      <point x="131" y="797"/>
      <point x="304" y="981"/>
      <point x="557" y="1092"/>
      <point x="700" y="1092" type="qcurve" smooth="yes"/>
      <point x="865" y="1092"/>
      <point x="1075" y="944"/>
      <point x="1108" y="817" type="qcurve"/>
      <point x="825" y="735" type="line"/>
      <point x="780" y="858"/>
      <point x="651" y="858" type="qcurve" smooth="yes"/>
      <point x="519" y="858"/>
      <point x="315" y="629"/>
      <point x="315" y="465" type="qcurve" smooth="yes"/>
      <point x="315" y="352"/>
      <point x="425" y="213"/>
      <point x="514" y="213" type="qcurve" smooth="yes"/>
      <point x="579" y="213"/>
      <point x="707" y="285"/>
      <point x="743" y="340" type="qcurve"/>
      <point x="993" y="258" type="line"/>
      <point x="911" y="133"/>
      <point x="632" y="-20"/>
      <point x="469" y="-20" type="qcurve" smooth="yes"/>
      <point x="261" y="-20"/>
      <point x="31" y="237"/>
    </contour>
  </outline>
</glyph>
<glyph name="Dcroat" format="2">
  <advance width="1429"/>
  <unicode hex="0110"/>
  <outline>
    <contour>
      <point x="846" y="1454" type="line" smooth="yes"/>
      <point x="983" y="1454"/>
      <point x="1196" y="1367"/>
      <point x="1328" y="1213"/>
      <point x="1395" y="1011"/>
      <point x="1395" y="891" type="qcurve" smooth="yes"/>
      <point x="1395" y="702"/>
      <point x="1264" y="371"/>
      <point x="1038" y="135"/>
      <point x="719" y="0"/>
      <point x="537" y="0" type="qcurve" smooth="yes"/>
      <point x="31" y="0" type="line"/>
      <point x="164" y="629" type="line"/>
      <point x="74" y="629" type="line"/>
      <point x="117" y="834" type="line"/>
      <point x="209" y="834" type="line"/>
      <point x="340" y="1454" type="line"/>
    </contour>
    <contour>
      <point x="590" y="248" type="line" smooth="yes"/>
      <point x="704" y="248"/>
      <point x="899" y="347"/>
      <point x="1031" y="512"/>
      <point x="1106" y="731"/>
      <point x="1106" y="850" type="qcurve" smooth="yes"/>
      <point x="1106" y="1012"/>
      <point x="943" y="1206"/>
      <point x="793" y="1206" type="qcurve" smooth="yes"/>
      <point x="569" y="1206" type="line"/>
      <point x="489" y="834" type="line"/>
      <point x="756" y="834" type="line"/>
      <point x="711" y="629" type="line"/>
      <point x="446" y="629" type="line"/>
      <point x="365" y="248" type="line"/>
    </contour>
  </outline>
</glyph>
<glyph name="Edot" format="2">
  <advance width="1183"/>
  <unicode hex="0116"/>
  <anchor x="0" y="0" name="Anchor-11"/>
  <anchor x="0" y="0" name="Anchor-10"/>
  <anchor x="874" y="1876" name="Anchor-9"/>
  <anchor x="981" y="0" name="Anchor-8"/>
  <anchor x="479" y="0" name="Anchor-7"/>
  <outline>
    <contour>
      <point x="696" y="1618" type="line"/>
      <point x="754" y="1876" type="line"/>
      <point x="999" y="1876" type="line"/>
      <point x="944" y="1618" type="line"/>
    </contour>
    <contour>
      <point x="330" y="1454" type="line"/>
      <point x="1272" y="1454" type="line"/>
      <point x="1221" y="1206" type="line"/>
      <point x="557" y="1206" type="line"/>
      <point x="483" y="856" type="line"/>
      <point x="1055" y="856" type="line"/>
      <point x="1006" y="627" type="line"/>
      <point x="434" y="627" type="line"/>
      <point x="354" y="248" type="line"/>
      <point x="1034" y="248" type="line"/>
      <point x="981" y="0" type="line"/>
      <point x="20" y="0" type="line"/>
    </contour>
  </outline>
</glyph>
<glyph name="Eogonek" format="2">
  <advance width="1183"/>
  <unicode hex="0118"/>
  <anchor x="0" y="0" name="Anchor-11"/>
  <anchor x="0" y="0" name="Anchor-10"/>
  <anchor x="786" y="1454" name="Anchor-9"/>
  <anchor x="981" y="0" name="Anchor-8"/>
  <anchor x="479" y="0" name="Anchor-7"/>
  <outline>
    <contour>
      <point x="1221" y="1206" type="line"/>
      <point x="557" y="1206" type="line"/>
      <point x="483" y="856" type="line"/>
      <point x="1055" y="856" type="line"/>
      <point x="1006" y="627" type="line"/>
      <point x="434" y="627" type="line"/>
      <point x="354" y="248" type="line"/>
      <point x="1034" y="248" type="line"/>
      <point x="981" y="0" type="line"/>
      <point x="900" y="-63"/>
      <point x="821" y="-155"/>
      <point x="821" y="-193" type="qcurve" smooth="yes"/>
      <point x="821" y="-251"/>
      <point x="913" y="-254" type="qcurve"/>
      <point x="825" y="-410" type="line"/>
      <point x="736" y="-399"/>
      <point x="643" y="-312"/>
      <point x="643" y="-254" type="qcurve" smooth="yes"/>
      <point x="643" y="-122"/>
      <point x="817" y="0" type="qcurve"/>
      <point x="20" y="0" type="line"/>
      <point x="330" y="1454" type="line"/>
      <point x="1272" y="1454" type="line"/>
    </contour>
  </outline>
</glyph>
<glyph name="eogonek" format="2">
  <advance width="1128"/>
  <unicode hex="0119"/>
  <anchor x="0" y="0" name="Anchor-11"/>
  <anchor x="0" y="0" name="Anchor-10"/>
  <anchor x="702" y="1069" name="Anchor-9"/>
  <anchor x="629" y="0" name="Anchor-8"/>
  <anchor x="471" y="0" name="Anchor-7"/>
  <outline>
    <contour>
      <point x="473" y="446" type="qcurve" smooth="yes"/>
      <point x="458" y="446"/>
      <point x="315" y="451" type="qcurve"/>
      <point x="315" y="424" type="line" smooth="yes"/>
      <point x="315" y="312"/>
      <point x="418" y="180"/>
      <point x="520" y="180" type="qcurve" smooth="yes"/>
      <point x="602" y="180"/>
      <point x="748" y="259"/>
      <point x="791" y="328" type="qcurve"/>
      <point x="1008" y="260" type="line"/>
      <point x="945" y="166"/>
      <point x="746" y="29"/>
      <point x="629" y="0" type="qcurve"/>
      <point x="548" y="-63"/>
      <point x="469" y="-155"/>
      <point x="469" y="-193" type="qcurve" smooth="yes"/>
      <point x="469" y="-251"/>
      <point x="561" y="-254" type="qcurve"/>
      <point x="473" y="-410" type="line"/>
      <point x="384" y="-399"/>
      <point x="291" y="-312"/>
      <point x="291" y="-254" type="qcurve" smooth="yes"/>
      <point x="291" y="-134"/>
      <point x="438" y="-20" type="qcurve"/>
      <point x="250" y="-8"/>
      <point x="33" y="241"/>
      <point x="33" y="434" type="qcurve" smooth="yes"/>
      <point x="33" y="565"/>
      <point x="138" y="807"/>
      <point x="316" y="985"/>
      <point x="569" y="1092"/>
      <point x="709" y="1092" type="qcurve" smooth="yes"/>
      <point x="885" y="1092"/>
      <point x="1092" y="935"/>
      <point x="1092" y="793" type="qcurve" smooth="yes"/>
      <point x="1092" y="446"/>
    </contour>
    <contour>
      <point x="670" y="893" type="qcurve" smooth="yes"/>
      <point x="556" y="893"/>
      <point x="391" y="744"/>
      <point x="348" y="625" type="qcurve"/>
      <point x="434" y="621"/>
      <point x="475" y="621" type="qcurve" smooth="yes"/>
      <point x="666" y="621"/>
      <point x="831" y="699"/>
      <point x="831" y="774" type="qcurve" smooth="yes"/>
      <point x="831" y="831"/>
      <point x="744" y="893"/>
    </contour>
  </outline>
</glyph>
<glyph name="Gcedilla" format="2">
  <advance width="1427"/>
  <unicode hex="0122"/>
  <anchor x="0" y="0" name="Anchor-11"/>
  <anchor x="0" y="0" name="Anchor-10"/>
  <anchor x="926" y="1450" name="Anchor-9"/>
  <anchor x="0" y="0" name="Anchor-8"/>
  <anchor x="629" y="0" name="Anchor-7"/>
  <outline>
    <contour>
      <point x="815" y="541" type="line"/>
      <point x="860" y="748" type="line"/>
      <point x="1370" y="748" type="line"/>
      <point x="1210" y="0" type="line"/>
      <point x="977" y="0" type="line"/>
      <point x="1012" y="164" type="line"/>
      <point x="808" y="-10"/>
      <point x="596" y="-10" type="qcurve" smooth="yes"/>
      <point x="444" y="-10"/>
      <point x="206" y="147"/>
      <point x="76" y="419"/>
      <point x="76" y="588" type="qcurve" smooth="yes"/>
      <point x="76" y="760"/>
      <point x="220" y="1084"/>
      <point x="455" y="1321"/>
      <point x="767" y="1464"/>
      <point x="928" y="1464" type="qcurve" smooth="yes"/>
      <point x="1118" y="1464"/>
      <point x="1366" y="1295"/>
      <point x="1407" y="1147" type="qcurve"/>
      <point x="1163" y="991" type="line"/>
      <point x="1136" y="1097"/>
      <point x="976" y="1214"/>
      <point x="866" y="1214" type="qcurve" smooth="yes"/>
      <point x="767" y="1214"/>
      <point x="581" y="1113"/>
      <point x="446" y="948"/>
      <point x="365" y="730"/>
      <point x="365" y="618" type="qcurve" smooth="yes"/>
      <point x="365" y="453"/>
      <point x="532" y="240"/>
      <point x="674" y="240" type="qcurve" smooth="yes"/>
      <point x="871" y="240"/>
      <point x="1069" y="438" type="qcurve"/>
      <point x="1092" y="541" type="line"/>
    </contour>
    <contour>
      <point x="451" y="-289" type="line"/>
      <point x="492" y="-96" type="line"/>
      <point x="723" y="-96" type="line"/>
      <point x="682" y="-289" type="line"/>
      <point x="569" y="-436" type="line"/>
      <point x="444" y="-436" type="line"/>
      <point x="532" y="-289" type="line"/>
    </contour>
  </outline>
</glyph>
<glyph name="Hcircumflex" format="2">
  <advance width="1470"/>
  <unicode hex="0124"/>
  <anchor x="0" y="0" name="Anchor-11"/>
  <anchor x="776" y="727" name="Anchor-10"/>
  <anchor x="1006" y="1876" name="Anchor-9"/>
  <anchor x="0" y="0" name="Anchor-8"/>
  <anchor x="623" y="0" name="Anchor-7"/>
  <outline>
    <contour>
      <point x="668" y="1669" type="line"/>
      <point x="922" y="1876" type="line"/>
      <point x="1118" y="1876" type="line"/>
      <point x="1284" y="1669" type="line"/>
      <point x="1126" y="1604" type="line"/>
      <point x="989" y="1733" type="line"/>
      <point x="797" y="1604" type="line"/>
    </contour>
    <contour>
      <point x="330" y="1454" type="line"/>
      <point x="610" y="1454" type="line"/>
      <point x="485" y="866" type="line"/>
      <point x="1092" y="866" type="line"/>
      <point x="1217" y="1454" type="line"/>
      <point x="1497" y="1454" type="line"/>
      <point x="1188" y="0" type="line"/>
      <point x="907" y="0" type="line"/>
      <point x="1038" y="621" type="line"/>
      <point x="432" y="621" type="line"/>
      <point x="301" y="0" type="line"/>
      <point x="20" y="0" type="line"/>
    </contour>
  </outline>
</glyph>
<glyph name="hcircumflex" format="2">
  <advance width="1191"/>
  <unicode hex="0125"/>
  <anchor x="0" y="0" name="Anchor-11"/>
  <anchor x="598" y="537" name="Anchor-10"/>
  <anchor x="866" y="1872" name="Anchor-9"/>
  <anchor x="0" y="0" name="Anchor-8"/>
  <anchor x="483" y="0" name="Anchor-7"/>
  <outline>
    <contour>
      <point x="553" y="1667" type="line"/>
      <point x="788" y="1872" type="line"/>
      <point x="971" y="1872" type="line"/>
      <point x="1124" y="1667" type="line"/>
      <point x="977" y="1602" type="line"/>
      <point x="850" y="1731" type="line"/>
      <point x="672" y="1602" type="line"/>
    </contour>
    <contour>
      <point x="309" y="1495" type="line"/>
      <point x="584" y="1495" type="line"/>
      <point x="451" y="874" type="line"/>
      <point x="531" y="977"/>
      <point x="745" y="1092"/>
      <point x="860" y="1092" type="qcurve" smooth="yes"/>
      <point x="1112" y="1092"/>
      <point x="1112" y="840" type="qcurve" smooth="yes"/>
      <point x="1112" y="765"/>
      <point x="1092" y="670" type="qcurve" smooth="yes"/>
      <point x="950" y="0" type="line"/>
      <point x="676" y="0" type="line"/>
      <point x="803" y="602" type="line" smooth="yes"/>
      <point x="815" y="660"/>
      <point x="815" y="702" type="qcurve" smooth="yes"/>
      <point x="815" y="850"/>
      <point x="690" y="850" type="qcurve" smooth="yes"/>
      <point x="621" y="850"/>
      <point x="447" y="722"/>
      <point x="399" y="627" type="qcurve"/>
      <point x="266" y="0" type="line"/>
      <point x="-8" y="0" type="line"/>
    </contour>
  </outline>
</glyph>
<glyph name="Hbar" format="2">
  <advance width="1486"/>
  <unicode hex="0126"/>
  <outline>
    <contour>
      <point x="1561" y="1247" type="line"/>
      <point x="1532" y="1112" type="line"/>
      <point x="1434" y="1112" type="line"/>
      <point x="1198" y="0" type="line"/>
      <point x="918" y="0" type="line"/>
      <point x="1049" y="621" type="line"/>
      <point x="442" y="621" type="line"/>
      <point x="311" y="0" type="line"/>
      <point x="29" y="0" type="line"/>
      <point x="264" y="1112" type="line"/>
      <point x="168" y="1112" type="line"/>
      <point x="197" y="1247" type="line"/>
      <point x="295" y="1247" type="line"/>
      <point x="338" y="1454" type="line"/>
      <point x="621" y="1454" type="line"/>
      <point x="578" y="1247" type="line"/>
      <point x="1184" y="1247" type="line"/>
      <point x="1227" y="1454" type="line"/>
      <point x="1507" y="1454" type="line"/>
      <point x="1464" y="1247" type="line"/>
    </contour>
    <contour>
      <point x="1102" y="866" type="line"/>
      <point x="1155" y="1112" type="line"/>
      <point x="549" y="1112" type="line"/>
      <point x="496" y="866" type="line"/>
    </contour>
  </outline>
</glyph>
<glyph name="hbar" format="2">
  <advance width="1191"/>
  <unicode hex="0127"/>
  <anchor x="0" y="0" name="Anchor-11"/>
  <anchor x="598" y="537" name="Anchor-10"/>
  <anchor x="795" y="1454" name="Anchor-9"/>
  <anchor x="0" y="0" name="Anchor-8"/>
  <anchor x="483" y="0" name="Anchor-7"/>
  <outline>
    <contour>
      <point x="860" y="1092" type="qcurve" smooth="yes"/>
      <point x="1112" y="1092"/>
      <point x="1112" y="840" type="qcurve" smooth="yes"/>
      <point x="1112" y="765"/>
      <point x="1092" y="670" type="qcurve" smooth="yes"/>
      <point x="950" y="0" type="line"/>
      <point x="676" y="0" type="line"/>
      <point x="803" y="602" type="line" smooth="yes"/>
      <point x="815" y="660"/>
      <point x="815" y="702" type="qcurve" smooth="yes"/>
      <point x="815" y="850"/>
      <point x="690" y="850" type="qcurve" smooth="yes"/>
      <point x="621" y="850"/>
      <point x="447" y="722"/>
      <point x="399" y="627" type="qcurve"/>
      <point x="266" y="0" type="line"/>
      <point x="-8" y="0" type="line"/>
      <point x="248" y="1210" type="line"/>
      <point x="127" y="1210" type="line"/>
      <point x="162" y="1374" type="line"/>
      <point x="283" y="1374" type="line"/>
      <point x="309" y="1495" type="line"/>
      <point x="584" y="1495" type="line"/>
      <point x="557" y="1374" type="line"/>
      <point x="750" y="1374" type="line"/>
      <point x="715" y="1210" type="line"/>
      <point x="522" y="1210" type="line"/>
      <point x="451" y="874" type="line"/>
      <point x="531" y="977"/>
      <point x="745" y="1092"/>
    </contour>
  </outline>
</glyph>
<glyph name="Itilde" format="2">
  <advance width="583"/>
  <unicode hex="0128"/>
  <anchor x="0" y="0" name="Anchor-11"/>
  <anchor x="0" y="0" name="Anchor-10"/>
  <anchor x="567" y="1876" name="Anchor-9"/>
  <anchor x="301" y="0" name="Anchor-8"/>
  <anchor x="168" y="0" name="Anchor-7"/>
  <outline>
    <contour>
      <point x="403" y="1706" type="qcurve" smooth="yes"/>
      <point x="378" y="1706"/>
      <point x="337" y="1687"/>
      <point x="314" y="1660"/>
      <point x="297" y="1630"/>
      <point x="291" y="1611"/>
      <point x="291" y="1608" type="qcurve"/>
      <point x="139" y="1608" type="line"/>
      <point x="142" y="1625"/>
      <point x="169" y="1684"/>
      <point x="221" y="1760"/>
      <point x="286" y="1825"/>
      <point x="379" y="1870"/>
      <point x="428" y="1870" type="qcurve" smooth="yes"/>
      <point x="468" y="1870"/>
      <point x="537" y="1840"/>
      <point x="577" y="1804"/>
      <point x="634" y="1774"/>
      <point x="664" y="1774" type="qcurve" smooth="yes"/>
      <point x="696" y="1774"/>
      <point x="748" y="1802"/>
      <point x="776" y="1843"/>
      <point x="789" y="1869"/>
      <point x="791" y="1876" type="qcurve"/>
      <point x="940" y="1876" type="line"/>
      <point x="937" y="1862"/>
      <point x="910" y="1805"/>
      <point x="856" y="1729"/>
      <point x="789" y="1661"/>
      <point x="692" y="1614"/>
      <point x="641" y="1614" type="qcurve" smooth="yes"/>
      <point x="601" y="1614"/>
      <point x="531" y="1643"/>
      <point x="488" y="1677"/>
      <point x="431" y="1706"/>
    </contour>
    <contour>
      <point x="330" y="1452" type="line"/>
      <point x="610" y="1452" type="line"/>
      <point x="301" y="0" type="line"/>
      <point x="20" y="0" type="line"/>
    </contour>
  </outline>
</glyph>
<glyph name="itilde" format="2">
  <advance width="518"/>
  <unicode hex="0129"/>
  <anchor x="0" y="0" name="Anchor-11"/>
  <anchor x="0" y="0" name="Anchor-10"/>
  <anchor x="541" y="1479" name="Anchor-9"/>
  <anchor x="352" y="20" name="Anchor-8"/>
  <anchor x="127" y="0" name="Anchor-7"/>
  <outline>
    <contour>
      <point x="377" y="1309" type="qcurve" smooth="yes"/>
      <point x="352" y="1309"/>
      <point x="311" y="1289"/>
      <point x="287" y="1262"/>
      <point x="270" y="1232"/>
      <point x="264" y="1213"/>
      <point x="264" y="1210" type="qcurve"/>
      <point x="113" y="1210" type="line"/>
      <point x="116" y="1228"/>
      <point x="143" y="1287"/>
      <point x="195" y="1363"/>
      <point x="259" y="1428"/>
      <point x="352" y="1473"/>
      <point x="401" y="1473" type="qcurve" smooth="yes"/>
      <point x="441" y="1473"/>
      <point x="510" y="1443"/>
      <point x="550" y="1406"/>
      <point x="607" y="1376"/>
      <point x="637" y="1376" type="qcurve" smooth="yes"/>
      <point x="669" y="1376"/>
      <point x="721" y="1405"/>
      <point x="749" y="1446"/>
      <point x="762" y="1472"/>
      <point x="764" y="1479" type="qcurve"/>
      <point x="913" y="1479" type="line"/>
      <point x="910" y="1465"/>
      <point x="883" y="1408"/>
      <point x="829" y="1332"/>
      <point x="762" y="1264"/>
      <point x="665" y="1217"/>
      <point x="614" y="1217" type="qcurve" smooth="yes"/>
      <point x="574" y="1217"/>
      <point x="504" y="1246"/>
      <point x="462" y="1280"/>
      <point x="405" y="1309"/>
    </contour>
    <contour>
      <point x="219" y="1073" type="line"/>
      <point x="494" y="1073" type="line"/>
      <point x="266" y="0" type="line"/>
      <point x="-8" y="0" type="line"/>
    </contour>
  </outline>
</glyph>
<glyph name="Imacron" format="2">
  <advance width="583"/>
  <unicode hex="012A"/>
  <anchor x="0" y="0" name="Anchor-11"/>
  <anchor x="0" y="0" name="Anchor-10"/>
  <anchor x="561" y="1845" name="Anchor-9"/>
  <anchor x="301" y="0" name="Anchor-8"/>
  <anchor x="168" y="0" name="Anchor-7"/>
  <outline>
    <contour>
      <point x="229" y="1675" type="line"/>
      <point x="266" y="1845" type="line"/>
      <point x="854" y="1845" type="line"/>
      <point x="817" y="1675" type="line"/>
    </contour>
    <contour>
      <point x="330" y="1452" type="line"/>
      <point x="610" y="1452" type="line"/>
      <point x="301" y="0" type="line"/>
      <point x="20" y="0" type="line"/>
    </contour>
  </outline>
</glyph>
<glyph name="imacron" format="2">
  <advance width="518"/>
  <unicode hex="012B"/>
  <anchor x="0" y="0" name="Anchor-11"/>
  <anchor x="0" y="0" name="Anchor-10"/>
  <anchor x="438" y="1464" name="Anchor-9"/>
  <anchor x="352" y="20" name="Anchor-8"/>
  <anchor x="127" y="0" name="Anchor-7"/>
  <outline>
    <contour>
      <point x="106" y="1294" type="line"/>
      <point x="143" y="1464" type="line"/>
      <point x="731" y="1464" type="line"/>
      <point x="694" y="1294" type="line"/>
    </contour>
    <contour>
      <point x="219" y="1073" type="line"/>
      <point x="494" y="1073" type="line"/>
      <point x="266" y="0" type="line"/>
      <point x="-8" y="0" type="line"/>
    </contour>
  </outline>
</glyph>
<glyph name="Ibreve" format="2">
  <advance width="583"/>
  <unicode hex="012C"/>
  <anchor x="0" y="0" name="Anchor-11"/>
  <anchor x="0" y="0" name="Anchor-10"/>
  <anchor x="567" y="1876" name="Anchor-9"/>
  <anchor x="301" y="0" name="Anchor-8"/>
  <anchor x="168" y="0" name="Anchor-7"/>
  <outline>
    <contour>
      <point x="680" y="1876" type="qcurve"/>
      <point x="827" y="1876" type="line"/>
      <point x="801" y="1757"/>
      <point x="620" y="1602"/>
      <point x="508" y="1602" type="qcurve" smooth="yes"/>
      <point x="409" y="1602"/>
      <point x="295" y="1715"/>
      <point x="295" y="1808" type="qcurve" smooth="yes"/>
      <point x="295" y="1845"/>
      <point x="303" y="1876" type="qcurve"/>
      <point x="451" y="1876" type="line"/>
      <point x="444" y="1852"/>
      <point x="444" y="1835" type="qcurve" smooth="yes"/>
      <point x="444" y="1789"/>
      <point x="494" y="1724"/>
      <point x="532" y="1724" type="qcurve" smooth="yes"/>
      <point x="575" y="1724"/>
      <point x="660" y="1810"/>
    </contour>
    <contour>
      <point x="330" y="1452" type="line"/>
      <point x="610" y="1452" type="line"/>
      <point x="301" y="0" type="line"/>
      <point x="20" y="0" type="line"/>
    </contour>
  </outline>
</glyph>
<glyph name="ibreve" format="2">
  <advance width="518"/>
  <unicode hex="012D"/>
  <anchor x="0" y="0" name="Anchor-11"/>
  <anchor x="0" y="0" name="Anchor-10"/>
  <anchor x="444" y="1495" name="Anchor-9"/>
  <anchor x="352" y="20" name="Anchor-8"/>
  <anchor x="127" y="0" name="Anchor-7"/>
  <outline>
    <contour>
      <point x="557" y="1495" type="qcurve"/>
      <point x="705" y="1495" type="line"/>
      <point x="679" y="1376"/>
      <point x="497" y="1221"/>
      <point x="385" y="1221" type="qcurve" smooth="yes"/>
      <point x="286" y="1221"/>
      <point x="172" y="1334"/>
      <point x="172" y="1427" type="qcurve" smooth="yes"/>
      <point x="172" y="1464"/>
      <point x="180" y="1495" type="qcurve"/>
      <point x="328" y="1495" type="line"/>
      <point x="322" y="1474"/>
      <point x="322" y="1454" type="qcurve" smooth="yes"/>
      <point x="322" y="1408"/>
      <point x="372" y="1343"/>
      <point x="410" y="1343" type="qcurve" smooth="yes"/>
      <point x="453" y="1343"/>
      <point x="537" y="1429"/>
    </contour>
    <contour>
      <point x="219" y="1073" type="line"/>
      <point x="494" y="1073" type="line"/>
      <point x="266" y="0" type="line"/>
      <point x="-8" y="0" type="line"/>
    </contour>
  </outline>
</glyph>
<glyph name="Iogonek" format="2">
  <advance width="583"/>
  <unicode hex="012E"/>
  <anchor x="0" y="0" name="Anchor-11"/>
  <anchor x="0" y="0" name="Anchor-10"/>
  <anchor x="477" y="1454" name="Anchor-9"/>
  <anchor x="301" y="0" name="Anchor-8"/>
  <anchor x="168" y="0" name="Anchor-7"/>
  <outline>
    <contour>
      <point x="301" y="0" type="line"/>
      <point x="220" y="-63"/>
      <point x="141" y="-155"/>
      <point x="141" y="-193" type="qcurve" smooth="yes"/>
      <point x="141" y="-251"/>
      <point x="233" y="-254" type="qcurve"/>
      <point x="145" y="-410" type="line"/>
      <point x="56" y="-399"/>
      <point x="-37" y="-312"/>
      <point x="-37" y="-254" type="qcurve" smooth="yes"/>
      <point x="-37" y="-122"/>
      <point x="137" y="0" type="qcurve"/>
      <point x="20" y="0" type="line"/>
      <point x="330" y="1452" type="line"/>
      <point x="610" y="1452" type="line"/>
    </contour>
  </outline>
</glyph>
<glyph name="iogonek" format="2">
  <advance width="518"/>
  <unicode hex="012F"/>
  <anchor x="0" y="0" name="Anchor-11"/>
  <anchor x="0" y="0" name="Anchor-10"/>
  <anchor x="0" y="0" name="Anchor-9"/>
  <anchor x="266" y="0" name="Anchor-8"/>
  <anchor x="135" y="0" name="Anchor-7"/>
  <outline>
    <contour>
      <point x="309" y="1495" type="line"/>
      <point x="584" y="1495" type="line"/>
      <point x="526" y="1223" type="line"/>
      <point x="252" y="1223" type="line"/>
    </contour>
    <contour>
      <point x="-8" y="0" type="line"/>
      <point x="219" y="1073" type="line"/>
      <point x="494" y="1073" type="line"/>
      <point x="266" y="0" type="line"/>
      <point x="185" y="-63"/>
      <point x="106" y="-155"/>
      <point x="106" y="-193" type="qcurve" smooth="yes"/>
      <point x="106" y="-251"/>
      <point x="199" y="-254" type="qcurve"/>
      <point x="111" y="-410" type="line"/>
      <point x="22" y="-399"/>
      <point x="-72" y="-312"/>
      <point x="-72" y="-254" type="qcurve" smooth="yes"/>
      <point x="-72" y="-122"/>
      <point x="102" y="0" type="qcurve"/>
    </contour>
  </outline>
</glyph>
<glyph name="Idotaccent" format="2">
  <advance width="583"/>
  <unicode hex="0130"/>
  <anchor x="0" y="0" name="Anchor-11"/>
  <anchor x="0" y="0" name="Anchor-10"/>
  <anchor x="565" y="1876" name="Anchor-9"/>
  <anchor x="301" y="0" name="Anchor-8"/>
  <anchor x="168" y="0" name="Anchor-7"/>
  <outline>
    <contour>
      <point x="387" y="1618" type="line"/>
      <point x="444" y="1876" type="line"/>
      <point x="690" y="1876" type="line"/>
      <point x="635" y="1618" type="line"/>
    </contour>
    <contour>
      <point x="330" y="1452" type="line"/>
      <point x="610" y="1452" type="line"/>
      <point x="301" y="0" type="line"/>
      <point x="20" y="0" type="line"/>
    </contour>
  </outline>
</glyph>
<glyph name="dotlessi" format="2">
  <advance width="518"/>
  <unicode hex="0131"/>
  <anchor x="0" y="0" name="Anchor-11"/>
  <anchor x="0" y="0" name="Anchor-10"/>
  <anchor x="354" y="1073" name="Anchor-9"/>
  <anchor x="352" y="20" name="Anchor-8"/>
  <anchor x="127" y="0" name="Anchor-7"/>
  <outline>
    <contour>
      <point x="219" y="1073" type="line"/>
      <point x="494" y="1073" type="line"/>
      <point x="266" y="0" type="line"/>
      <point x="-8" y="0" type="line"/>
    </contour>
  </outline>
</glyph>
<glyph name="Jcircumflex" format="2">
  <advance width="980"/>
  <unicode hex="0134"/>
  <anchor x="0" y="0" name="Anchor-11"/>
  <anchor x="0" y="0" name="Anchor-10"/>
  <anchor x="961" y="1872" name="Anchor-9"/>
  <anchor x="0" y="0" name="Anchor-8"/>
  <anchor x="0" y="0" name="Anchor-7"/>
  <outline>
    <contour>
      <point x="623" y="1665" type="line"/>
      <point x="877" y="1872" type="line"/>
      <point x="1073" y="1872" type="line"/>
      <point x="1239" y="1665" type="line"/>
      <point x="1081" y="1599" type="line"/>
      <point x="944" y="1729" type="line"/>
      <point x="752" y="1599" type="line"/>
    </contour>
    <contour>
      <point x="-88" y="68" type="qcurve"/>
      <point x="23" y="297" type="line"/>
      <point x="48" y="272"/>
      <point x="171" y="227"/>
      <point x="246" y="227" type="qcurve" smooth="yes"/>
      <point x="309" y="227"/>
      <point x="403" y="268"/>
      <point x="470" y="338"/>
      <point x="525" y="468"/>
      <point x="563" y="606"/>
      <point x="586" y="715" type="qcurve" smooth="yes"/>
      <point x="743" y="1452" type="line"/>
      <point x="1026" y="1452" type="line"/>
      <point x="868" y="715" type="line" smooth="yes"/>
      <point x="846" y="611"/>
      <point x="804" y="457"/>
      <point x="743" y="295"/>
      <point x="673" y="181"/>
      <point x="573" y="77"/>
      <point x="451" y="14"/>
      <point x="290" y="-23"/>
      <point x="193" y="-23" type="qcurve" smooth="yes"/>
      <point x="20" y="-23"/>
    </contour>
  </outline>
</glyph>
<glyph name="jcircumflex" format="2">
  <advance width="518"/>
  <unicode hex="0135"/>
  <anchor x="0" y="0" name="Anchor-11"/>
  <anchor x="0" y="0" name="Anchor-10"/>
  <anchor x="449" y="1495" name="Anchor-9"/>
  <anchor x="0" y="0" name="Anchor-8"/>
  <anchor x="145" y="0" name="Anchor-7"/>
  <outline>
    <contour>
      <point x="111" y="1288" type="line"/>
      <point x="365" y="1495" type="line"/>
      <point x="561" y="1495" type="line"/>
      <point x="727" y="1288" type="line"/>
      <point x="569" y="1223" type="line"/>
      <point x="432" y="1352" type="line"/>
      <point x="240" y="1223" type="line"/>
    </contour>
    <contour>
      <point x="-422" y="-305" type="qcurve"/>
      <point x="-266" y="-119" type="line"/>
      <point x="-233" y="-164"/>
      <point x="-164" y="-164" type="qcurve" smooth="yes"/>
      <point x="-113" y="-164"/>
      <point x="-28" y="-88"/>
      <point x="-16" y="-29" type="qcurve" smooth="yes"/>
      <point x="219" y="1073" type="line"/>
      <point x="494" y="1073" type="line"/>
      <point x="264" y="-8" type="line" smooth="yes"/>
      <point x="240" y="-121"/>
      <point x="106" y="-302"/>
      <point x="-79" y="-401"/>
      <point x="-180" y="-401" type="qcurve" smooth="yes"/>
      <point x="-339" y="-401"/>
    </contour>
  </outline>
</glyph>
<glyph name="Kcedilla" format="2">
  <advance width="1316"/>
  <unicode hex="0136"/>
  <anchor x="0" y="0" name="Anchor-11"/>
  <anchor x="0" y="0" name="Anchor-10"/>
  <anchor x="0" y="0" name="Anchor-9"/>
  <anchor x="0" y="0" name="Anchor-8"/>
  <anchor x="569" y="0" name="Anchor-7"/>
  <outline>
    <contour>
      <point x="330" y="1452" type="line"/>
      <point x="610" y="1452" type="line"/>
      <point x="463" y="762" type="line"/>
      <point x="1169" y="1454" type="line"/>
      <point x="1485" y="1454" type="line"/>
      <point x="819" y="809" type="line"/>
      <point x="1208" y="0" type="line"/>
      <point x="889" y="0" type="line"/>
      <point x="604" y="629" type="line"/>
      <point x="393" y="434" type="line"/>
      <point x="301" y="0" type="line"/>
      <point x="20" y="0" type="line"/>
    </contour>
    <contour>
      <point x="385" y="-436" type="line"/>
      <point x="473" y="-289" type="line"/>
      <point x="391" y="-289" type="line"/>
      <point x="432" y="-96" type="line"/>
      <point x="664" y="-96" type="line"/>
      <point x="623" y="-289" type="line"/>
      <point x="510" y="-436" type="line"/>
    </contour>
  </outline>
</glyph>
<glyph name="kcedilla" format="2">
  <advance width="1146"/>
  <unicode hex="0137"/>
  <anchor x="0" y="0" name="Anchor-11"/>
  <anchor x="0" y="0" name="Anchor-10"/>
  <anchor x="0" y="0" name="Anchor-9"/>
  <anchor x="0" y="0" name="Anchor-8"/>
  <anchor x="465" y="0" name="Anchor-7"/>
  <outline>
    <contour>
      <point x="1096" y="854" type="qcurve" smooth="yes"/>
      <point x="1096" y="721"/>
      <point x="935" y="493"/>
      <point x="786" y="420" type="qcurve"/>
      <point x="987" y="0" type="line"/>
      <point x="696" y="0" type="line"/>
      <point x="487" y="485" type="line"/>
      <point x="656" y="519"/>
      <point x="850" y="674"/>
      <point x="850" y="764" type="qcurve" smooth="yes"/>
      <point x="850" y="810"/>
      <point x="799" y="856"/>
      <point x="756" y="856" type="qcurve" smooth="yes"/>
      <point x="653" y="856"/>
      <point x="428" y="641"/>
      <point x="369" y="487" type="qcurve"/>
      <point x="264" y="0" type="line"/>
      <point x="-8" y="0" type="line"/>
      <point x="309" y="1495" type="line"/>
      <point x="582" y="1495" type="line"/>
      <point x="434" y="799" type="line"/>
      <point x="624" y="1087"/>
      <point x="872" y="1087" type="qcurve" smooth="yes"/>
      <point x="983" y="1087"/>
      <point x="1096" y="965"/>
    </contour>
    <contour>
      <point x="287" y="-289" type="line"/>
      <point x="328" y="-96" type="line"/>
      <point x="559" y="-96" type="line"/>
      <point x="518" y="-289" type="line"/>
      <point x="406" y="-436" type="line"/>
      <point x="281" y="-436" type="line"/>
      <point x="369" y="-289" type="line"/>
    </contour>
  </outline>
</glyph>
<glyph name="kgreenlandic" format="2">
  <advance width="1103"/>
  <unicode hex="0138"/>
  <outline>
    <contour>
      <point x="219" y="1073" type="line"/>
      <point x="494" y="1073" type="line"/>
      <point x="389" y="588" type="line"/>
      <point x="885" y="1071" type="line"/>
      <point x="1178" y="1071" type="line"/>
      <point x="705" y="616" type="line"/>
      <point x="979" y="0" type="line"/>
      <point x="686" y="0" type="line"/>
      <point x="496" y="465" type="line"/>
      <point x="334" y="319" type="line"/>
      <point x="266" y="0" type="line"/>
      <point x="-8" y="0" type="line"/>
    </contour>
  </outline>
</glyph>
<glyph name="Lacute" format="2">
  <advance width="1148"/>
  <unicode hex="0139"/>
  <anchor x="940" y="1073" name="Anchor-11"/>
  <anchor x="616" y="727" name="Anchor-10"/>
  <anchor x="602" y="1880" name="Anchor-9"/>
  <anchor x="0" y="0" name="Anchor-8"/>
  <anchor x="508" y="0" name="Anchor-7"/>
  <outline>
    <contour>
      <point x="565" y="1602" type="line"/>
      <point x="387" y="1636" type="line"/>
      <point x="543" y="1880" type="line"/>
      <point x="797" y="1880" type="line"/>
    </contour>
    <contour>
      <point x="330" y="1454" type="line"/>
      <point x="610" y="1454" type="line"/>
      <point x="354" y="248" type="line"/>
      <point x="1049" y="248" type="line"/>
      <point x="997" y="0" type="line"/>
      <point x="20" y="0" type="line"/>
    </contour>
  </outline>
</glyph>
<glyph name="lacute" format="2">
  <advance width="632"/>
  <unicode hex="013A"/>
  <anchor x="647" y="1073" name="Anchor-11"/>
  <anchor x="317" y="537" name="Anchor-10"/>
  <anchor x="586" y="1921" name="Anchor-9"/>
  <anchor x="0" y="0" name="Anchor-8"/>
  <anchor x="264" y="0" name="Anchor-7"/>
  <outline>
    <contour>
      <point x="549" y="1642" type="line"/>
      <point x="371" y="1677" type="line"/>
      <point x="526" y="1921" type="line"/>
      <point x="780" y="1921" type="line"/>
    </contour>
    <contour>
      <point x="33" y="170" type="qcurve" smooth="yes"/>
      <point x="33" y="190"/>
      <point x="41" y="248" type="qcurve"/>
      <point x="307" y="1495" type="line"/>
      <point x="580" y="1495" type="line"/>
      <point x="336" y="344" type="line" smooth="yes"/>
      <point x="332" y="316"/>
      <point x="332" y="303" type="qcurve" smooth="yes"/>
      <point x="332" y="263"/>
      <point x="375" y="219"/>
      <point x="416" y="219" type="qcurve" smooth="yes"/>
      <point x="461" y="219"/>
      <point x="524" y="248" type="qcurve"/>
      <point x="516" y="39" type="line"/>
      <point x="459" y="14"/>
      <point x="310" y="-16"/>
      <point x="248" y="-16" type="qcurve" smooth="yes"/>
      <point x="144" y="-16"/>
      <point x="33" y="81"/>
    </contour>
  </outline>
</glyph>
<glyph name="Lcaron" format="2">
  <advance width="1148"/>
  <unicode hex="013D"/>
  <anchor x="940" y="1073" name="Anchor-11"/>
  <anchor x="616" y="727" name="Anchor-10"/>
  <anchor x="453" y="1454" name="Anchor-9"/>
  <anchor x="0" y="0" name="Anchor-8"/>
  <anchor x="508" y="0" name="Anchor-7"/>
  <outline>
    <contour>
      <point x="866" y="1251" type="line"/>
      <point x="1022" y="1495" type="line"/>
      <point x="1276" y="1495" type="line"/>
      <point x="1030" y="1198" type="line"/>
    </contour>
    <contour>
      <point x="330" y="1454" type="line"/>
      <point x="610" y="1454" type="line"/>
      <point x="354" y="248" type="line"/>
      <point x="1049" y="248" type="line"/>
      <point x="997" y="0" type="line"/>
      <point x="20" y="0" type="line"/>
    </contour>
  </outline>
</glyph>
<glyph name="Ldot" format="2">
  <advance width="1150"/>
  <unicode hex="013F"/>
  <anchor x="940" y="1073" name="Anchor-11"/>
  <anchor x="616" y="727" name="Anchor-10"/>
  <anchor x="453" y="1454" name="Anchor-9"/>
  <anchor x="0" y="0" name="Anchor-8"/>
  <anchor x="508" y="0" name="Anchor-7"/>
  <outline>
    <contour>
      <point x="330" y="1454" type="line"/>
      <point x="610" y="1454" type="line"/>
      <point x="354" y="248" type="line"/>
      <point x="1049" y="248" type="line"/>
      <point x="997" y="0" type="line"/>
      <point x="20" y="0" type="line"/>
    </contour>
    <contour>
      <point x="688" y="696" type="line"/>
      <point x="754" y="1006" type="line"/>
      <point x="979" y="1006" type="line"/>
      <point x="913" y="696" type="line"/>
    </contour>
  </outline>
</glyph>
<glyph name="ldot" format="2">
  <advance width="804"/>
  <unicode hex="0140"/>
  <anchor x="647" y="1073" name="Anchor-11"/>
  <anchor x="317" y="537" name="Anchor-10"/>
  <anchor x="436" y="1495" name="Anchor-9"/>
  <anchor x="0" y="0" name="Anchor-8"/>
  <anchor x="264" y="0" name="Anchor-7"/>
  <outline>
    <contour>
      <point x="33" y="170" type="qcurve" smooth="yes"/>
      <point x="33" y="190"/>
      <point x="41" y="248" type="qcurve"/>
      <point x="307" y="1495" type="line"/>
      <point x="580" y="1495" type="line"/>
      <point x="336" y="344" type="line" smooth="yes"/>
      <point x="332" y="316"/>
      <point x="332" y="303" type="qcurve" smooth="yes"/>
      <point x="332" y="263"/>
      <point x="375" y="219"/>
      <point x="416" y="219" type="qcurve" smooth="yes"/>
      <point x="461" y="219"/>
      <point x="524" y="248" type="qcurve"/>
      <point x="516" y="39" type="line"/>
      <point x="459" y="14"/>
      <point x="310" y="-16"/>
      <point x="248" y="-16" type="qcurve" smooth="yes"/>
      <point x="144" y="-16"/>
      <point x="33" y="81"/>
    </contour>
    <contour>
      <point x="537" y="545" type="line"/>
      <point x="602" y="854" type="line"/>
      <point x="827" y="854" type="line"/>
      <point x="762" y="545" type="line"/>
    </contour>
  </outline>
</glyph>
<glyph name="Lslash" format="2">
  <advance width="1165"/>
  <unicode hex="0141"/>
  <anchor x="940" y="1073" name="Anchor-11"/>
  <anchor x="616" y="727" name="Anchor-10"/>
  <anchor x="453" y="1454" name="Anchor-9"/>
  <anchor x="0" y="0" name="Anchor-8"/>
  <anchor x="508" y="0" name="Anchor-7"/>
  <outline>
    <contour>
      <point x="354" y="248" type="line"/>
      <point x="1049" y="248" type="line"/>
      <point x="997" y="0" type="line"/>
      <point x="20" y="0" type="line"/>
      <point x="137" y="551" type="line"/>
      <point x="43" y="496" type="line"/>
      <point x="6" y="645" type="line"/>
      <point x="178" y="745" type="line"/>
      <point x="330" y="1454" type="line"/>
      <point x="610" y="1454" type="line"/>
      <point x="500" y="930" type="line"/>
      <point x="752" y="1075" type="line"/>
      <point x="786" y="926" type="line"/>
      <point x="459" y="735" type="line"/>
    </contour>
  </outline>
</glyph>
